/* XPM */
static char *result[] = {
/* columns rows colors chars-per-pixel */
"45 45 169 2 ",
"   c #010202",
".  c #090705",
"X  c #030709",
"o  c #05090C",
"O  c #0A0A0A",
"+  c #110B03",
"@  c #050D11",
"#  c #090E11",
"$  c #071015",
"%  c #0B1216",
"&  c #0B1519",
"*  c #0D191D",
"=  c #11171A",
"-  c #1D1B1A",
";  c #231A0C",
":  c #372B19",
">  c #0E1B21",
",  c #121E23",
"<  c #192124",
"1  c #15242B",
"2  c #1B262C",
"3  c #18282B",
"4  c #192B34",
"5  c #1C2F38",
"6  c #1E323B",
"7  c #222324",
"8  c #27292A",
"9  c #2E302F",
"0  c #37322D",
"q  c #272E32",
"w  c #263136",
"e  c #22343D",
"r  c #283338",
"t  c #253A3E",
"y  c #2B3A3D",
"u  c #383A3A",
"i  c #47381D",
"p  c #473A24",
"a  c #503E21",
"s  c #5B4827",
"d  c #69532E",
"f  c #6F5831",
"g  c #213741",
"h  c #243A44",
"j  c #2C3D43",
"k  c #263E49",
"l  c #323F45",
"z  c #27404B",
"x  c #29414D",
"c  c #334147",
"v  c #36444B",
"b  c #2C4652",
"n  c #2E4956",
"m  c #2F4C58",
"M  c #324C54",
"N  c #3C4B52",
"B  c #314D5A",
"V  c #34515E",
"C  c #395559",
"Z  c #3D5A5B",
"A  c #365563",
"S  c #395766",
"D  c #395966",
"F  c #3A5B6A",
"G  c #3F606C",
"H  c #4A4946",
"J  c #504941",
"K  c #514D48",
"L  c #4C5456",
"P  c #41525A",
"I  c #565654",
"U  c #545A5C",
"Y  c #5D5E5D",
"T  c #665E55",
"R  c #5C605F",
"E  c #6D645A",
"W  c #445B62",
"Q  c #4A5D65",
"!  c #425F6A",
"~  c #42646E",
"^  c #4E616A",
"/  c #47686A",
"(  c #5C6162",
")  c #52656F",
"_  c #456670",
"`  c #466971",
"'  c #4A6D73",
"]  c #566B75",
"[  c #596C74",
"{  c #586E78",
"}  c #4E7275",
"|  c #507476",
" . c #517678",
".. c #5D737D",
"X. c #557A7A",
"o. c #587E7D",
"O. c #646968",
"+. c #6B6E6D",
"@. c #716F6B",
"#. c #797169",
"$. c #6F7474",
"%. c #767978",
"&. c #5A817E",
"*. c #8F8376",
"=. c #5F7681",
"-. c #627984",
";. c #667E8A",
":. c #5E8581",
">. c #638C85",
",. c #7E8483",
"<. c #6E8995",
"1. c #708B97",
"2. c #728D99",
"3. c #75919E",
"4. c #7793A1",
"5. c #7C9AA7",
"6. c #7E9BA9",
"7. c #858B8A",
"8. c #8B8E8D",
"9. c #9D8F82",
"0. c #8A908F",
"q. c #8C9292",
"w. c #969C9B",
"e. c #A19385",
"r. c #A99A8B",
"t. c #99A09F",
"y. c #B9A898",
"u. c #809FAC",
"i. c #82A1AF",
"p. c #9EA5A4",
"a. c #85A4B3",
"s. c #88A8B7",
"d. c #8CADBC",
"f. c #A0A7A6",
"g. c #AEB5B4",
"h. c #B1B8B7",
"j. c #B3BABA",
"k. c #C5B4A3",
"l. c #C8B7A6",
"z. c #CAB9A7",
"x. c #CDBBA9",
"c. c #D0BEAC",
"v. c #D9C6B3",
"b. c #DCC9B6",
"n. c #93B5C5",
"m. c #96B9CA",
"M. c #99BDCD",
"N. c #9BBFD0",
"B. c #9DC2D3",
"V. c #BCC4C3",
"C. c #A0C6D7",
"Z. c #A1C6D8",
"A. c #A4CADC",
"S. c #A7CEE0",
"D. c #A8CFE1",
"F. c #ABD2E5",
"G. c #AED7EA",
"H. c #AFD8EB",
"J. c #B1DAED",
"K. c #C2CBCA",
"L. c #CBD4D3",
"P. c #D1DAD9",
"I. c #DAE3E3",
"U. c #E4EDEC",
"Y. c #E7F0EF",
"T. c #EBF5F4",
"R. c #EEF8F7",
"E. c #EFF9F8",
"W. c #F0FAF9",
/* pixels */
"F ~ _ _ _ _ G G F F F F F F F F F F F F F F F F S F F F F F F F F F F F F F F F F F F F F ",
"G ` | X.X.| ' G F F F F F F F F F F F F F F F F F F A S F F F F F F F F F F F F F F F F F ",
"G } o.:.:.&. .G F F D m m S F F F F F F F F F F F k   @ V F F F F F F F F F F F F F F F F ",
"~ } :.>.>.:.X.~ S F B   & > B F F F F F F F F F n X 2.@ k F F F F F F F F F F F F F F F F ",
"~ } &.>.>.:.| ! S S S @ 2.=.@ x F F F F F F F A > ] H.N 4 F F F F F F F F F F F F F F F F ",
"~ ' o.&.:.o.' ~ ! ! F , -.G.4.= 4 m F F F F A 1 N S.J.<.> F F F F F ~ ~ ' ' _ F F F F F F ",
"F _ '  . .| ' ~ _ _ ! 6 r J.J.B.=.@ k S F F 4 q N.H.J.d.  A F F F F ~ } X.| W C A F F F F ",
"F F ` '  .| ' ` ` / F h , F.J.J.J.a.% g S b   n.J.J.J.B., k F F F F ` / Z 3 , r * S F F F ",
"F G _ | &.o.} ` ~ ~ F z % Z.J.J.J.J.n.j , > =.H.J.J.J.J.W , ~ ~ V g , % ^ a.C.l 4 S F F F ",
"F F _ X.&.&.} ~ D F D B X m.J.J.J.J.H.Z.N X m.J.J.J.J.J.u.X e > w <.n.Z.J.J.2.X B S F F F ",
"F F t 4 t c M M B A A b O M.J.J.J.J.J.J.S.i.G.J.J.J.J.J.s.X -.n.G.J.J.J.J.A.w g F F F F F ",
"F D > w a.2.-.N w < & @   m.J.J.J.J.J.J.J.J.J.J.J.J.J.J.F.B.H.H.J.J.J.J.J.2.# A F S F F F ",
"F F V & W M.J.J.H.A.Z.M.a.A.J.J.J.J.J.J.J.J.J.J.J.H.J.J.J.J.J.J.J.J.J.J.S.8 h ! S S F F F ",
"D F F A 5 , a.J.J.J.J.J.J.J.J.J.J.J.G.a.=.T Y Y -.s.D.H.J.J.J.J.J.J.J.J.a.X V S F F F F F ",
"F F F F D k X ;.F.J.J.J.J.J.J.J.J.n.U 9.c.b.b.b.c.r.I d.J.D.D.J.J.J.J.D.v > n A F F F F F ",
"F F F F D F n & ) A.J.J.J.J.J.J.N.K x.b.b.b.b.b.b.b.l.0 P -.4.J.J.J.J.Z.=.^ n $ $ 1 6 b F ",
"F F F F F F F B , w d.J.J.F.d.a.Q e.b.b.b.b.b.b.b.v.T u.F.J.J.J.J.J.J.J.J.J.G.D.m.6.,   b ",
"F S V B b k 5 *   O ) F.J.D.d.n.s.=.O.z.b.v.z.k.k.9.1.J.J.J.J.J.J.J.J.J.J.J.D.n.;.= 1 h A ",
"S 1 X y P =.5.m.C.F.J.J.J.J.J.J.J.J.N.K r.T ;.4.3.] N.J.J.J.J.J.J.J.J.J.F.i.l & g m F F F ",
"S g X C d.H.J.J.J.J.J.J.J.J.J.J.J.J.J.i...D.J.J.J.J.J.J.J.J.J.J.J.J.J.N.l   k S F F F F F ",
"F F A h @ Q m.J.J.J.J.J.J.J.J.J.J.J.J.J.J.J.J.J.J.J.J.J.J.J.J.J.J.J.J.F.2.w > b F F F F F ",
"F F F F A 6 # Q 6.Z.J.J.J.J.J.J.J.J.J.J.J.J.J.J.J.J.J.J.J.J.J.J.J.J.J.J.J.D.4.= 4 V F F F ",
"F F F F F F b X   c N.J.J.J.J.J.J.J.J.J.J.J.J.J.J.J.J.J.J.J.J.J.J.J.H.H.J.J.J.N.] o k F F ",
"F F F F A g @ ..N.G.J.J.J.J.J.J.J.J.J.J.J.J.J.J.J.J.J.J.J.J.J.J.J.J.J.G.a.n.d.3.{ X X A F ",
"F F F m > v n.H.J.J.J.J.J.J.J.J.J.J.J.J.J.J.J.J.J.J.J.J.J.J.J.J.J.J.J.F.= @ 4 5 k n V F F ",
"F F g   { N.S.D.J.H.J.J.J.J.J.J.J.J.J.J.J.J.J.J.J.J.J.J.J.J.J.J.J.J.J.J.3.o A F F F F F F ",
"F F 1 X , X X w ) <.3.C.J.J.J.J.J.J.J.J.J.J.J.J.J.J.J.J.J.J.J.J.J.J.H.G.B., h F F F F F F ",
"F G G D D F S B x e   s.J.J.J.J.J.J.J.J.J.J.J.J.J.J.J.J.J.J.J.N.;.6.i.n.N.{ o A F F F F F ",
"! ` ' | ' _ F D F B   m.J.J.J.J.J.J.J.J.G.G.H.J.J.H.5.n.H.J.J.u.  1 1 , $ @ @ n F F F F F ",
"_ ' o.o.X.` F F S g 2 D.G.N.n.<.C.H.J.H.n.d.G.J.J.i.7.t.Q n.J.m.o b S F F A A F F F F F F ",
"G ' o.:. .` F F ! X 8 P , 0.j.K.L A.J.1.0.p.;.J.M.( Y.W.+.w.[ u.& g S S F F F F F F F F F ",
"G '  .X.| / F ! ~ S k , l Y.W.W.7.=.1.7.W.W.q.-.U I.W.T.R Y.j.    4 F F F F F F F F F F F ",
"F G ' ' } _ G ` ` ` ~ 1 0 @.w.K.( 0.L.R.E.E.R.P.Y.E.E.W.L U.T.+.* D D F F F F F F F F F F ",
"F G _ }  .| } ` ` G F , E v.k.*.O P.E.E.W.E.W.W.E.E.W.W.,.L.E.K.O n F F G G G G F F F F F ",
"F F _  .&.o.| _ G F F h - y.y.s u Y.W.E.E.W.W.W.W.W.W.W.g.h.W.W.O.1 D F G ` ` ` G G F F F ",
"F F G  .:.&.} G D D F D w X @   $.W.W.E.W.W.W.W.W.W.W.W.L.%.W.W.V.  A G ` } &. .' G G _ G ",
"F F G } =.} ` G D D F F F A B X h.E.E.E.E.R.T.U.P.P.P.P.f.u f.7.Y   B F ' o.:.&.} ` ' } } ",
"F F G G G G G F F F F F F F B   P.Y.P.h.q.O.7   : s a +   #.k.x.#.@ A ~ ` X.=. .' } X.o. .",
"F F F F G G F F F F F F D ~ C   I 9 i s d ;     H Y J   O 7 y.e.O $ A F ~ ' } ' ` ' o.:.X.",
"F F F F F F F F F F F F F ~ ' Z y . f f d   @   I @.R   6 6 .   6 A F F F / ' ' / ' } X.| ",
"F F F F F F F F F F F F F G ' =./   : p p   1   7 q 2   z F A A F F F F F _ ` ` ~ ~ _ ` _ ",
"F F F F F F F F F F F F F G ` } Z   +.8.%.  g g X X $ z F F F F F F F F F F _ _ ! F F F F ",
"F F F F F F F F F F F F F F G G B   - 8 8   k D B B A F F F F F F F F F F F G G F F F F F ",
"F F F F F F F F F F F F F F G G F k $ O . , A F F F F F F F A F F F F F F F F F F F F F F ",
"F F F F F F F F F F F F F F F F S F S n b S F F F F F F F F F F F F F F F F F F D F F F F "
};
