/* XPM */
static char *result[] = {
/* columns rows colors chars-per-pixel */
"45 45 161 2 ",
"   c #010202",
".  c #090501",
"X  c #030709",
"o  c #05090B",
"O  c #090B0D",
"+  c #140F06",
"@  c #060D11",
"#  c #071015",
"$  c #0C1316",
"%  c #0A151A",
"&  c #0D191F",
"*  c #121313",
"=  c #181C1E",
"-  c #251C0E",
";  c #231F1B",
":  c #382D1C",
">  c #3C301D",
",  c #0E1B21",
"<  c #121E24",
"1  c #132127",
"2  c #192124",
"3  c #15252C",
"4  c #1C2529",
"5  c #1B282E",
"6  c #1F312F",
"7  c #1A2C34",
"8  c #1E323C",
"9  c #262728",
"0  c #3F3321",
"q  c #252F34",
"w  c #263035",
"e  c #2A353B",
"r  c #363430",
"t  c #45371E",
"y  c #483B27",
"u  c #443D32",
"i  c #4C443D",
"p  c #644F2C",
"a  c #6B542F",
"s  c #6F5831",
"d  c #213640",
"f  c #243B45",
"g  c #2E3B41",
"h  c #273E49",
"j  c #313E44",
"k  c #27404B",
"l  c #2A434D",
"z  c #3E4344",
"x  c #36444B",
"c  c #38464D",
"v  c #344D4E",
"b  c #2C4652",
"n  c #2E4955",
"m  c #2F4B58",
"M  c #324D55",
"N  c #3E4D55",
"B  c #314E5B",
"V  c #3F5057",
"C  c #35525C",
"Z  c #3D5858",
"A  c #365563",
"S  c #395766",
"D  c #395866",
"F  c #3A5B6A",
"G  c #3F606C",
"H  c #4C4B47",
"J  c #544C44",
"K  c #5A534C",
"L  c #4A5356",
"P  c #42535B",
"I  c #565C5D",
"U  c #585D5D",
"Y  c #675E55",
"T  c #42605E",
"R  c #6C6258",
"E  c #445C61",
"W  c #425F6A",
"Q  c #535F64",
"!  c #42636E",
"~  c #4F626A",
"^  c #4A6C6E",
"/  c #5C6364",
"(  c #51656E",
")  c #446670",
"_  c #466971",
"`  c #4A6D73",
"'  c #566A73",
"]  c #596F79",
"[  c #4E7275",
"{  c #507476",
"}  c #517678",
"|  c #5C727D",
" . c #557A7A",
".. c #587E7D",
"X. c #666867",
"o. c #646A6B",
"O. c #7D7266",
"+. c #71716F",
"@. c #717574",
"#. c #86796D",
"$. c #897D71",
"%. c #5A817E",
"&. c #918477",
"*. c #96897B",
"=. c #5F7681",
"-. c #627A85",
";. c #657E89",
":. c #5E8581",
">. c #638C85",
",. c #6E8895",
"<. c #708B97",
"1. c #728E9B",
"2. c #75919E",
"3. c #7A97A4",
"4. c #7E9BA9",
"5. c #848A89",
"6. c #8C8D8B",
"7. c #969C9C",
"8. c #A69789",
"9. c #AA9B8C",
"0. c #B5A595",
"q. c #809EAD",
"w. c #82A0AE",
"e. c #9DA4A4",
"r. c #85A4B3",
"t. c #88A9B7",
"y. c #8BABBA",
"u. c #A5ACAB",
"i. c #ABB3B2",
"p. c #B3BABA",
"a. c #C1B09F",
"s. c #C4B3A2",
"d. c #D1BFAD",
"f. c #D7C5B3",
"g. c #DCC9B6",
"h. c #8FB1C0",
"j. c #92B4C4",
"k. c #96BACA",
"l. c #99BCCD",
"z. c #9BBFD0",
"x. c #9DC2D3",
"c. c #BCC4C3",
"v. c #A0C5D7",
"b. c #A1C7D8",
"n. c #A5CBDD",
"m. c #A8CFE1",
"M. c #AAD2E4",
"N. c #AED6E9",
"B. c #AFD8EB",
"V. c #B1DAED",
"C. c #C3CCCB",
"Z. c #C7D0CF",
"A. c #CDD6D5",
"S. c #D6DFDE",
"D. c #D7E0DF",
"F. c #DAE4E3",
"G. c #DFE8E7",
"H. c #E3ECEB",
"J. c #EAF4F3",
"K. c #EFF9F8",
"L. c #F0FAF9",
/* pixels */
"F ! ) ) ) ) G G F F F F F F F F F F F F F F F F F F F F F F F F F F F F F F D F F F D F F ",
"G _ {  . .{ [ G F F F F F F F F F F F F F F F F F F F F F F F F F F F F F F F F F F F F F ",
"G [ ..:.:.%.{ G F S F S S F F F F F F F F F F F F m 3 7 A F F F F F F D F F F F F F F F F ",
"! [ :.>.>.:.{ ! S S A # @ 8 A F F F F F F F F F A @ ~ X l F S F F F F D F F F F F F F F F ",
"! [ %.>.>.:.{ W S F A   -.M < C F F F F F F F S 5 j M.d 8 F F F F F F G F G G F F F F F F ",
"G `  .%.:.%.` ! W F F , ,.n.( @ h S F F F F F 8 5 z.V.;.< F F F F F G ! _ _ ! G F F F F F ",
"F _ `  . .{ ` ! ) ~ W 7 x V.N.q.f , B F F F h X y.V.V.4.o A F F F F ! [  . .` F F F F F F ",
"F F _ ` { { ` _ _ ! W f < M.V.V.M.;.X b S m X 2.V.V.V.z.@ b F F F G ) { ^ v $   7 F F F F ",
"F G _ { .. .{ ! ! ! F g = n.V.V.V.V.1.O f 3 E B.V.V.V.V.x 7 ! ) W B h 2 4 | y.P , S F F F ",
"F F ) { %...{ ! F F F n X l.V.V.V.V.V.y.4 . y.V.V.V.V.V.1.@ M f $ c ,.t.m.V.r.  b F F F F ",
"F F B v Z ! E D D F F n X k.V.V.V.V.V.V.j.] M.V.V.V.V.V.r.  j <.k.N.V.V.V.M.N 7 S F F F F ",
"F D % q ;.V w % # , 3 3 X k.V.V.V.V.V.V.V.V.V.V.V.V.V.V.n.w.M.V.V.V.V.V.V.r.  B S F F F F ",
"F F l o <.M.N.b.x.y.t.3.=.x.V.V.V.V.V.V.V.V.V.V.V.V.V.V.V.V.V.V.V.V.V.V.M.j 8 F S F F F F ",
"F F F n % V x.B.V.V.V.V.V.B.V.V.V.V.V.V.v.j.y.j.b.B.V.V.V.V.V.V.V.V.V.V.j.X B F F F F F F ",
"F F F F A 7 4 t.V.V.V.V.V.V.V.V.V.V.y.Q #.9.9.9.#./ r.N.V.V.V.V.V.V.V.V.( , A F F F F F F ",
"F F F F F F f o 2.B.V.V.V.V.V.V.N.-.$.d.g.g.g.g.g.f.*.' y.q.w.V.V.V.V.k.e X X , 8 h b A F ",
"F F F F F F F b o ' b.V.V.B.B.N.q.#.f.g.g.g.g.g.g.g.0.z 4.k.b.V.V.V.V.V.M.M.v.j.3.;.2 o m ",
"F F F F A m l 8 %   j M.V.n.| | g O.a.g.g.g.g.g.g.s.L m.V.V.V.V.V.V.V.V.V.V.V.n.r.Q X 3 B ",
"S f < @ % e ~ 2.r.h.m.V.V.V.B.B.N.k.] *.f.0.&.$.$.R r.V.V.V.V.V.V.V.V.V.V.z.;.< , f A S F ",
"F ,   ~ k.M.V.V.V.B.V.V.V.V.V.V.V.V.V.] K 1.x.n.n.j.N.V.V.V.V.V.V.V.V.n.-.X 7 B F F F F F ",
"F A n 3 2 3.m.B.V.V.V.V.V.V.V.V.V.V.V.x.j.V.V.V.V.V.V.V.V.V.V.V.V.V.V.v.E X 8 A F F F F F ",
"F F F F b & g 3.x.B.V.V.V.V.V.V.V.V.V.V.V.V.V.V.V.V.V.V.V.V.V.V.V.V.V.V.M.j.~ @ h S F F F ",
"F F F F F A l X   V x.V.V.V.V.V.V.V.V.V.V.V.V.V.V.V.V.V.V.V.V.V.V.V.V.V.V.V.N.q.e < A S F ",
"F F F F F n , g 4.x.B.V.V.V.V.V.V.V.V.V.V.V.V.V.V.V.V.V.V.V.V.V.V.V.V.V.n.M.m.k.1.o o A F ",
"F F F D 8 o ,.M.V.V.V.V.V.V.V.V.V.V.V.V.V.V.V.V.V.V.V.V.V.V.V.V.V.V.V.n..     @ 3 d l F F ",
"F F b % P l.V.B.V.V.V.V.V.V.V.V.V.V.V.V.V.V.V.V.V.V.V.V.V.V.V.V.V.V.V.V.=.@ A F F F F F F ",
"F F %   N N Z ] 4.j.k.M.V.V.V.V.V.V.V.V.V.V.V.V.V.V.V.V.V.V.V.V.V.V.V.V.k.o n F F F F F F ",
"F F D n M B n h 7 ,   r.V.V.V.V.V.V.V.V.V.V.V.V.V.V.V.V.V.V.V.m.y.z.v.n.B.( , A F F F F F ",
"G ) [ [ ` _ F F F m   j.V.V.V.V.V.V.V.V.V.V.V.V.V.V.z.m.V.V.V.4.  @ # < w w   b F F F F F ",
"G ` ..%. ._ F F F l   n.V.B.m.h.M.V.V.V.n.n.V.V.V.l./ / 1.m.V.j.  b A A B b m F F F F F F ",
"G [ %.%. .^ F F F $ g ,.-.x X.7.] M.V.h.Q @.r.V.m.L S.e.@.o.3.j.$ h F F F F F F F F F F F ",
"G ` [  .' ! F W ! h 8 d < * F.A.* 3.j.I H.J.o.r.Q c.K.i.@.J.p.$   3 F F F F F F F F F F F ",
"F G ` [ ` _ ! ! ` _ W A # 7.K.p.e.7.e.H.K.L.G.i.A.L.L.c.L J.K.@.@ B F F F F F F F F F F F ",
"F G G [  .[ ` _ _ ! F f = H.L.p.i.L.L.L.L.L.L.L.K.L.L.D.4 H.L.C.X M F F G G G G F F F F F ",
"F F ) { %.%.[ ) F F D % 6.L.L.u.p.L.L.L.L.L.L.L.L.L.L.J.z c.L.L.Q 5 S F G _ ` _ ) F F F F ",
"F F ) } %.%.[ ) D F C   7.C.G.@.p.L.L.L.L.L.L.L.L.L.L.L.6.e.F.c.5.@ A W _ { ..{ _ ) ) G G ",
"F F G [ } [ _ F F F D % i 9.&.i c.L.L.L.L.L.L.K.L.L.L.L.c.H &.9.; 3 F G ` ..:. .[ ) ` [ [ ",
"F F G G _ G G G S F A % i 0.f.i F.L.G.D.Z.C.C.A.D.F.H.K.D.J g.8.9 < F G _  ... .[ [  .:.} ",
"F F F F G F F F F F F l & i J * U r y t y .   . t y u i L * Y : 2 m F F ) ` [ [ _ ` ..=. .",
"F F F F F F F F F F F F A n Z T 6 - s s p   1   a s s + 3 l h b A F F F F ) _ _ ! ^ } } [ ",
"F F F F F F F F F F F F F ) [ ..P   t y :   3   0 y >   k F F F F F F F F ! _ ` ! ! ! ^ ! ",
"F F F F F F F F F F F F F F ) [ M   +.6.X.      +.6.+.  l F F F F F F F F F ) ! ! F F F F ",
"F F F F F F F F F F F F F F G G l   9 9 9   1   9 9 <   b F F F F F F F F F G G F F F F F ",
"F F F F F F F F F F F F F F F F F d X O   5 A 1 X O @ f F F F F F F F F F F F F F F F F F ",
"F F F F F F F F F F F F F F F F F F A b b S F S b n S F F F F F F F F F F F F F F F F F F "
};
