/* XPM */
static char *f212225bbf93473b95cb783c4dc18cdejwj5HEuZDFJL5OmA[] = {
/* columns rows colors chars-per-pixel */
"45 45 171 2 ",
"   c #010202",
".  c #0D0904",
"X  c #040709",
"o  c #05090B",
"O  c #0A0D0E",
"+  c #110C05",
"@  c #171106",
"#  c #060D11",
"$  c #0A0F12",
"%  c #071015",
"&  c #0B1115",
"*  c #0B151A",
"=  c #0C181D",
"-  c #141414",
";  c #13171A",
":  c #131B1D",
">  c #1B1B1C",
",  c #0E1B21",
"<  c #121D23",
"1  c #181F22",
"2  c #1B2225",
"3  c #14232A",
"4  c #14242B",
"5  c #1B262A",
"6  c #1B282C",
"7  c #172930",
"8  c #1A2C34",
"9  c #1C2F38",
"0  c #1E323B",
"q  c #272729",
"w  c #332F2C",
"e  c #33312E",
"r  c #222C31",
"t  c #263136",
"y  c #21353D",
"u  c #29343A",
"i  c #2D393E",
"p  c #353635",
"a  c #4B3B20",
"s  c #574526",
"d  c #5F4B29",
"f  c #49463F",
"g  c #6B552F",
"h  c #6D5630",
"j  c #233944",
"k  c #263B46",
"l  c #2C3D41",
"z  c #263E49",
"x  c #313E44",
"c  c #2B444B",
"v  c #29424D",
"b  c #2C4652",
"n  c #2E4955",
"m  c #2F4C58",
"M  c #364B53",
"N  c #314E5B",
"B  c #375250",
"V  c #33515E",
"C  c #3A575B",
"Z  c #365563",
"A  c #395666",
"S  c #395966",
"D  c #3A5B6A",
"F  c #3F606C",
"G  c #474948",
"H  c #56514D",
"J  c #414C51",
"K  c #455156",
"L  c #4C5254",
"P  c #43535B",
"I  c #5C5B59",
"U  c #6C6258",
"Y  c #445B63",
"T  c #4A5C64",
"R  c #425F6A",
"E  c #416063",
"W  c #42646E",
"Q  c #4E616A",
"!  c #496A6B",
"~  c #576266",
"^  c #53656E",
"/  c #446670",
"(  c #466971",
")  c #4A6D73",
"_  c #566C76",
"`  c #596B73",
"'  c #596F79",
"]  c #4E7275",
"[  c #507476",
"{  c #517678",
"}  c #5C727C",
"|  c #557A7A",
" . c #587E7D",
".. c #6C6C6A",
"X. c #736B62",
"o. c #786D62",
"O. c #78726B",
"+. c #686F70",
"@. c #767876",
"#. c #757A7A",
"$. c #82766B",
"%. c #887C70",
"&. c #5A817E",
"*. c #8E8275",
"=. c #9A8C7F",
"-. c #5F7580",
";. c #607883",
":. c #657D89",
">. c #5E8581",
",. c #638C85",
"<. c #67808C",
"1. c #6A838F",
"2. c #7D8281",
"3. c #6C8591",
"4. c #6E8995",
"5. c #708A97",
"6. c #738E9B",
"7. c #75919E",
"8. c #7794A1",
"9. c #7996A3",
"0. c #7B99A6",
"q. c #7E9CAA",
"w. c #868887",
"e. c #9D9082",
"r. c #8C9291",
"t. c #969C9B",
"y. c #A7998A",
"u. c #B5A596",
"i. c #81A0AE",
"p. c #9CA3A2",
"a. c #85A5B3",
"s. c #8CADBC",
"d. c #8EB0BF",
"f. c #A7AEAD",
"g. c #A8AFAE",
"h. c #ADB4B4",
"j. c #B4BBBB",
"k. c #C5B4A2",
"l. c #CBB9A8",
"z. c #D0BEAC",
"x. c #D5C3B1",
"c. c #D9C6B4",
"v. c #DCC9B6",
"b. c #8FB0C0",
"n. c #92B4C4",
"m. c #96B9C9",
"M. c #99BCCC",
"N. c #9BBFD0",
"B. c #9DC2D3",
"V. c #BDC5C4",
"C. c #A1C6D7",
"Z. c #A1C7D8",
"A. c #A4CADC",
"S. c #A7CEE0",
"D. c #A8CFE1",
"F. c #ABD3E5",
"G. c #AED6E9",
"H. c #AFD8EB",
"J. c #B0D9EC",
"K. c #B1DAED",
"L. c #C5CDCC",
"P. c #C7D0CF",
"I. c #CBD3D2",
"U. c #D0D9D8",
"Y. c #DAE3E2",
"T. c #DFE8E7",
"R. c #E3EDEC",
"E. c #ECF5F4",
"W. c #EEF8F7",
"Q. c #EFF9F8",
"!. c #F0FAF9",
/* pixels */
"D W / / / / F F D D D D D D D D D D D D D D D D D D D D D D D D D D D D D D D D D D D D D ",
"F ( [ | | [ ] F D D D D D D D D D D D D D D D D D D D D D D D D D D D D D D D D D D D S D ",
"F ]  .>.>.&.[ F D D D D D D D D D D D D D D D D D A z z A D D D D D D S D D D D D D D D D ",
"W ] >.,.,.>.| F A A A 8 8 b D D D D D D D D D D A < y   n D D D D D D S D D D D D D D D D ",
"W ] &.,.,.>.[ R A D N   T O 0 A D D D D D D D D j 1 N.6 j D D D D D D F F F D D D D D D D ",
"F ) | &.>. .) W D W D = 6.n.u 3 N D D D D D D k # a.K._ 4 D D D D D F W / ( W F D S D D D ",
"D / ) | | [ ) W W / D 4 T K.Z.} o y A D D D N X 3.K.H.8.# D D D D D F ] { { ] F D D D D D ",
"D F ( ) [ [ ) ( ( W W j 2 H.K.K.m.C < V D V * ' G.H.K.m.  N D D D F ( ] &.! i 8 v D D D D ",
"D D / { &. .] W W R D z : S.K.K.K.F.T = N 9 i A.K.K.K.F.u y W W / D C c : i 1.P % A D D D ",
"D D / | &.&.[ W D D D b $ N.K.K.K.K.F.1.    i.K.K.K.K.K.:.= R C y $ x :.d.F.m.  z A D D D ",
"D D S E ! ] ) R A D D N   m.K.K.K.K.K.K.6.r Z.K.K.K.K.K.a.    P 7.B.K.K.K.K.^ 1 A A D D D ",
"D S * & t ; * 3 9 j z y o M.K.K.K.K.K.K.K.F.K.K.K.K.K.K.m.' m.G.K.K.K.K.K.n.X b A D D D D ",
"D D 0 r s.A.M.a.i.3.-.^ 2 n.K.K.K.K.K.K.K.K.K.K.K.K.K.K.K.K.K.K.K.K.K.K.K.T 4 A D A D D D ",
"D D Z j $ <.F.K.K.K.K.K.K.K.K.K.K.K.K.K.K.K.K.K.K.K.K.K.K.K.K.K.K.K.K.K.N.* n D D D D D D ",
"D D D D n % Y C.K.K.K.K.K.K.K.K.K.K.J.n.1.` ` ` 4.n.G.K.K.K.K.K.K.K.K.K.3.* Z D D D D D D ",
"D D D D D Z 3 r n.K.K.K.K.K.K.K.K.B.~ *.k.c.c.c.k.=.~ m.K.G.G.K.K.K.K.N.  # 9 j b N Z D D ",
"D D D D D D D 0 : 9.J.K.K.K.K.K.A.G k.c.v.v.v.v.v.v.l.p T ' 4.K.K.K.K.K.M.b.i.5.Y u # 1 V ",
"D D D D D D N b ,   Q F.K.G.M.n.' y.v.v.v.v.v.v.v.c.o.6.A.K.K.K.K.K.K.K.K.K.K.K.Z.8.1 X n ",
"D m j 0 3 # 2 P } 4.b.G.K.S.q.a.9.T $.z.v.v.x.x.z.y.:.K.K.K.K.K.K.K.K.K.K.G.s.T , < z D D ",
"Z #   Q a.m.D.K.K.K.K.K.K.K.K.K.K.K.s.H u.X.} :.:.P M.K.K.K.K.K.K.K.K.F.a.M $ j V D D D D ",
"D m j # Q m.K.K.K.K.K.K.K.K.K.K.K.K.K.0.T A.K.K.K.K.K.K.K.K.K.K.K.K.K.M.; X b A D D D D D ",
"D D D Z 0 & -.m.G.K.K.K.K.K.K.K.K.K.K.J.G.K.K.K.K.K.K.K.K.K.K.K.K.K.K.K.A.6.r 3 V D D D D ",
"D D D D D N 9 X l 5.A.K.K.K.K.K.K.K.K.K.K.K.K.K.K.K.K.K.K.K.K.K.K.K.K.H.K.H.A.' X j A D D ",
"D D D D D Z 0 X _ q.D.K.K.K.K.K.K.K.K.K.K.K.K.K.K.K.K.K.K.K.K.K.K.K.K.K.H.K.K.D.9.X , Z D ",
"D D D D v * P m.J.K.K.K.K.K.K.K.K.K.K.K.K.K.K.K.K.K.K.K.K.K.K.K.K.K.K.S.Y T T r X * 9 S D ",
"D D Z 7 5 9.G.K.K.K.K.K.K.K.K.K.K.K.K.K.K.K.K.K.K.K.K.K.K.K.K.K.K.K.K.G.Y % n V A D D D D ",
"D D ,   ' 6.6.i.M.F.G.J.K.K.K.K.K.K.K.K.K.K.K.K.K.K.K.K.K.K.K.K.K.K.K.K.s.  N D D D D D S ",
"D D b j y j j 7 o   1 s.K.K.K.K.K.K.K.K.K.K.K.K.K.K.K.K.K.K.K.K.A.G.K.K.F.x 7 A D D D D D ",
"W W ] [ ) W D D S n   n.K.K.K.K.K.K.K.K.K.K.K.K.K.K.H.K.K.J.J.i.; i x T :.R   n D D D D D ",
"W )  .&.{ ( D D D n   B.K.K.K.F.H.K.K.K.J.K.K.K.K.A.J } m.J.K.s.  z n b z 0 j Z D D D D S ",
"W )  .&.{ ( R D D 3 x s.a.5.' ~ 9.K.K.A.^ ` B.K.G.' V.p.H ' M.C.& z D D D D D D D D D D D ",
"D ) { | [ W D R W 6 o * $   L.R.p n.A.K I.Y.L C.3.p.!.h.#.U.r.J o < D D D D D D D D D D D ",
"D W ( ] ] ( W W ( ( Y A = 2.Q.R.p ~ +.I.Q.!.I.#.f.W.W.L.G t...%.U < A D D D D D D D D D D ",
"D F W ] [ [ ) ( ( W D v - U.Q.P.*.E.!.!.!.!.!.!.W.!.!.Y.1 e.z.v.o.< D D F F F F D D D D D ",
"D D / ] &.&.[ W F D D < #.W.!.h.h.Q.Q.Q.!.!.!.!.!.!.!.!.L   %.e.. v D D F ( ( / F F D D D ",
"D D / { &.&.] W S S V   j.E.Q.#.L.!.!.Q.!.!.!.!.!.!.!.!.t.  , < v D D D ( { -.| ) F F / F ",
"D D F ] [ [ ) F Z D V X w X...e &.h.g.f.f.V.I.T.W.W.!.!.V.  V D D D D W )  .>. .] F ] ] ] ",
"D D F F / / F D D D S & U l.v.%.  + d s a       f 2.f.P.I.- b D D D D D ( | | | ] ] | -.| ",
"D D D D D D D D D D S 8 X O.=.- 5   O.w...  X + g h d @ -   b D D D D D / ) ] ] ( ]  .>.| ",
"D D D D D D D D D D D S b 4 t E B   > > ;   *   g h h . 9 V A D D D D D D / ( ( / ( [ { ] ",
"D D D D D D D D D D D D D / ]  .! O - q > X y   I @.I   b D D D D D D D D F ( ( W E ( ( W ",
"D D D D D D D D D D D D D D / ] ] Y 0 % & v j   G I G   z D D D D D D D D F / / W D D D D ",
"D D D D D D D D D D D D D D F F W W D A D D n   2 q =   m D D D D D D D D F F F D D D D D ",
"D D D D D D D D D D D D D D D D D D D D D D D 0   X 7 N D D D D D D D D D D D D D D D D D ",
"D D D D D D D D D D D D D D D D D D D D D D D D A A D D D D D D D D D D D D D D D D D D D "
};
