/* XPM */
static char *b7bc1154a1324184980a38ca0020fe7b6hRlRz5cYjXvSrPj[] = {
/* columns rows colors chars-per-pixel */
"45 45 210 2 ",
"   c #361E35",
".  c #3F2240",
"X  c #462B49",
"o  c #4E2B4B",
"O  c #522F4D",
"+  c #582D4F",
"@  c #49364B",
"#  c #4B2A51",
"$  c #582C54",
"%  c #533553",
"&  c #5B3456",
"*  c #583957",
"=  c #5B3A5B",
"-  c #62355B",
";  c #623D5E",
":  c #5D3C62",
">  c #673A66",
",  c #6C3C6C",
"<  c #753A6C",
"1  c #6C3873",
"2  c #793B77",
"3  c #39414F",
"4  c #394856",
"5  c #3B5665",
"6  c #3A5866",
"7  c #3A5B6A",
"8  c #3E606C",
"9  c #4B4657",
"0  c #594758",
"q  c #57515A",
"w  c #654359",
"e  c #62425D",
"r  c #754F5E",
"t  c #64545E",
"y  c #5F4B67",
"u  c #435765",
"i  c #4A5666",
"p  c #435966",
"a  c #4F566C",
"s  c #435C6B",
"d  c #4D5C6A",
"f  c #565568",
"g  c #545B6B",
"h  c #644462",
"j  c #674767",
"k  c #6A446A",
"l  c #6C4A6C",
"z  c #724264",
"x  c #74436D",
"c  c #7A4B6D",
"v  c #665162",
"b  c #6A5769",
"n  c #73536B",
"m  c #7B566B",
"M  c #6A4A71",
"N  c #774F74",
"B  c #7E4D71",
"V  c #7B457A",
"C  c #7C4978",
"Z  c #695778",
"A  c #795675",
"S  c #755A73",
"D  c #7C547C",
"F  c #7D5B7B",
"G  c #42636E",
"H  c #4B646F",
"J  c #52616F",
"K  c #456670",
"L  c #4B6370",
"P  c #466971",
"I  c #4A6C73",
"U  c #596876",
"Y  c #4E7175",
"T  c #507476",
"R  c #527678",
"E  c #547A7A",
"W  c #587E7D",
"Q  c #7A686C",
"!  c #636B78",
"~  c #78697A",
"^  c #727B7E",
"/  c #813E76",
"(  c #834D6B",
")  c #814C74",
"_  c #844579",
"`  c #834C7D",
"'  c #845376",
"]  c #855B74",
"[  c #895976",
"{  c #855379",
"}  c #85587A",
"|  c #8B587A",
" . c #8A5B7A",
".. c #856378",
"X. c #8B637D",
"o. c #92667E",
"O. c #8C757D",
"+. c #A07B7F",
"@. c #5A817E",
"#. c #938B7B",
"$. c #7F3D93",
"%. c #7D4B83",
"&. c #7B5B86",
"*. c #7A6988",
"=. c #6C7683",
"-. c #7A7687",
";. c #894C85",
":. c #8C4D89",
">. c #8C5C82",
",. c #875589",
"<. c #8E5B8B",
"1. c #925C85",
"2. c #93598A",
"3. c #884598",
"4. c #864C9B",
"5. c #984B94",
"6. c #8C5995",
"7. c #8B549C",
"8. c #955E93",
"9. c #9A579A",
"0. c #925B9D",
"q. c #8D6483",
"w. c #896788",
"e. c #936383",
"r. c #946C83",
"t. c #9A6B84",
"y. c #97638C",
"u. c #976B8A",
"i. c #9A6D8C",
"p. c #897788",
"a. c #9A7185",
"s. c #987689",
"d. c #9D748B",
"f. c #8B6596",
"g. c #8C6A92",
"h. c #936394",
"j. c #9B6492",
"k. c #986997",
"l. c #9B6D9C",
"z. c #887295",
"x. c #9C7A96",
"c. c #997598",
"v. c #A1758D",
"b. c #A27C8E",
"n. c #A26696",
"m. c #A57C93",
"M. c #A67599",
"N. c #A67B9B",
"B. c #8F4BA2",
"V. c #8E5DA0",
"C. c #975BA5",
"Z. c #A55AA7",
"A. c #A15AB1",
"S. c #9363A2",
"D. c #9869A6",
"F. c #9B72A3",
"G. c #9D76A8",
"H. c #A36CA7",
"J. c #A375A3",
"K. c #A77AA6",
"L. c #A575AC",
"P. c #A974AC",
"I. c #A364B3",
"U. c #AA78B5",
"Y. c #B37DBE",
"T. c #5E8581",
"R. c #638C85",
"E. c #8A8682",
"W. c #989288",
"Q. c #8C8592",
"!. c #9E8697",
"~. c #A4838C",
"^. c #A5968C",
"/. c #A58396",
"(. c #AA8395",
"). c #AA839C",
"_. c #A78899",
"`. c #B38A9D",
"'. c #A69497",
"]. c #AFA499",
"[. c #A886A3",
"{. c #AC84A6",
"}. c #AE85A8",
"|. c #B68CA4",
" X c #B589A8",
".X c #AC92A5",
"XX c #AE93A8",
"oX c #B795A8",
"OX c #AD83B5",
"+X c #B384B2",
"@X c #B48AB3",
"#X c #B688BC",
"$X c #B98CBD",
"%X c #B592B3",
"&X c #B898B9",
"*X c #B7A2AC",
"=X c #BBA5B0",
"-X c #C198AD",
";X c #C69DB3",
":X c #C7A5B7",
">X c #B683C1",
",X c #BB8AC2",
"<X c #BF93C3",
"1X c #B99EC3",
"2X c #BEA1C4",
"3X c #C394C1",
"4X c #C4A6C4",
"5X c #D6ADD2",
"6X c #ECB4ED",
"7X c #E6CFD7",
/* pixels */
"7 G K K K K 8 8 7 7 7 7 7 7 7 7 7 7 7 7 7 7 7 7 7 7 7 7 7 7 7 7 7 7 7 7 7 7 7 7 7 7 7 7 7 ",
"8 P T E E T Y 8 7 7 7 7 7 7 7 7 7 7 7 7 7 7 7 7 p s 7 7 7 7 7 7 7 7 7 7 7 7 7 7 7 7 7 7 7 ",
"8 Y W T.T.@.T 8 7 7 7 7 7 7 7 7 7 7 7 7 7 7 6 i q t i 7 7 7 7 7 7 7 7 7 7 7 7 7 7 7 7 7 7 ",
"G Y T.R.R.T.R G 5 7 7 7 7 7 7 7 7 7 7 7 7 7 5 9 t t t f 7 7 7 7 7 7 7 7 7 7 7 7 7 7 7 7 7 ",
"8 Y @.R.R.T.T s 6 7 7 7 7 7 7 7 7 7 7 7 7 a $.6.6.f.&.b v 7 7 7 7 7 7 8 8 8 8 8 7 7 7 7 7 ",
"8 I W @.T.W I G 7 8 7 7 7 7 7 7 7 7 7 7 s B.A.U.U.Y.U.f.S S d 7 7 7 8 8 P 8 8 8 7 7 7 7 7 ",
"8 K Y T E T I G P K 7 6 5 7 7 7 7 7 7 s B.A.I.Y.Y.Y.>XOXg.S S g 8 7 8 P @.R Y 8 7 7 7 7 7 ",
"7 8 G Y T T I P P 8 7 5 7 7 7 7 7 7 7 V.A.A.U.Y.Y.>X>X,XOX<.A l 7 8 P R @.@.R 8 6 7 7 7 7 ",
"7 8 G Y W W Y G G G 7 6 7 7 7 7 7 7 =.4.B.D.#X>X,X,X,X#XU.8.D : i G P R =.=.R 8 6 6 7 7 7 ",
"7 7 K E @.@.Y G 7 7 7 7 7 7 7 7 7 6 z.4.4.4.>X,X<X<X<X#X+Xg.V % : Y P I @.8 I 8 6 6 7 7 7 ",
"7 7 G Y W E I 8 5 7 7 7 7 7 7 7 7 7 z.S.7.7.U.,X,X$X&X$X{.<.N # , R K K 8 Y 8 8 6 7 7 7 7 ",
"7 7 8 K I I G 7 6 7 7 7 7 7 7 7 7 7 F.D.D.V.V.,X$X<X3X<XOXw.M @ , R H 7 8 8 8 8 7 7 7 7 7 ",
"7 7 7 7 8 8 7 7 7 7 7 7 7 7 7 7 7 7 l.S.G.f.V.D.L.U.OX#XL.,.: = %.d s 7 8 8 7 7 5 7 7 7 7 ",
"7 7 7 7 7 7 7 7 7 7 7 7 7 7 7 7 7 7 c.G.x.D.C.C.S.C.G.L.G.1 1 M V s 7 7 8 8 7 7 7 7 7 7 7 ",
"7 7 7 7 7 7 7 7 7 7 7 7 7 7 7 7 7 H h.k.l.f.3.V.7.V.D.L.D.> : M 1 u 7 7 8 7 7 7 7 7 7 7 7 ",
"7 7 7 7 7 7 7 7 7 7 7 7 7 7 7 7 7 U l.H.P.7.%.3.7.V.V.S.6.# * * = 7 7 7 7 7 7 7 7 7 7 7 7 ",
"7 7 7 7 7 7 7 7 7 7 7 7 7 7 7 7 7 =.h.j.3X:.Z.2 ;.Z.6.V & X * h * 6 7 7 7 7 7 7 7 7 7 7 7 ",
"7 7 7 7 7 7 7 7 7 7 7 7 7 7 7 7 7 U :.Z.H./ Z.2 %.0.9.V   o * h $ i 7 7 7 7 7 7 7 7 7 7 7 ",
"7 7 7 7 7 7 7 7 7 7 7 5 -.u 7 7 7 U :.5.9./ 9.2 3.6.8.O & o = j = d 7 7 7 7 7 7 7 7 7 7 7 ",
"7 7 7 7 7 7 7 7 7 7 7 4 %X5XF &.Z a ;.;.:._ :.;.,.8.2.O > . h M : i 7 7 7 7 7 7 7 7 7 7 7 ",
"7 7 7 7 7 7 7 7 7 7 7 3 /.5X5Xi.C.P.V V 1.x h.C ;.D e - o j h j h d 7 7 7 7 7 7 7 7 7 7 7 ",
"7 7 7 7 7 7 5 6 7 7 7 9 ~ %X4X:X}.Y.c.; ` B j.,., D o - & O * > 0 i 7 7 7 7 7 7 7 7 7 7 7 ",
"7 6 5 . . % . j Z 7 7 7 y c.:X:XG.OX&X' e.c } q.- N r.; -   * j h u 7 7 7 7 7 7 7 7 7 7 7 ",
"7 6 ! U G.c.S D F.f.U 7 g Z G.D.D.h.+X}.' x {  .> ] r.c + X e h 0 p 7 7 7 7 7 7 7 7 7 7 7 ",
"7 8 v w.%Xx.XXx.g.J.@Xw.7 f w.,.F.,.8. Xq...e.m z o.u.] + O c 0 * J 7 7 7 7 7 7 7 7 7 7 7 ",
"7 6 9 $X[.k.&X4X2XL.+X@XM.Z b B ,.h.D i.i./.X.A m (._.' - o k k @ u 6 7 7 7 7 7 7 7 7 7 7 ",
"8 7 g > F [.%X5X4X1X#XJ.J.M.<.( > >.k  .u.b.q.( r.s.s.r.{ & n h * p 6 6 7 7 7 7 7 7 7 7 7 ",
"7 8 L x O ..%X4X&X3X&X$Xc.` ;.` B ) B -  .s.s.X.`._.x.} { & m w 0 u 6 7 7 7 7 7 7 7 7 7 7 ",
"8 G Y g - X q.}.$X&X&X@X@X).e.1. .( o.< z o.r.s.(.s.(.o.) z m m t d 6 7 7 7 7 7 7 7 7 7 7 ",
"G I @.@.q $ % j c.%X$XK.N.N.{.m.1.e.o.d.) ' s.u.s.b.s...z c ..b t ^ 6 7 7 7 7 7 7 7 7 7 7 ",
"8 Y @.@.E f % X 0 A j.j.d.K.}.|.N.i.[ a.v.e.d.t.~.m.d.r.( [ ..Q w.p.! ~ -.-.-.z.U 6 7 7 7 ",
"8 P Y E Y G 5 9 % % w >.M.N.M.v.m.).N.).|.;X:XoXoX|.).b.q.] n e N e h * % = k j 0.z.7 7 7 ",
"7 G P Y Y K G K i & k >  .v.i.n.n. X-X;X-X;X-X-X:X:X|.`.(.~.(.`.c.1.n.h.f.f.S.<.j.<.A 5 7 ",
"7 8 G Y R T I P G G v ) ` ' 1.P.M.N.}.-X X-X;X;X:X-X`.~.b.a...o._.t.[.L.U.U.D.k.N.k.y 7 7 ",
"7 7 G Y @.@.Y G G 8 6 i z x ) |.1.2.| | 2.v.m.|.`.`.(.v.] m O.a.!.).!.!.G.z.g.L.K.H.i 7 7 ",
"7 7 G E @.@.Y G 6 6 6 6 p F < < < 2.j.x.d.d.i.v.v.m.b.+...../.p...b * &.S M D 6X6X=.G G 8 ",
"7 7 8 Y R T P 8 5 7 7 7 d k - $ < V _ '  .o.t.v.m.m.m.~.`.oX7X*Xq.S M w.*.*.*.1XR.8 I I I ",
"7 7 8 8 K P 8 7 6 7 7 g x 1 , ;.8.<.s.q.o.t.m.b.b.v.+.#.#...#.].].U 7 7 K E @.R Y P @.@.R ",
"7 7 7 7 7 8 7 7 7 7 7 F < _ ;.j.j.j._..Xa.o.(.b.v.+.~.W.^.#.W.^.^ 7 7 7 s Y R Y P Y =.T.E ",
"7 7 7 7 7 7 7 7 7 7 7 Q.}.| | y.n.J.)._.s.o.r.a.b.(.^.s.^.^.W.W.7 7 7 7 8 8 P P G P T R T ",
"7 7 7 7 7 7 7 7 7 7 7 7 Q.XX<.2.j.e.i.i.o.m.XX=X*X/.O.r b O.E.7 7 7 7 7 7 G K I G H G P G ",
"7 7 7 7 7 7 7 7 7 7 7 7 7 =..X` / e.x.XX*XXX'.!.O.^.Q w r O.7 7 7 7 7 7 7 8 K K G 7 7 7 7 ",
"7 7 7 7 7 7 7 7 7 7 7 7 7 8 H p.u.Q.R.U L g 9 i H U u 9 b U 7 7 7 7 7 7 7 7 8 8 7 7 7 7 7 ",
"7 7 7 7 7 7 7 7 7 7 7 7 7 7 7 7 7 s s 7 7 7 6 7 8 6 8 6 6 8 7 7 7 7 7 7 7 7 7 7 7 7 7 7 7 ",
"U 7 7 7 7 7 7 7 7 7 7 7 7 7 7 7 7 7 7 7 7 7 7 7 7 7 7 7 7 7 7 7 7 7 7 7 7 7 7 7 7 7 7 7 7 "
};
