/* XPM */
static char *_c8f6bae14c44b8aaf3718492e75a366pguh4TLAzu1o6235[] = {
/* columns rows colors chars-per-pixel */
"45 45 161 2 ",
"   c #3A5767",
".  c #3A5B6A",
"X  c #3D6367",
"o  c #3E6A67",
"O  c #3E616A",
"+  c #417D5E",
"@  c #415F6B",
"#  c #416767",
"$  c #436E65",
"%  c #42636E",
"&  c #47696C",
"*  c #4B7366",
"=  c #457E61",
"-  c #4C7A63",
";  c #507766",
":  c #446670",
">  c #466971",
",  c #4A6C73",
"<  c #4E7276",
"1  c #507477",
"2  c #517678",
"3  c #557A7A",
"4  c #587E7D",
"5  c #1E8F0E",
"6  c #1D920E",
"7  c #30970F",
"8  c #379E11",
"9  c #26A410",
"0  c #2BA410",
"q  c #38A716",
"w  c #3CA414",
"e  c #3EAA1B",
"r  c #3DB217",
"t  c #3BB911",
"y  c #3BB31B",
"u  c #3CA723",
"i  c #3DAB29",
"p  c #44A513",
"a  c #44AC14",
"s  c #4DAE17",
"d  c #42AC1D",
"f  c #48AE1E",
"g  c #52AA15",
"h  c #43B114",
"j  c #4BB513",
"k  c #47B913",
"l  c #4DBB14",
"z  c #43B21B",
"x  c #4BB51C",
"c  c #4DBC1D",
"v  c #53B614",
"b  c #55B815",
"n  c #5DBB17",
"m  c #56B81F",
"M  c #61BA17",
"N  c #60B51A",
"B  c #46A724",
"V  c #42AA24",
"C  c #47A829",
"Z  c #51AA22",
"A  c #4BBB25",
"S  c #4EB129",
"D  c #4DBC2D",
"F  c #59B629",
"G  c #4CA63D",
"H  c #49AD38",
"J  c #51BD32",
"K  c #6ABB2F",
"L  c #61B738",
"P  c #6CBD3C",
"I  c #4BC617",
"U  c #54C217",
"Y  c #5AC31B",
"T  c #66C115",
"R  c #41C327",
"E  c #48C328",
"W  c #51C120",
"Q  c #5FC721",
"!  c #59C42C",
"~  c #48C330",
"^  c #58C835",
"/  c #67C523",
"(  c #67C428",
")  c #6CCA2A",
"_  c #6EC735",
"`  c #6CC439",
"'  c #66C93F",
"]  c #70CB36",
"[  c #74C53A",
"{  c #79C13F",
"}  c #7ACC3D",
"|  c #7BD237",
" . c #428F59",
".. c #4E8F59",
"X. c #5A895F",
"o. c #4A9A58",
"O. c #539D56",
"+. c #54975B",
"@. c #619C55",
"#. c #4CAC44",
"$. c #53AA44",
"%. c #5AB244",
"&. c #49A450",
"*. c #5FA659",
"=. c #56B354",
"-. c #65B445",
";. c #6AB947",
":. c #6DBC4D",
">. c #7BBB45",
",. c #7DBD4C",
"<. c #60A954",
"1. c #69AC55",
"2. c #66A25B",
"3. c #6BB157",
"4. c #6ABB57",
"5. c #72BC50",
"6. c #7BB558",
"7. c #4A8463",
"8. c #558362",
"9. c #598563",
"0. c #5D9463",
"q. c #5A817E",
"w. c #62A761",
"e. c #5CC342",
"r. c #65C84E",
"t. c #70C542",
"y. c #7DC046",
"u. c #73CA4E",
"i. c #7AC849",
"p. c #74D144",
"a. c #71D14B",
"s. c #64C953",
"d. c #70C557",
"f. c #7BC758",
"g. c #6CC360",
"h. c #70C566",
"j. c #88D22A",
"k. c #92CE3E",
"l. c #94D334",
"z. c #84AC72",
"x. c #81C54B",
"c. c #83CE4A",
"v. c #8FCD48",
"b. c #8DD44C",
"n. c #94D341",
"m. c #83C55B",
"M. c #82C859",
"N. c #91C95D",
"B. c #8AD356",
"V. c #91D755",
"C. c #97CE62",
"Z. c #8FD06E",
"A. c #93D969",
"S. c #A3CF7A",
"D. c #5D8481",
"F. c #5F8883",
"G. c #638C85",
"H. c #A5DD87",
"J. c #A9CD95",
"K. c #A9DA99",
"L. c #ACC4A0",
/* pixels */
". % : : : : O . . . . . . . . . . . . . . = + X . . . . . . . . . . . . . . . . . . . . . ",
"O > 2 2 3 2 , : . . . . . . . .   . .   o %.%.o . . . . . . . . . . . . . . . . . . . . . ",
"O , D.D.F.q.2 % . . . . . . . . . . . . - B.] ... . . . . . . . . . . . . . . . . . . . . ",
": < D.G.G.D.1 %     . . . . . . . . . . +.H.p.1.. . . . . . . . . . . . . . . . . . . .   ",
"% , 4 G.G.D.1 @ . . . . . . . . . . . . &.A.a.f.X . . . . .   . . . . . % . . . . . . . . ",
"% , 3 G.D.4 , @ . O . . . . . . . . . . &.p.p.} o . . . .   . . . . : : : : : . . . . . . ",
". : , 1 3 1 , : : : .     . . . . . . O =.! ! | +.. . . . . . . . . . < 4 2 , : . . . . . ",
". @ : < 1 1 , > > : .   . . . . . . . O h.W z c.2.O . . . . . . . . : 2 q.q.2 : . . . . . ",
". . : 2 4 4 , > % @ @     . . . . . . 7.s.y p x.<.. . . . . O > : % : 2 4 4 , .   . . . . ",
". . : 2 q.D.1 % . . . . . . . . . . .  .~ e g K 6.O . . . O > 2 2 < : < < 2 < O     . . . ",
". . % < 3 3 , %     . . . . . . . . . o.E b T N ,.. . . . : < D.q.2 : : : : : .   . . . . ",
". . . : , , % . . . . . . . . . . . . w.R a U b { O . . . O < 4 D.3 O . % : : .     . . . ",
". . . . % . . . . . . . . . . . . . . 1.R a I l [ O . . . O , 2 2 > . . % : . .   . . . . ",
". . . . . . . . . . . . . . . . . . . 5.I a k b [ . . . . . O : : % % . . % . .   . . . . ",
". . . . . . . . . . . . . .     . . O ;.I p v M _ O . . . . . . . . . . . . . . . . . . . ",
". . . . . . . . . . . . . . . . . . O :.W 8 p n ) o . . . . . . . . . . . . . . . . . . . ",
". . . . . . . . . . . . . . . . . . . 4.e.w 7 n / # . . . . . . . . . . . . . . . . . . . ",
". . . .   . . . . . . . . . .   . . . u.r.q 5 v ( # . . . . . . . . . . . . . . . . . . . ",
". . . . . . . . . .   . . . . . . . X :.e.0 6 j ` $ . . . . . . . . . . . . . . . .   . . ",
". . . . . . . . . . . . . . . . . . . f.A 9 9 h t.* . .   . . . . . . . .   . . . .   . . ",
". . . . . . . . . . . . . . . . . . O M.y q 9 r t.- . . . . . . . . .   . . . . . . . . . ",
". . . . . . . . . . . . . . . . . . O c.a t 0 h [ 9.. . . . . . . . . . . . . . . . . . . ",
". . . . . . . . . . . . . . . . . . O l.s j a m ) 9.. . . . . . . . . . . . . . . . . . . ",
". . . . . .   . . . . . . . . . . . X n.Z l Y ` ] 9.. . . . . . . . . . . . . . . . . . . ",
". . . . . . . . . . . . . . . . . . O n.B I c f.j.X.. : : > > O % . . . . . . . . . . . . ",
". . . . . . . . . . . . . . . . . . O v.q t y u.l.X.O < 2 3 3 2 : % . . . . . . . . . . . ",
". . . . . . . . . . . . . . . . . . O C.C r D u.k.X.% 2 D.F.F.D.> .   . . . . . . . . . . ",
". . . O O . . . . . . . . . . . . . . S.#.k ' L } 8.> 3 F.F.F.D.>     . . . . . . . . . . ",
"O O < < < O . . . . . . . . . . . . X N.#.j ) f c.9.: 3 F.F.G.q.,       . .   . . . . . . ",
"O , 4 q.3 > . . . . . . . . . . . . . x.C h } w b.; : 2 4 D.D.2 %     . . . . . . . . . . ",
"O 2 4 D.4 > . . . . . . . . . . . . X >.$.d Z.V V.& O > , < < > . .   . . . . . . . . . . ",
". , 2 3 < > . O % % .     . . . . . X y.V x d.z i.o . O O : O O .   . . . . . . . . . . . ",
". : : < < : O : > : @     . . . . . . 6.p Y D y ` O . . . . . . . . . . . . . . . . . . . ",
". : O < 3 2 < : : : @ . . . . . . . O Z.S Q x a -.. . . . . . . . . .   . . O O . . . . . ",
". . : 2 4 4 2 : . . . . . . . . . . . 6.F ! Z V 3.O . . . . . . . . . . O , , > : . . . . ",
". . : 2 4 4 2 O . . . . . . . . . . . =.u.S e u *.. . . . . . . . . . . > 2 4 < < O : : O ",
". . % , 2 2 < . . . . . . . . . O . O 0.c.i V u O.. . . . . . . . . . O , 3 D.4 < : , < , ",
". . . % : : . . . . . . . . : > > & O 7.B.H i S ... . . . . . . . . . O , 2 4 3 < < 4 4 3 ",
". . . . . . . . . . . . . O , 2 3 < % o p.4.#.L = . . . . . . . . . . . O < < , : , 4 q.3 ",
". . . . . . . . . . . . . : < q.q.2 % O ^ g.G P $ . . . . . . . . . . . O O , , : , 2 3 , ",
". . . . . . . . . . . . . O < 4 4 1 @ . J s.d.m.. . . . . . . . . . . . . % : , % @ : : : ",
". . . . . . . . . . . . . . : < 1 , @ . %.s.K.J..   . . . . . . . . . . . . : : @ . . . . ",
". . . . . . . . . . . . . . . : : . . . @.^ H.L.. . . . . . . . . . . . . . . % @ . . . . ",
". . . . . . . . . . . . . . . . . . . . - _ V.z.. . . . . . . . . . . . . . . . . . . . . ",
". . . . . . . . . . . . . . . . . . . . @ ,.v.0.. . . . . . . . . . . . . . . . . . . . . "
};
