/* XPM */
static char *result[] = {
/* columns rows colors chars-per-pixel */
"45 45 223 2 ",
"   c #3A745E",
".  c #3A5A67",
"X  c #3A5B6A",
"o  c #3A6265",
"O  c #3A6A61",
"+  c #3F606C",
"@  c #425F6A",
"#  c #42646E",
"$  c #456968",
"%  c #4B7462",
"&  c #4D7269",
"*  c #446670",
"=  c #466971",
"-  c #4A6D73",
";  c #4E7275",
":  c #507476",
">  c #517678",
",  c #557A7A",
"<  c #587E7D",
"1  c #0E870C",
"2  c #0E890C",
"3  c #128C0D",
"4  c #12940C",
"5  c #1C930E",
"6  c #139C0C",
"7  c #1C9D0E",
"8  c #198C13",
"9  c #1D9411",
"0  c #189E11",
"q  c #228E0E",
"w  c #279A0E",
"e  c #2C8F13",
"r  c #259410",
"t  c #249C11",
"y  c #2A9815",
"u  c #349912",
"i  c #13A40D",
"p  c #15AC0D",
"a  c #1FA80F",
"s  c #15B20E",
"d  c #16BB0D",
"f  c #1BB80E",
"g  c #1AA811",
"h  c #18B810",
"j  c #27A10E",
"k  c #25B70E",
"l  c #2BA312",
"z  c #24AD11",
"x  c #2CAC12",
"c  c #28A01F",
"v  c #3CA415",
"b  c #32AC13",
"n  c #37A816",
"m  c #25B612",
"M  c #2EB212",
"N  c #33B213",
"B  c #39B515",
"V  c #37BB16",
"C  c #3CBC14",
"Z  c #3E9535",
"A  c #38B127",
"S  c #39AF35",
"D  c #43A514",
"F  c #4BA313",
"G  c #47AB17",
"H  c #54A917",
"J  c #49B817",
"K  c #4BBD16",
"L  c #57B817",
"P  c #54B51B",
"I  c #67B717",
"U  c #6EB715",
"Y  c #4ABB2F",
"T  c #51BD2D",
"R  c #43A93E",
"E  c #57BA37",
"W  c #66BB3A",
"Q  c #74BB3C",
"!  c #17C10C",
"~  c #19C10D",
"^  c #1CC210",
"/  c #24C20E",
"(  c #2AC30E",
")  c #33C50F",
"_  c #2DC311",
"`  c #28C21B",
"'  c #34C413",
"]  c #3CC513",
"[  c #3DC71A",
"{  c #3BC625",
"}  c #3EC338",
"|  c #43C415",
" . c #49C416",
".. c #45C815",
"X. c #4BCA16",
"o. c #47C618",
"O. c #49CA1A",
"+. c #56C317",
"@. c #53CB15",
"#. c #5CCE15",
"$. c #55CB1A",
"%. c #5CCD1B",
"&. c #67C71A",
"*. c #63CE1A",
"=. c #7BCC19",
"-. c #6BD115",
";. c #64D01C",
":. c #6BD11C",
">. c #73D31D",
",. c #7AD71A",
"<. c #7DD61C",
"1. c #4BC529",
"2. c #5AC528",
"3. c #5BCC34",
"4. c #64CC2B",
"5. c #72CD26",
"6. c #6ED223",
"7. c #75D321",
"8. c #7ED721",
"9. c #7AD429",
"0. c #7BC638",
"q. c #6FD133",
"w. c #3D984A",
"e. c #3D8C53",
"r. c #489B46",
"t. c #569F4B",
"y. c #4B8A59",
"u. c #4F8C59",
"i. c #5E9259",
"p. c #60895E",
"a. c #679759",
"s. c #49A644",
"d. c #56AB44",
"f. c #58B343",
"g. c #5CA251",
"h. c #6DAD4B",
"j. c #68A656",
"k. c #74A758",
"l. c #75B65A",
"z. c #5A817E",
"x. c #669364",
"c. c #7BAD78",
"v. c #4BC742",
"b. c #58C94D",
"n. c #6AC749",
"m. c #7CC844",
"M. c #72CA54",
"N. c #75D158",
"B. c #79CB66",
"V. c #72C869",
"C. c #79D162",
"Z. c #88CA18",
"A. c #87D919",
"S. c #8CDC1C",
"D. c #97D919",
"F. c #9CE216",
"G. c #97E118",
"H. c #ADE90F",
"J. c #A8E615",
"K. c #ACE912",
"L. c #88CA22",
"P. c #83D622",
"I. c #82D823",
"U. c #8ADA23",
"Y. c #88D729",
"T. c #9ADC27",
"R. c #83C935",
"E. c #94CB3C",
"W. c #8CDB35",
"Q. c #85D838",
"!. c #97D835",
"~. c #A1DB29",
"^. c #9FE133",
"/. c #AFE630",
"(. c #CBE72A",
"). c #85B94B",
"_. c #82B753",
"`. c #89B377",
"'. c #8FC542",
"]. c #87D84B",
"[. c #8DDA4A",
"{. c #93D949",
"}. c #8ACC55",
"|. c #8AD755",
" X c #98DC57",
".X c #A3DD55",
"XX c #9DE054",
"oX c #A3E24B",
"OX c #AFE752",
"+X c #B8E656",
"@X c #8DCA6D",
"#X c #83D468",
"$X c #99DC69",
"%X c #89D577",
"&X c #93D679",
"*X c #A9CD75",
"=X c #A7DF74",
"-X c #A2E067",
";X c #B8E96C",
":X c #ADE27B",
">X c #B6E37C",
",X c #CBEA7A",
"<X c #5E8581",
"1X c #638C85",
"2X c #93C58B",
"3X c #9AD98A",
"4X c #A7DE88",
"5X c #A3DB98",
"6X c #ADE18F",
"7X c #B5E488",
"8X c #B3E1A5",
"9X c #C7E78A",
"0X c #CBEC98",
"qX c #CCEBA5",
"wX c #D4EEAE",
"eX c #C9E8B7",
"rX c #E0F2A9",
"tX c #D7EDC5",
"yX c #DBEDD1",
"uX c #EDF5CF",
"iX c #E9F4D5",
"pX c #F2F6E8",
"aX c #F4F6EE",
/* pixels */
"X # * * * * + + X X X X X X X X X X X X O     o . . X X . X X X X X X X X X X X X X X X X ",
"+ = ; , , > ; + X X X X . X X X X . e.R 2.4.%.%.1.Y w.O o X X X X X X X X X X X X X X X X ",
"+ ; < <X<Xz.; * X X X X X X X X X s.6.9. X[.8.<.:.[.7.6.h.. X X X X X X X X X X X X X X X ",
"# ; <X1X1X<X> + . . X X . X X X w.=XP.[.qXpX|.#.#X] 4.9.8.j.X X X X X X X X X X X X X X X ",
"# : z.1X1X<X: @ X X X X X X X O 2.;.7.8.].8X4XX.3.O.C.&XW.S.a.o . X X X + X X X X X X X X ",
"+ - , z.<X< - # @ X X X X X X R v.1.] #.-.A.>X:X:...X.X. XS.8.f.$ X X * = = * X X X . X X ",
"X * - , , : - * * * X . . X w.' ! B./ 7.;...3.| :.X._ @.[.T.8.;.3.@ # - , , - # X X X X X ",
"X + * - : : - = * * X . . w.1.yX3X~ _ X.#.&.P J K 4 4 ' :..X7X%. Xk.* : <X< : # . . X X X ",
"X X * > < , ; * # @ X X e.N.3.8X` k ] ) x 3 3 D H q 2 4 s eX/.-.%.0.= > < < ; # X X X X X ",
"X X * > <Xz.: # X X X o 1.O.| ! ~ K J d 3 1 F e Z.P 2 2 2  .S.!.>XA.a.; ; ; - X . X X X X ",
"X X # ; , , - # . X X e.O.O._ ` B.n | d 3 Z.J.=.A.A.m 4 2 3 D.I.~.S.).# = - + X . . X X X ",
"X X X * - - # X . X X T 6X../ ~ n.) d i F H v  .| o. .| i i U ~.-.F.Y.$ * - = X . . X X X ",
"X X X + + X X X X . O >.|. .O._ O./ i e F v O.;.O.X.X. .f s r U.>.D.P.a.+ * X X . X X X X ",
"X X X X X X X X X X R.9X<.| :.#./ ! L D P G l w b o.X.&.>.K q 5.| A.I.l.+ X X X . X X X X ",
"X X X X X X X X X X 5.Y.*...#.@.~ ~ U H r 2 6 3 D.,.X.r T.#.U D ( S.Q.}.X X X X X X . X X ",
"X X X X X X X X X % =XT.) ' @.#.~ | L 3 1 2 2 2 e I -.b L +.Z.w ' :.U.Q.X X X X X X X X X ",
"X X X X X X X X o % >.P.{ eXA ( ~ L n 3 b J 2 2 2 2 D J l :.Z.P f *.A.P.X X X X X X X X X ",
"X X X X X X X X X i.:.8. .eX#X~ f &.H 6 O.7 2 2 2 2 1 K 5 U.I z i *.A.P.o X X X . X X X X ",
"X X . X X X X X X % *.<.*.@X$Xf  .n 4 h L 2 2 2 2 2 2 6.n &.g s p -.7.-X% X X X X X X X X ",
"X X X X X X X X X u.:.7X&X( @.d P N h ^ u 2 3 2 l o.m L N J z p s $.6.>Xa.X X X X X X X X ",
"X X X X X X X X X k.>.4X-X| k p 3 N ~ f P e 9 3 g m V z  .D b p i *XW.U.j.X X X X X X X . ",
"X X X X X X X X X h.:.:.;X&.+.4 3 g ~ @.r U 3 m 3 4 6 g *.P n p s R.[.XXl.X X X X X X X X ",
"X X X X X X X X X Q >.K.K.S.I 2 3 B ~ &.1 U t $.F 5 0 y A.&.J 6 d <.:.!._.. X X X X X X . ",
"X X X X X X X X X W F.K.;X.Xe 2 9 L ! +.1 Z.C *.=.x 6.u +XQ.J m M ,.#XU.h.X X X X X X X X ",
". X X X X X X X X d.F.K./.@X3 2 l  .! N 5 A.@.] i v %.W qX%X$.+.L >.D.(.R.X X X X X X X X ",
"X X X X X X X X X d.=XK.H.F 1 2 w d ! M 3 ..K ) 6 g 7 4.qX1.@.$.%.>.+X(.0.X X X X X X X X ",
"X X X + X X X X . s.:.H.0Xl.y 2 4 ! ~ z 3 #.K x ] l 1.7Xn.k &.j f U./.,X0.X X X X X X X X ",
"X X + + + + X X . a.,.+XuXyX8 2 4 ! ! z 2 Z.) | o.X.6X}.s s &.2 ' $X9.W.4.X X X . X X X X ",
"X * - ; - + + + X p.,.J.OX2Xj.3 2 s d C 3 U A.A.-.-.@. .6 n D t ,.%.9XoX).X X . X X X X X ",
"* ; , <X, = X X X % <.oX^. .1 1 5 a p ] l q F.A.#.S.D 3 1 P 2 J <..X9XI.i.X X X X . X X X ",
"+ ; < <X, * X X X o >.J.G.@Xj.`.3 M 6 @.C 2 D 7XuX6X| 9 P n 4 X.9.rXQ.A.+ X X X X X X X X ",
"+ = > , ; * X X * # 8.F.S.@.6 3 2 K 4 >.*.x 3 x 3X3XO.o.| l t O.m. XW.m.X X X X X X X X X ",
"X * = ; - - # * = * 0.F.S.>.t 2 2  .K %.<.:.C B N O.O.O.C 5 l | o.>.[.j.X X X X X X X X X ",
"X + + ; > > - = = # d.7XwXU.c i 2 G C O.>.8.&.G t r G P w 2 x H C U.9.$ X + + + X X X X X ",
"X X * > < < ; * @ X u.:.9XJ.+.s 4 v l. .O.;.u P 6.M.&.P 9 b z k.%XQ.).. + = - = * X X X X ",
"X X + > <X< ; * X X o $.@.S.$X&Xg.2 I N O...K 7 1 2 l N V c 2 g.#X$.u.+ = > < > - * * + + ",
"X X + ; > > - X X X X y.1.6XY.Q.M.E e r.V y 8 n J N.1.3 6 R y I 7.r.X + - < <X, ; = ; ; ; ",
"X X + + * * + X . X X X r.B.8.I.4X0XB Z 8 V h 0 4 S J f i Z L Y.2.. X + = , < , - ; > < > ",
"X X X X X X X X X X X X + S @.I.8.7.b.3Xr.t.2X0 2Xd p A c.G P.,.  X X X + - ; ; = ; , <X> ",
"X X X X X X X X X X X X + e.] >.%.[ ` 3X8Xf.8 u g.2 2 2 h.L.P.E X X X X + * = = * = > > > ",
"X . X X X X X X X X X X X o q._ O.( } 1.O.%X1.7 Y 3.5.}.>.7.Y.O X X X X X * = = * @ * * * ",
"X X X X X X X X X X X X X + x.P.o.o.V./ O.%XC.%X5XtXpXiXtX$X).X X X X X X X * * @ @ X X X ",
"X X X X X X X X X X . X X X # & ).D.X.v.] ] { 3.|.4XaXaXiX X+ X X X X X X X X # X X X X X ",
"X X X X X X X X X X X X X X X X X u.R.{.#...*.A.{.|.Y.oX!.p.X X X X X X X X X X X X X X X ",
"X X . X X X X X X X X X X X X X X X X a.E.~.~.!.E.E.'.).$ X X X X X X X X X X . X X X X X "
};
