/* XPM */
static char *_fd8d77dd6224618e3d2e048e9c40f87n8pnJeTGwnovvbPX[] = {
/* columns rows colors chars-per-pixel */
"45 45 65 1 ",
"  c #385667",
". c #385767",
"X c #3C5767",
"o c #3A5867",
"O c #395969",
"+ c #3A5869",
"@ c #3A5B6A",
"# c #3A5B6B",
"$ c #3C5B69",
"% c #3A5C6A",
"& c #3C5C6B",
"* c #3C5D6B",
"= c #3D5E6C",
"- c #3D5F6C",
"; c #3F616D",
": c #405F6B",
"> c #425F6A",
", c #43606C",
"< c #41636E",
"1 c #43636E",
"2 c #42646D",
"3 c #46656E",
"4 c #47686F",
"5 c #436570",
"6 c #456770",
"7 c #456971",
"8 c #476871",
"9 c #466971",
"0 c #476B72",
"q c #4A6870",
"w c #496B72",
"e c #496C73",
"r c #4B6D73",
"t c #4A6E73",
"y c #4D6F73",
"u c #4E6E73",
"i c #4B6E74",
"p c #4C6E74",
"a c #4C7074",
"s c #4E7376",
"d c #4F7477",
"f c #517275",
"g c #507377",
"h c #507476",
"j c #507578",
"k c #517578",
"l c #527778",
"z c #53797A",
"x c #537A7A",
"c c #547879",
"v c #557979",
"b c #557B7B",
"n c #577D7B",
"m c #577D7C",
"M c #587D7C",
"N c #597F7E",
"B c #59807D",
"V c #5B837F",
"C c #5C837F",
"Z c #5B8380",
"A c #5C8380",
"S c #5F8782",
"D c #5F8883",
"F c #628A84",
"G c #638C85",
/* pixels */
"*;5696<=###%%#%##%%%o%%##o#o%######%%#%##%%%#",
";9dzzkt;%%o%##%%#o####%#%%##%%%o%%o%##%%#o##%",
";smSFNh2o%#%o%#o###o%###%#o%%o%%o%#%o%#o###o%",
"<sVGFFh< ##o%%###%%%%%o###%%%######%%%###%%%%",
";sZFFVf> #$##%o#o%o%%%%%o#%%%#o%##**=;%%o%%%#",
";ibZCNu>*;$#o%%#%%####%o%##%##%%#%*2992=%%%o#",
"=5ikcft363$###%##o%##%%#%%#o%%##%%<uzku<*%%##",
"%;2skfp633> o#%%##%%o%######%o#$%=6dVVf<#o##o",
"#*2knnf32>%%%%#o%o#%##%%#o#o%%<3659kNmu>oo##%",
"#%6kVVs<#$##%o##%##%o#%o%%##%2tdkp9wssw*#o#%%",
"##<scnt>o#####%o%#o%%%##%#o%#<sNNcw26w5#o#%%#",
"##<2ww<$#o###%%######%#%##%%#<sNVf<*6w3=.oo##",
"##%%<%*$#o%%####o%#####%%%###*tsdt*$<32%.###%",
"%o#%**####%oo#%%%%o#%%o%%o#%#*2232*$%<,o%%%oo",
"%##%#o%##%%#%##%o#%%o%%%##%%###=**#%*###%o%%#",
"%#o%##%%o%##%%#o%##%###%o#o#####o##%%o#%%####",
"##%o%%###%o#%%##%##o###%%#%##%%%#o%#####o%###",
"#%%##%o##%%#%o#%%#%%%%o%##%%#o####%%%o#%%%o#%",
"o%####%%#o%###%%%%%#o%%%o%#o###o%%##%##%o#%%%",
"%%%%%o%o%%%%o#o#%o#####%%%###%%%%o#%%#o%%##%%",
"#o%%%%%#%#o%o%%######o#o#%o#o%#####%##%%%%%%#",
"###%o#####%%##%#o#%%%%###%%#%%o#%%o%o#%o##%o#",
"#%####o#%%##%###%##%%#o%#o##%%%%#oo#%%###%%##",
"#%%o%%%##%o#%%o#%%#o##%%%%#%*%*%*%%##%#%o%##o",
"#o######%##%%%%%#%o#%%##%#*;99252%%o%%%%%%##%",
"%%.#o#%o%%#o##%o#%%#%o#%#*;tzzzj4*###%o#%o#%%",
"%**###%%#o%%#%%##o%###%%#*3zVDDm4*X #%%###%%#",
"**<6;;*###%oo%##%%%%o#o#o*9nDGGZu$ ##o%#o#o##",
"%9ust3*%%###%o#%%#o%o%%#%%4zDGFV4X $##%%%###%",
"2acVz9##%%##%##%##%%##%#%;2dVVVd<X $o#%o%%%oo",
"<iVVv4o*%*##%#o%%%##%####%=9isdw;%o#%%##%o%%#",
"=ihcf3**32o%o####%o#%%o###=;;;2%o####%#%%####",
"=<9sa43204, $%%%###%%#%##%%*%%%#o%#####*%####",
"#=2ihst492* oo%o%%o%##%%#oo#%%##%%o#==****##o",
"#%5knVh3%**#%o%%o%##o%#o%o%%#o%%o#%*26iw2=$=%",
"#=2jVVf,%%##%######%%%##%#####%o%##;9kzkw<<<2",
"##;thd4%#o#%%*%****%%%##%#%#####%%$2wcZNuwtsi",
"##;;42<#o##%#*2492**#%o###%%%o#%##%*9cmc9scVk",
"#%%**=%###o%#;tzch<*##%%o%#o%##%#%%*6idttumVn",
"o%##%###o###%<dVCc1%%o%o%%##%#o%o%##=29t33fks",
"##%o%%##%%%%%<snNs>.####%%##%o#%%%##%;442<342",
"#%%##%o##%o##;3ssw*$ ##%#%o#%##%%o##%;24>****",
"o%####%%#%%#%%=22<%%$##%##%%%#o%####%%;**##o%",
"%%%%%o%o#o%###%**#%o###o%o%o####o##%%%%#$####",
"###o%###%%o#####%###%%o#%%##%%%#%%%#%%##%o###"
};
