/* XPM */
static char *result[] = {
/* columns rows colors chars-per-pixel */
"45 45 190 2 ",
"   c #020203",
".  c #0D0906",
"X  c #040708",
"o  c #04090C",
"O  c #090C0E",
"+  c #060D11",
"@  c #080F12",
"#  c #071015",
"$  c #0C1316",
"%  c #0A151A",
"&  c #0D191E",
"*  c #151616",
"=  c #111A1B",
"-  c #2A200F",
";  c #372B15",
":  c #0F1C22",
">  c #131E23",
",  c #1F1F20",
"<  c #1B2226",
"1  c #14242B",
"2  c #182429",
"3  c #1B292B",
"4  c #192B33",
"5  c #1C2F38",
"6  c #1E323C",
"7  c #272926",
"8  c #2D2D2D",
"9  c #332E2A",
"0  c #38322E",
"q  c #232D32",
"w  c #21353D",
"e  c #283338",
"r  c #373635",
"t  c #45361D",
"y  c #4A3D28",
"u  c #544223",
"i  c #5C4827",
"p  c #614D2A",
"a  c #6C562F",
"s  c #6E5730",
"d  c #233944",
"f  c #273F4A",
"g  c #313E44",
"h  c #2E4545",
"j  c #29424C",
"k  c #35444A",
"l  c #2C4652",
"z  c #2E4956",
"x  c #2F4B58",
"c  c #324C53",
"v  c #3D4E55",
"b  c #314E5B",
"n  c #355157",
"m  c #3C5456",
"M  c #34515E",
"N  c #365563",
"B  c #3A5767",
"V  c #395966",
"C  c #3A5B6A",
"Z  c #3E606C",
"A  c #494845",
"S  c #554D45",
"D  c #44514F",
"F  c #57524E",
"G  c #4D5557",
"H  c #42545B",
"J  c #545554",
"K  c #5A5B59",
"L  c #665C54",
"P  c #625D58",
"I  c #546352",
"U  c #63615E",
"Y  c #6A625A",
"T  c #70665C",
"R  c #425D65",
"E  c #4A5C64",
"W  c #425F6A",
"Q  c #47676A",
"!  c #42636E",
"~  c #55656B",
"^  c #4E726C",
"/  c #446670",
"(  c #466971",
")  c #4A6D73",
"_  c #566B75",
"`  c #586A72",
"'  c #586F78",
"]  c #4E7275",
"[  c #507476",
"{  c #547A75",
"}  c #517678",
"|  c #5B727C",
" . c #557A7A",
".. c #587E7D",
"X. c #686866",
"o. c #796E64",
"O. c #706D6B",
"+. c #7D7268",
"@. c #697375",
"#. c #727574",
"$. c #767B7B",
"%. c #82766B",
"&. c #877A6F",
"*. c #8B7E72",
"=. c #807F7C",
"-. c #5A817E",
";. c #908377",
":. c #95887B",
">. c #96887C",
",. c #5E7680",
"<. c #627A84",
"1. c #657F89",
"2. c #5E8581",
"3. c #638C85",
"4. c #67848D",
"5. c #7D8383",
"6. c #6B8591",
"7. c #6E8A95",
"8. c #728D99",
"9. c #6A9A93",
"0. c #74919D",
"q. c #7896A2",
"w. c #7A98A5",
"e. c #7E9DAA",
"r. c #838787",
"t. c #9C8E81",
"y. c #8A908F",
"u. c #9F9184",
"i. c #8D9392",
"p. c #949A9A",
"a. c #A29386",
"s. c #A69789",
"d. c #A7988A",
"f. c #AA9B8D",
"g. c #AF9F90",
"h. c #8BA386",
"j. c #B4A495",
"k. c #B8A798",
"l. c #BCAB9B",
"z. c #A3BE9D",
"x. c #81A1AE",
"c. c #9AA1A0",
"v. c #86A6B4",
"b. c #87A8B6",
"n. c #88A9B7",
"m. c #8BADBB",
"M. c #8EB1BF",
"N. c #A4A9A8",
"B. c #AAACAB",
"V. c #ABB2B1",
"C. c #B7B8B7",
"Z. c #B4BCBB",
"A. c #C0AF9F",
"S. c #C5B3A3",
"D. c #C8B6A6",
"F. c #CAB8A7",
"G. c #CEBBAA",
"H. c #D1BEAD",
"J. c #D6C2B1",
"K. c #DAC6B4",
"L. c #DCC8B6",
"P. c #8FB1C0",
"I. c #92B5C4",
"U. c #96BACA",
"Y. c #99BECD",
"T. c #95D5CC",
"R. c #9DC3D3",
"E. c #BCC4C3",
"W. c #A0C6D7",
"Q. c #A4CBDC",
"!. c #9DE1D7",
"~. c #A7CFE1",
"^. c #AAD3E4",
"/. c #AED7E9",
"(. c #AFD9EB",
"). c #B0DAEC",
"_. c #C5C4C4",
"`. c #CACCCC",
"'. c #CCD5D4",
"]. c #D6D6D6",
"[. c #D7DCDB",
"{. c #DDE7E6",
"}. c #E2E6E6",
"|. c #ECECEC",
" X c #EBF5F4",
".X c #EEF8F7",
"XX c #EFF9F8",
"oX c #F2F2F2",
"OX c #F0FAF9",
"+X c #FEFEFE",
/* pixels */
"C ! / / / ( / Z C C C C C C C C C C C C C C C C C C C C C C C C C C C C C C C C C C C C C ",
"Z ( ]  . .] ) Z C C C C V C C C C B V C C C C C C C C C C C C C C V C C C C C C C C C C C ",
"Z ] ..2.3.-.] / C C C C C C C C B 4 + d C C C C C C C C C C C C V N N C C C C C C C C C C ",
"! ] 2.3.3.2.} Z B B C C C C C C x   ' + j C C C C C C C C C C x >   # V C C C C C C C C C ",
"! ] -.3.3.2.[ W B B C C C C C C f + ^.7.o x C C C C C C C C x # | _ % C C Z Z C C C C C C ",
"Z )  .-.-..._ W W ! C C C C C C 5 g (./.,.+ x V C C C C M 6 o 7.^.E 1 ! ( ( ! C C C C C C ",
"Z ! ] } { Q ! ! / ! C B V C C V : 6.).).^._ % N C C B f @ / I.(./.g d )  .} ] ! C C C C C ",
"C Z ! ] h $ X 2 c C Z B C C C b   m.).).(.^.H > B B w > x.(.).).R.< n } -.-.] ! V C C C C ",
"C Z ! ] k e I.e.H X 1 d x V C d 3 ~.).).).).Y.O d : k Y.).).).).R.$ n } -...] Z B V C C C ",
"C C /  . .= ,.).(.R.v.3.< > d % ' ).).).).).).'   ,.~.).).).).).I.  V ) ] [ ( C B C C C C ",
"C C Z ]  .m = R.).)./.).Q.m.` X e.).).).).).).R.x./.(.).).).).).m.  R W ! ! n j 6 5 6 B C ",
"C C Z / ) ! & | ).).).).).).(.U.W.).Q.P.w.8.8.8.b.Y./.).).).).).w.  > & $ < k @.8.M o N C ",
"C C C C Z Z j = R.).).).).).).).I.' +.f.l.D.D.D.f.:.P 6.Q.(.(.).v.q.n.Y.R.~.).~.4.X f B B ",
"C C C V C C N + q.).).).).).Y.` *.G.L.K.L.L.L.L.L.L.L.A.K x.(.).).).).).).).R.v : z C C C ",
"C C C V C V N 1 < W.).).).n.Y D.L.L.G.G.G.G.J.L.L.L.L.L.H.%.8.).).).).).).P.e 4 N C C C C ",
"C M j 6 1 X % g E P.).).W.A H.L.L.A.+.%.&.%.g.L.L.L.L.L.L.K.L I.).).).).x.& d B C C C C C ",
"M X X 1.m.R.^.^.).).).).1.f.g.X.+.t.j.S.H.K.H.H.D.g.=.O.P k.D.H (.).Q.<.  f C C C C C C C ",
"B d : < 6.I.^.).).).).^.r J.9 Y.Q.U.v.0.<.,.<.<.8.v.Y.~.v.L L.y Q.).7.  o > 6 f x M N C C ",
"V C B x w @ k x.^.).(.Y.L L.s.< ~ 7.n.I.U.Y.W.Y.P.0.<.X.8 d.L.&.P.).).Q.Y.P.q.~ v 4 o 1 N ",
"C C C C C B f + g I.(.I.%.H.L `.oX|.`._.F o.%.r G.{.oX+X|.#.j.*.m.).).).(.).(.(.Y.~   1 N ",
"C C C C C b 4 X _ W.(.M.*.a.B.+X+X+X+X+X_.>.t.V.+X+X|.+X+X].o.*.m.).).).).).Q.6.+ 4 x C C ",
"C C C N d O | W.(.).(.I.&.:._.+X+XU C.+X_.>.;._.+X].0 }.+X].o.t.e.).).~.m.1.3 > b C C C C ",
"C C x : k M.).).).).I.| F j.=.OX+X].oX|.X.A.k.#.oX+XoX+XOX=.j.t.A <.Y.v     d C C C C C C ",
"C V %   _ x.M.I.m.v.L S.0 L.a.O.N._.C.P %.d.s.%.P c._.C.O.d.L.;.f.g.' (.Y.<.@ 5 N C C C C ",
"C C N l f 5 1 +   H >.J.9 L.L.J.S.f.a.H.g.*.L A.L.F.k.k.H.L.L.t.a.A._ ).).(.U.H % l C V C ",
"C C C C C C N : _ ~.G u.7 K.L.K.%.o.s.K.H.S L L.L.L.L.L.L.L.K.&.X.G W.(.).(.Q.W.4.o 5 V C ",
"C C C C C C x X P.(.^.P.E l.L.L.L.L.L.L.L.K.K.L.L.L.L.L.L.L.L.S P.^.Q.0.4.D > O q X # N C ",
"C Z Z / Z C : v R.P.v.e.v *.L.D.a.K.S.A.g.s.a.s.l.S.H.*.A.L.S.E (.(.Q.2 > l M N M M N C C ",
"C ) ) [ ] V + @ # : 1 1   * S.s.&.a.*.t.g.k.l.j.u.;.;.*.u.L.&.x./.(.(.6.% N C C V C C C V ",
"! ) ....} ( N N N C C l O 8.S D.D.L.L.L.L.L.L.L.L.L.L.H.K.d.~ 0.g 6.n.n.% 6 C C C C C C C ",
"/ ) ..-. .Q C C C W C d $ @.r.F f.H.L.L.L.L.L.K.L.L.L.H.;.#.E H 1 6 1 +   + N C C C C C C ",
"C ) }  .[ ! C W ! ! C 5   G  Xy.r.X.%.a.k.A.S.A.k.>.Y ~ O. Xi.  l C C B b N C C C C C C C ",
"C / ( ) ] ) ! ! ) ( W c   Z.OX5.`.-.C.i.{ 9.9.-.I '.5.i.X..X{.3 d C C C C C C C C C C B C ",
"C ! / ] } } ) ! ! ! C 4 G  XXXK V.@.oXU T.!.!.T.D }.r.B.A }..Xc.o V C C C Z Z Z Z C C C C ",
"C C / [ -...[ / ! C M X C.OX XG {.y.r.^ !.!.!.!.3.K Z.XXG {.XX[.= j C C Z ( ) ) / C C C C ",
"C C / [ -...[ / V C c   i.C.C.~  X XO.^ 9.9.9.9.2.k }.XXi.N.E.B.8 4 C Z ( ] ..} ( / / / Z ",
"C C Z ] } } ( C V V N o o.k.>.#..Xc.t p i 7 h.; p u *.oXV.%.j.s.. j C Z ) ..2.} ] ( ) ) ] ",
"C C C Z / / Z C C C N   0 A.g.5.p.; a s p I z.; s s y -.c.;.K.T   d C Z ) ] 2.} ] )  .2.} ",
"C C C C C C C C C C C z > 9 7     t s s i * 7 - s s a     . r X d N C C / ) ] ) / ] ,.2.} ",
"C C C C C C C C C C C V V n c h 2 - i i ;   1 . u u t   < 5 z M C C C C C / ) ( ( ( [ } [ ",
"C C C C C C C C C V C C C / ] ,.m X B._.=.  1   C._.$.  N C C C C C C C C ! ( ) ! ! ! ( ! ",
"C C C C C C C C C C C C C C Z ] w   F J r       J J r   x C C C C C C C C C ! ( ! V C C C ",
"C C C C C C C C C C C C C C Z Z f   , 8 * o 6   7 7 % + N C C C C C C C C C Z Z C C C C C ",
"C C C C C C C C C C C C C Z Z Z C l :   O l B 4   O 5 b C C C C C C C C C C C C C C C C C ",
"C C C N C C C C C C C C C C C C C C C N N C C B N B C C C C C C C C C C C C C C C C C C C "
};
