/* XPM */
static char *result[] = {
/* columns rows colors chars-per-pixel */
"45 45 193 2 ",
"   c #010202",
".  c #070707",
"X  c #04090C",
"o  c #0A0C0C",
"O  c #130D05",
"+  c #161006",
"@  c #050D11",
"#  c #0B0F10",
"$  c #0B1215",
"%  c #0B151A",
"&  c #0D191E",
"*  c #151616",
"=  c #12191C",
"-  c #252115",
";  c #332816",
":  c #0F1B21",
">  c #111E23",
",  c #1E1E20",
"<  c #132126",
"1  c #15242B",
"2  c #19252A",
"3  c #1D262A",
"4  c #1A2C34",
"5  c #1E323B",
"6  c #222324",
"7  c #2A2A29",
"8  c #342F2B",
"9  c #33342D",
"0  c #232D31",
"q  c #2E2E30",
"w  c #263136",
"e  c #22343C",
"r  c #2A383C",
"t  c #3A3937",
"y  c #4A3A1F",
"u  c #5A4727",
"i  c #48433E",
"p  c #614C2A",
"a  c #68522D",
"s  c #6E5730",
"d  c #213741",
"f  c #243A44",
"g  c #2D3D43",
"h  c #263E48",
"j  c #313E44",
"k  c #27404B",
"l  c #29424D",
"z  c #36444B",
"x  c #34464A",
"c  c #3E514E",
"v  c #2C4652",
"b  c #2E4956",
"n  c #2F4B58",
"m  c #314C54",
"M  c #3C4C53",
"N  c #314E5B",
"B  c #33515E",
"V  c #3D5B59",
"C  c #365563",
"Z  c #395766",
"A  c #3A5965",
"S  c #3A5768",
"D  c #3A5B6A",
"F  c #3F606C",
"G  c #4A4947",
"H  c #534E49",
"J  c #5B524B",
"K  c #42545C",
"L  c #585755",
"P  c #5B5E5D",
"I  c #665D55",
"U  c #68625C",
"Y  c #73685E",
"T  c #465961",
"R  c #485F68",
"E  c #42636E",
"W  c #4D6169",
"Q  c #486A6A",
"!  c #57656A",
"~  c #446670",
"^  c #466971",
"/  c #4A6C73",
"(  c #576B74",
")  c #4E7275",
"_  c #507476",
"`  c #517678",
"'  c #5D737D",
"]  c #557A7A",
"[  c #587E7D",
"{  c #686867",
"}  c #736B64",
"|  c #796E64",
" . c #7E7268",
".. c #656E72",
"X. c #6A7376",
"o. c #737575",
"O. c #7A7C7B",
"+. c #82756A",
"@. c #84786D",
"#. c #887B6F",
"$. c #8B7E72",
"%. c #5A817E",
"&. c #8E8176",
"*. c #908377",
"=. c #938679",
"-. c #96887C",
";. c #998B7E",
":. c #5F7681",
">. c #637B85",
",. c #657F89",
"<. c #7E7F80",
"1. c #5E8581",
"2. c #5F8A84",
"3. c #638C85",
"4. c #67818C",
"5. c #69838E",
"6. c #64918A",
"7. c #6C8692",
"8. c #6E8995",
"9. c #728E9A",
"0. c #6A9A93",
"q. c #75919D",
"w. c #73A79F",
"e. c #7896A3",
"r. c #7B99A6",
"t. c #7E9DAB",
"y. c #7FB7AF",
"u. c #858887",
"i. c #8B8E8E",
"p. c #9C8E81",
"a. c #9A9086",
"s. c #8F9594",
"d. c #959999",
"f. c #9A9D9C",
"g. c #A39486",
"h. c #A69789",
"j. c #AB9B8D",
"k. c #AF9F90",
"l. c #98B293",
"z. c #B5A495",
"x. c #BCAB9B",
"c. c #809FAD",
"v. c #81A1AE",
"b. c #9AA1A0",
"n. c #84A4B2",
"m. c #87A8B6",
"M. c #88A9B7",
"N. c #8BADBB",
"B. c #8EB0BF",
"V. c #A4A7A7",
"C. c #A6ADAC",
"Z. c #ADB5B4",
"A. c #B4B6B6",
"S. c #B8BBBB",
"D. c #C1AF9F",
"F. c #C5B3A3",
"G. c #C8B6A6",
"H. c #CAB8A7",
"J. c #CCBAA9",
"K. c #D1BEAD",
"L. c #8AC6BD",
"P. c #B8C0BF",
"I. c #D4C1AF",
"U. c #D6C3B1",
"Y. c #DAC6B4",
"T. c #DCC8B6",
"R. c #8FB2C1",
"E. c #91B4C3",
"W. c #94B8C7",
"Q. c #96BACA",
"!. c #99BECE",
"~. c #9DC2D2",
"^. c #98DAD1",
"/. c #A0C7D7",
"(. c #A1C7D8",
"). c #A4CCDC",
"_. c #9DE1D7",
"`. c #A7CFE0",
"'. c #AAD3E4",
"]. c #ADD7E9",
"[. c #AFD9EB",
"{. c #B0DAEC",
"}. c #C8C8C7",
"|. c #CCD5D4",
" X c #D9D9D9",
".X c #DAE3E2",
"XX c #E4E4E4",
"oX c #E4EDEC",
"OX c #EBEBEB",
"+X c #EDF7F6",
"@X c #EFF9F8",
"#X c gray97",
"$X c #FEFEFE",
/* pixels */
"D E ~ ~ ~ ~ F F D D D D D D D Z D D D D D D D D D D S D D D D D D D D D D D D D D D D D D ",
"F ^ ) ] ] ` ) F D D D D D D D D D D D D D D D D D D D D D D D D D D D D D D D D Z D D D D ",
"F ) [ 1.2.%.) E D D D D D D D D D h 4 n D D D D D D D D D D D D D D D D D D D D D D D D D ",
"E ) 1.3.3.1.` E S S D D D D D Z B   x @ n D D D D D D D D D D C 5 $ 4 D D D D D D D D D D ",
"F ) %.3.3.%._ R Z S D D D D D D k X ~./ & C D D D D D D D D C 1 z W X A D F F D D D D D D ",
"F / [ %.1.[ / E R E D D D D D D 5 0 [.`.M > C D D D D D Z b & S (.W 1 E ^ ^ E D D D D D D ",
"F E ) ` ` ) ^ E ^ E D C C D D D > >.[.{.(.z 1 Z D D D n < 3 9.'.[.z e ) ] ` / E D D D D D ",
"D F E / V 2 1 x A ^ D D D D D C   n.{.{.{.~.w 5 S D v X :.`.[.[.(.2 m ` %.%.` E D Z D D D ",
"D F E ) r r t.) = < k m Z D D k , (.{.{.{.{.M.  v 5 = r.[.{.{.{./.= m ` [ [ ) D C D D D D ",
"D D ~ ] _ X q.{./.v.X.w $ e n 1 K {.{.{.{.{.].K   m Q.{.{.{.{.{.Q.  A / _ _ Q R S D D D D ",
"D D E ) ] x r `.{.{.[.].B.4.0   r.[.{.{.{.{.{.M.( ).{.{.{.{.{.{.N.  S ~ E / E B b v v D D ",
"D D F ~ / F X q.{.[.[.[.{.{.`.e.E.[.(.E.e.9.9.q.M.!.].{.{.{.{.{.c.. f e 4 > # 0 m g   C D ",
"D D D F F D e 3 `.[.{.{.{.{.{.[.E.' | h.D.G.H.F.j.*.{ 5.).{.{.{.9.R ,.c.n.E.(.'.N.0 4 D D ",
"D D D D D D N X m.{.{.{.{.{.Q.( &.J.T.T.T.T.T.T.T.T.U.x.L v.{.{.[.[.{.{.{.{.'.,.X f S D D ",
"D D D D D D D 1 M '.[.{.{.B.U H.T.J.k.j.j.k.F.T.T.T.T.T.U.+.q.{.{.{.{.{.{.).R $ n D D D D ",
"D Z N v f 4 : X   n.[.[.~.G I.J.U.J.j.k.j.j.F.T.T.T.Y.K.K.Y.I B.{.{.{.[.!.j 1 C D D D D D ",
"C : X T 7.t.E.!.`.{.{.{.,.j.@...! { *.;.z.D.D.z.g.@.P ,...-.G.T {.{.{.n.0 4 Z D D D D D D ",
"Z >   W R.`.[.[.{.{.{.'.t U.G N.).]./.W.m.c.c.c.E.(.'.!.8. .Y.i (.{.8.  X d v B Z D D D D ",
"D D C d % 2 ,.~.[.{.[.!.I Y.k.j $...5.9.q.c.c.c.7...<.V.o.$.K.+.E.{.).M.e.8.K 3 @ % 1 h Z ",
"D D D D S n 4 @ :.(.[.E.+.F.I OX$X$XOXOX<.$.p.U XX#X$X$X#Xf.h.$.N.{.{.{.{.{.{.`.~.(   X N ",
"D D D S D D h @ w R.{.R.$.-.S.$X$XXX#X$X}.-.=.P.$X$X}.#X$X X} $.N.{.{.{.{.{.[.M.M % h C D ",
"D D D D n > g n.`.{.[.E.#.-.P.$X#Xz A.$XA.p.-.P.$X Xo.OX$X}.@.p.r.{.{.{.`.M.W X f Z D S D ",
"D D C 5   7.`.[.{.{.`.e.J F.I XX$X#X$X|.H F.F.L  X$X$X$XXXL F.p.K m.).' @   e C D D D D D ",
"D Z :   5.!.`.'.'.~.H g.t T.x.| | d.O.+.-.;.$.p.@.} a.u.} F.T.=.p.=.7.!.c.j & v D D D D D ",
"D D v 5 1 @   &   M p.I.8 T.T.Y.D.h.;.T.z.Y i J.T.T.K.K.T.T.T.p.g.F.T {.{.'.e.$ 4 C D D D ",
"D D D D D D Z < M W.H x.8 Y.T.Y.h.h.F.T.T.#.-.T.T.T.T.T.T.T.T.#.=.I N.{.{.{.{.~./ @ k D D ",
"D D D D D D N   n.[.!.8.z D.T.T.T.T.T.T.T.T.T.T.T.T.T.T.T.T.Y.H 9.~.].Q.N.9.R K R #   B D ",
"D D ~ F ~ D 4 x '.'.~.~.' $.T.x.*.G.h.;.+.| Y | *.g.x.| h.T.F.T {.{.!.  % 5 l b v l b D D ",
"R ^ / _ / A   w g 2 $ @   * F.z.+.z.z.D.K.U.U.I.F.z.k.=.z.T.#.n.{.{.[.( : D D D D S D D D ",
"F / [ %.` ^ b v b C C v . 9.L J.Y.T.T.T.T.T.T.T.T.T.T.T.T.h.w v.,.N.(.E.X k D D D D D D D ",
"F ) [ %.] E D S D R D h % W.! H j.U.T.T.T.T.T.T.T.T.T.K.=.o.C.# . : @ r $ X Z D D D D D D ",
"F / ` ] _ Q S E E E D 1   . X..X6 J  .h.x.D.F.x.z.p.U X.O.A.@XA.. v C n h b S D D D D D D ",
"D ~ ^ ) ) ^ F F / ^ D B 4   |.|.o...b.b.Q 0.0.w.Q C.d.b.Z.Z.@X+XX.@ A A F D D D D D D D D ",
"D D F ) ` ` ) ~ ^ E F Z & u.@XP.V.oXO.G L._._._.y.i.+Xt Z.L s.P t . C F F F F F D D D D D ",
"D F ~ ` %.%.) ~ F F D v o |.@XZ.Z.@XC.2._._._._.^.G 8.C..X7 k.&.. & C F F / / ^ F F F F D ",
"D D F ` %.:.) ~ A A D 1 6 s.d.P |.S.* 6.0.0.0.0.0.V i.@XoXt . X 5 C D F F ` :.] / F F F F ",
"D D F ) ` ` / D Z D C @  .J.J.J ! O u p u 6 l.- p p ; P.+XL 4 C D D D F / ] 1.] ) ^ / / ) ",
"D D F F ~ F F F D A n   h.U.T.p.    + + +   9 . a s a ; C.P 4 A D D D F / ` ] ] / ) ] 1.` ",
"D D D D D D D D D D C >   &.k.t .   7 q 7 . X   a s s ;     & F D D D D F ) ` / ^ ) ] 1.] ",
"D D D D D D D D D D D Z v 1 & c Q # $ 6 ,   5   y y u O < 4 v F D D D D F F ^ / E ^ ` ` ) ",
"D D D D D D D D D D D D D F ) ] :.Q k > : k b   i.}.f.  v D D D D D D D D F ^ ^ E E Q ^ E ",
"D D D D D Z D D D D D D D F ^ ) _ ^ F A D D k   t L G   d D D D D D D D D F E ^ E D D D D ",
"D D D D D D D D D D D D D D F F ~ D D D D D n   6 7 >   v D D D D D D D D D F F D D D D D ",
"D D D D D D D D D D D D D D D F D D D D D D D h . . < b D D D D D D D D D D D D S D D D D ",
"D D D D D D D D D D D D D D D D D D D D D D D D C C S D D D D D D D D D D D D D D D D D D "
};
