/* XPM */
static char *_1eeb4070b544c6fd3c507b73eae2e0ahK7RDl9L4Mk59CIA[] = {
/* columns rows colors chars-per-pixel */
"45 45 189 2 ",
"   c #010203",
".  c #040806",
"X  c #040709",
"o  c #05090C",
"O  c #0B0B0B",
"+  c #100C04",
"@  c #161006",
"#  c #050D11",
"$  c #090E11",
"%  c #071015",
"&  c #0B1215",
"*  c #0A161B",
"=  c #0C191E",
"-  c #15181A",
";  c #23211A",
":  c #302511",
">  c #0E1B21",
",  c #171E21",
"<  c #15252C",
"1  c #1B292C",
"2  c #192A32",
"3  c #1C2F38",
"4  c #1F333C",
"5  c #222223",
"6  c #272C2A",
"7  c #36312C",
"8  c #242E32",
"9  c #2E2E30",
"0  c #233135",
"q  c #27363A",
"w  c #393836",
"e  c #44341C",
"r  c #564324",
"t  c #5E4A28",
"y  c #4A433C",
"u  c #624D2A",
"i  c #6D562F",
"p  c #6E5730",
"a  c #213741",
"s  c #243A45",
"d  c #253D48",
"f  c #303D42",
"g  c #2B4348",
"h  c #29424C",
"j  c #334147",
"k  c #36464A",
"l  c #2C4652",
"z  c #2E4A56",
"x  c #2F4B58",
"c  c #344E55",
"v  c #3C4C53",
"b  c #314E5B",
"n  c #3B5456",
"m  c #35525D",
"M  c #3C545C",
"N  c #365563",
"B  c #395765",
"V  c #395966",
"C  c #3A5B6A",
"Z  c #3E606C",
"A  c #464746",
"S  c #564D46",
"D  c #5D544C",
"F  c #4C5457",
"G  c #42545B",
"H  c #565553",
"J  c #5B5753",
"K  c #5B5E5D",
"L  c #655C53",
"P  c #685E55",
"I  c #61615E",
"U  c #6C625A",
"Y  c #71675D",
"T  c #465961",
"R  c #4A5D65",
"E  c #425F6A",
"W  c #476768",
"Q  c #42646E",
"!  c #52676F",
"~  c #4E716C",
"^  c #446670",
"/  c #466971",
"(  c #4A6D73",
")  c #546A73",
"_  c #586C75",
"`  c #4E7175",
"'  c #507476",
"]  c #517678",
"[  c #587678",
"{  c #557A7A",
"}  c #587E7D",
"|  c #636564",
" . c #646A6C",
".. c #746A62",
"X. c #7A6E64",
"o. c #7F7368",
"O. c #6D7271",
"+. c #727777",
"@. c #82766B",
"#. c #867A6E",
"$. c #887B6F",
"%. c #8B7E72",
"&. c #807F7C",
"*. c #5A817E",
"=. c #8E8175",
"-. c #938679",
";. c #94867A",
":. c #5F7680",
">. c #627B85",
",. c #667F89",
"<. c #5E8581",
"1. c #638C85",
"2. c #69838E",
"3. c #7D8382",
"4. c #6B8691",
"5. c #6E8A95",
"6. c #728E9A",
"7. c #6A9A93",
"8. c #74919D",
"9. c #7896A3",
"0. c #7996A3",
"q. c #7D9CA9",
"w. c #79AEA7",
"e. c #878989",
"r. c #9C8E81",
"t. c #8A908F",
"y. c #8C9292",
"u. c #909494",
"i. c #939A99",
"p. c #9B9C9C",
"a. c #A29385",
"s. c #A7978A",
"d. c #A7988A",
"f. c #AB9B8D",
"g. c #AF9F90",
"h. c #B6A596",
"j. c #BCAB9B",
"k. c #A2BD9C",
"l. c #809FAC",
"z. c #81A0AE",
"x. c #84A4B2",
"c. c #87A8B6",
"v. c #88A9B7",
"b. c #8BADBB",
"n. c #8EB0BF",
"m. c #A4A7A6",
"M. c #ABADAC",
"N. c #AAB1B1",
"B. c #B4B9B9",
"V. c #C0AF9F",
"C. c #C4B2A2",
"Z. c #C8B6A6",
"A. c #CAB8A7",
"S. c #CDBBAA",
"D. c #D1BEAD",
"F. c #D4C1AF",
"G. c #D6C3B1",
"H. c #DAC6B4",
"J. c #DCC8B6",
"K. c #8FB1C0",
"L. c #91B4C3",
"P. c #95B9C9",
"I. c #99BECE",
"U. c #8ECBC2",
"Y. c #9CC1D2",
"T. c #BBC3C2",
"R. c #A1C7D8",
"E. c #A3CADB",
"W. c #9DE1D7",
"Q. c #A7CFE0",
"!. c #A7D0E1",
"~. c #AAD3E4",
"^. c #ADD6E8",
"/. c #AFD9EB",
"(. c #B0DAEC",
"). c #B0DAED",
"_. c #C5C4C3",
"`. c #C6CECD",
"'. c #CACACA",
"]. c #C9D1D0",
"[. c #D4D4D4",
"{. c #DBDDDD",
"}. c #DEE7E6",
"|. c #E7E8E8",
" X c #ECF6F5",
".X c #EEF8F7",
"XX c #EFF9F8",
"oX c #F2F8F8",
"OX c #FEFEFE",
/* pixels */
"C Q ^ ^ ^ ^ Z Z C C V C C C C C C C C C C C C C C C C C C C C C C C C C C C C C C C C C C ",
"Z / ' { { ' ` Z C C C C C C C C C N x N C C C C N C C C C C C C C C C C C C C V C C C C C ",
"Z ` } <.<.*.' Z C C C C C C C C B %   2 C C C C C C C C C C C C N h x C C C C C C C C C C ",
"Q ` <.1.1.<.] Q B B C C C C C C z   0.1 3 C C C C C C C C C C d X 8 o N C C C C C C C C C ",
"Z ` *.1.1.<.' E C C C C C C C C s = /.v.# d C C C C C C C C a X q._ > C C Z C C C C C C C ",
"Z ` { *.<.*.( E C E C C C C C C 2 G (.(.l.  l V C C C C l > a K.(.G 2 ^ / / ^ C C C C C C ",
"Z Q ` ' ' n c E ^ Q C N C C C N $ 9./.(./.8.X z C C N 2 8 0.Q./.^.q g ` { ] ( Q C C C C C ",
"C Z Q ` q q G   0 m V C N C C z o P././././.>.# N b > G I.(.(./.Y.- c ` *.*.` ^ N C C C C ",
"C Z Q ` n $ L.Y.6.k . > s N V 4 q ^.(.(.).(.E., , # >.!./.(.(.(.Y.O m ` <.] ` Z N C C C C ",
"C C Q { *.1 W ^.^.^.R.v.! & < X 4.(.(.(.).(.(.4.= x./.).(.(.(.(.b.  E ( ` ' ( C C C N C C ",
"C C Q ` { W   K.(.(.(.(.(.E.q.w l./.(.(.).(.(.!.I.(.(.(.(.(.(.(.c.  V N M c g 1 > X > N C ",
"C C Z ^ ( / < G (.(.(.(.(.(.(.~.^./.E.K.0.8.6.6.v.I.^./.(.(.(.(.6.  - 0 j _ 5.x.c.v % N C ",
"C C C Z Z C z o P.(.(.(.(.(././.L._ @.s.V.Z.A.Z.f.-.| 4.E././.(.Y.I.E./.(.(.(.I.M * b C C ",
"C C C C C C V * ,.(.(.(.(.(.I.) %.S.J.H.J.H.J.J.J.J.G.V.J x./.(.)./././.(./.x., 3 N C C C ",
"C C C C N x l <   n.(.(.(.v.U Z.J.J.H.J.H.H.J.J.J.J.J.J.D.@.8.(./.)././.^.6.# d B C C C C ",
"V h < #   k ! >.9.R.(.(.R.A D.H.J.C.U Y ..Y g.J.J.J.J.J.J.H.P K.)././.Q.>.$ l C C C C C C ",
"b   X 4.E.^.(.(.(.(.(.(.,.f.A.r.s.V.D.D.D.J.J.J.H.S.h.r.r.S.A.G /.(.P.v X l C C C C C N C ",
"C x a # v 5.I.(.(.(.(.^.w J.7 K.K.6.>. .....X... .>.x.I.z.L H.y E.(.x.T 8   # 2 s l z N C ",
"C C C N l 2 & _ P././.I.L J.%.R 9.L.E.!.E.Q.~.E.Q.P.l.,.8 s.J.@.L.(.(.^.^.~.P.q.5.R   o N ",
"C C C C C C x o   x./.L.@.H.@.p.[._.p.u.A | | f 3.B.[.|.'.J C.%.b.(.(.(.(.(./.^.z.f * d C ",
"C C C C C d # G l.~.(.K.%.f.u.OXOXOXOXOXN.r.s.p.OXOXOXOXOX_.#.%.b.(.(.(.(.^.b.v * l N C C ",
"C C C x < 1 x.^./.(./.K.#.-._.OXOXm.[.OX'.-.%.'.OX|.| |.OX{.Y r.5.^./.P.2.j # s N N C C C ",
"C B d X >.E.(.(.(.^.6.P L a.m.OXoXM.{.OXe.g.s.p.OXoX'.OXOXm.a.r.P H b.>.k   a V C C C C C ",
"C N <   3 ) 4.5.4.4.#.D.7 D...p.[.|.{.e.P V.j.D e.[.|.|.p.@.D.-.f.C.R (.^.x.j > x C C C C ",
"C C C N x l s > # ,.@.D.7 J.J.j.a.%.-.C.s.-.X.j.C.s.%.%.V.J.J.-.a.a.4.(.(.(.!.4.o 4 N C C ",
"C C C C C C N $ 5.^.,...; H.J.J.%...@.H.Z.y A G.J.J.J.J.J.J.J.%.A 4.Q.(.^.E.b.b.5.# * N C ",
"C C C C C C d * I././.Q.! C.J.J.G.H.J.J.H.C.Z.J.J.J.J.J.J.J.J.S Y.(.I.G j # > < * % 2 N C ",
"Z Z Z ^ Z B $ M z.6.>.) , %.J.D.V.J.J.H.S.C.C.Z.D.J.J.f.S.J.Z.T /.(.^.k < N V C C C C C C ",
"C / ( ` ( Q 2 > 2 a d a   , Z.a.%.s.L P $.;.;.%...L %.$.-.J.#.6.I.^./.9.X N C C C C C C C ",
"^ ( } *.] / C N C C C l $ 6.S j.f.H.H.J.J.J.H.J.H.J.G.j.D.f._ ,.  v >.6.* < C C C C C C C ",
"Q ( } <.[ / C C C C C 3 O F N.H g.D.J.J.J.J.J.H.J.J.H.D.%.A 6.q 4 z a 2 * < N C C C C C C ",
"C ( ] { ` ^ C E ^ ^ E 2 - `.oXt.e.| X.s.j.j.C.j.h.r...P A |.H   b N C C C C C C C C C C C ",
"C ^ / ( ` / Q Q / / m X u.XXXX3.`.3.N.y.{ 7.7.w.g B.y.i.k |.B.  x C C C C C C C C C C C C ",
"C Q ^ ` ] ] ( / / Q m   w | p.w N.O. XK U.W.W.W.w.A y. X_ {..X| 1 C C C Z Z Z Z C C C C C ",
"C C ^ ] } } ` ^ E C B o + f.d.w }.t.e.~ W.W.W.W.W.~ T.XXm.T.XXB.  b C C Z / ( / Z Z Z Z C ",
"C C ^ ' <.} ` ^ V V V N 3 +   !  X XO.~ 7.7.7.7.7.*.; ].B.+.i.e.$ 4 C Z / ] :.] ( Z Z Z Z ",
"C C Z ( ] ] / C V V V C C N = +.oXp.e u t 6 k.; t u r 5 K @.F.Z.U * V Z ( { <.{ ` ^ ( ` ` ",
"C C Q C / Z Z Z C C C C C C X e.i.: p p u . 6   @ + +     f.J.F.=.  N Z / { } { ( ` { <.] ",
"C C C C Z C C C C C C C V Q .     e i p r   X $ 6 9 5     D h.Y . < C C Z ( ` ( / ` { <.{ ",
"C C C C C C C C C C C C C Q c g < : r r e   q   5 5 $ = x 4 # < z C C V Z ^ ( / Q / ' ] ` ",
"C C C C C C C C C C C C C ^ ( :.n . M._.&.  b s > > d N C C C C C C C C C Z / ( Q Q Q Q Q ",
"C C C C C C C C C C C C C Z / ` q   H J 7   b C C C C C C C C C C C C C C C ^ ^ Q C E C E ",
"C C C C C C C C C C C C C C Z Z d   , 8 - o N C C C C C C C C C C C C C C Z Z Z C C C C C ",
"C C C C C C C C C C C C C C C Z C l > X # l V C C C C C C C C C C C C C C C C C C C C C C ",
"C C C C C C C C C C C C C C C C C C C N N C C C C C C C C C N C C C C C C C C C C C C C V "
};
