/* XPM */
static char *result[] = {
/* columns rows colors chars-per-pixel */
"45 45 176 2 ",
"   c #010202",
".  c #0E0A06",
"X  c #040709",
"o  c #050A0C",
"O  c #150F06",
"+  c #14110F",
"@  c #060E12",
"#  c #090E10",
"$  c #091115",
"%  c #0A1419",
"&  c #0B1619",
"*  c #141B1C",
"=  c #1A1918",
"-  c #24201C",
";  c #382B16",
":  c #0E1B21",
">  c #131E23",
",  c #1A2426",
"<  c #14242B",
"1  c #17282F",
"2  c #1B2B2D",
"3  c #1A2C34",
"4  c #1C2F38",
"5  c #1D313A",
"6  c #222223",
"7  c #27292A",
"8  c #332F2B",
"9  c #38322D",
"0  c #212C30",
"q  c #263136",
"w  c #20353F",
"e  c #2A383C",
"r  c #323434",
"t  c #3B3E3D",
"y  c #46371D",
"u  c #4C3C20",
"i  c #423C36",
"p  c #534223",
"a  c #6A542E",
"s  c #6D5630",
"d  c #243B45",
"f  c #253B46",
"g  c #2D3D42",
"h  c #263E49",
"j  c #303D43",
"k  c #27404B",
"l  c #29414B",
"z  c #35444A",
"x  c #394648",
"c  c #2B4652",
"v  c #2E4A56",
"b  c #2F4C58",
"n  c #324D55",
"m  c #3C4C52",
"M  c #314D5A",
"N  c #33515F",
"B  c #3B585B",
"V  c #355462",
"C  c #395666",
"Z  c #395965",
"A  c #3A5B6A",
"S  c #3E606C",
"D  c #4E4741",
"F  c #494644",
"G  c #464A49",
"H  c #4B4C4C",
"J  c #544D46",
"K  c #5D544C",
"L  c #4E5152",
"P  c #42535B",
"I  c #595856",
"U  c #61584F",
"Y  c #645B52",
"T  c #665F58",
"R  c #6D635A",
"E  c #71665D",
"W  c #455C66",
"Q  c #4B5D65",
"!  c #525F65",
"~  c #42646E",
"^  c #48666B",
"/  c #5F6463",
"(  c #52656D",
")  c #446670",
"_  c #466971",
"`  c #4A6C73",
"'  c #526771",
"]  c #576C75",
"[  c #4E7276",
"{  c #507476",
"}  c #517678",
"|  c #5B727B",
" . c #557A7A",
".. c #587E7D",
"X. c #626666",
"o. c #696A6A",
"O. c #747676",
"+. c #86796E",
"@. c #8B7E73",
"#. c #5A817E",
"$. c #8F8276",
"%. c #918377",
"&. c #938679",
"*. c #998B7E",
"=. c #5F7781",
"-. c #637C87",
";. c #5D8581",
":. c #638C85",
">. c #69828D",
",. c #7C8281",
"<. c #6D8894",
"1. c #728F9B",
"2. c #6A9A92",
"3. c #74909C",
"4. c #7997A3",
"5. c #7E9DAA",
"6. c #7CB2AA",
"7. c #888B8B",
"8. c #9E8F82",
"9. c #999896",
"0. c #9C9E9E",
"q. c #A29386",
"w. c #A69689",
"e. c #A7988A",
"r. c #AC9C8D",
"t. c #B2A293",
"y. c #B7A798",
"u. c #B8A798",
"i. c #BCAB9B",
"p. c #809FAD",
"a. c #81A1AE",
"s. c #9FA6A5",
"d. c #85A5B3",
"f. c #88A8B7",
"g. c #8CAEBC",
"h. c #8EB0BF",
"j. c #A6ADAD",
"k. c #A8A8A8",
"l. c #ABB3B2",
"z. c #BBBBBB",
"x. c #C0AF9F",
"c. c #C4B3A2",
"v. c #C9B6A6",
"b. c #CBB9A8",
"n. c #D1BEAD",
"m. c #C1BFBC",
"M. c #D4C1AF",
"N. c #D7C3B1",
"B. c #D9C6B4",
"V. c #DCC8B6",
"C. c #8FB2C1",
"Z. c #92B5C4",
"A. c #98BCCC",
"S. c #97D8CE",
"D. c #9EC4D4",
"F. c #BEC6C6",
"G. c #A1C7D8",
"H. c #A3CBDC",
"J. c #9DE1D7",
"K. c #A7CFE0",
"L. c #AAD3E4",
"P. c #AED7E9",
"I. c #AFD9EA",
"U. c #B0DAEC",
"Y. c #C3C3C3",
"T. c #C6CACA",
"R. c #C9D1D0",
"E. c #D5DEDD",
"W. c #D9E2E1",
"Q. c #E4EBEA",
"!. c #EFEFEF",
"~. c #E6F0EF",
"^. c #EEF8F7",
"/. c #EFF9F8",
"(. c #F2F7F6",
"). c #FFFFFF",
/* pixels */
"A ~ ) ) ) ) S S A A A A A A A A A A A A A A A A A A A A A A A A A A A A A A A A A A A A A ",
"S _ {  . .{ [ S A A A A A A A A A A A A V h h A A Z A A A A A A A A A Z A A A A A A A A A ",
"S [ ..;.;.#.{ S A C A A A A A A A A A c %   @ V A A A A A A A A A A A A A A A A A A A A A ",
"~ [ ;.:.:.;.} ~ C A A A A A A A A C 3 @ <.| $ V A A A A A A A A A A A A A A A A A A A A A ",
"~ [ #.:.:.;.{ W A A A A A A A C N : q Z.U.5.  V A A A Z A A A A A A A A A S S A A A A A A ",
"S `  .;.;.#.` ~ A W A A A A A M @ W D.U.U.a.  N A A A A A A A A A Z Z Z B B n Z A A A A A ",
"A _ ` }  .{ ` ) ) ) A C C A M @ ' L.I.U.U.Z.  v A A A A A A N h 1 $ # , q ,   3 A A A A A ",
"A S ) ` } { ` _ _ ) S A C V % Q K.I.U.U.U.G.> f A A A M f :   C 4.C.D.K.H.P * n Z A A A A ",
"A A _ { #. .[ _ ~ ~ A A C < g H.U.U.U.U.U.I.j 3 V h : & Q 5.D.I.U.U.I.P.! & ^ A C A A A A ",
"A A )  .;.=.[ S A A A A v   d.U.U.U.U.U.U.U.'   X m 5.D.I.U.U.U.U.U.U.1.X W ` A C C A A A ",
"A A S [  . .` S A Z A A 3 j L.U.U.U.I.I.U.U.5.e f.I.I.U.U.U.U.U.U.U.Z.# l ` ^ A A A A A A ",
"A A A ) ` ` ) A C A A M X x -.| ' 3.K.U.U.U.K.K.I.I.I.U.U.U.U.U.U.G.e 1 ~ _ ^ A C C A A A ",
"A A A S S S A A A A h o K t.v.n.n.t.L Z.I.U.U.U.U.U.U.U.U.U.U.U.L.Q & V S _ S A A C A A A ",
"A A A A A A A A V 1 - *.N.V.V.V.V.V.b.F Z.I.U.U.U.U.U.U.U.U.U.I.-.X M A S S S A A A A A A ",
"A A A A A A A Z < 8 t.B.V.V.V.V.V.V.V.b.J Z.U.U.U.U.U.U.U.U.U.d.o 1 b V A A A A A A A A A ",
"A A A A A A A k   D E t.V.V.V.V.V.V.V.V.c.x H.U.U.U.U.U.U.U.U.=.Q m w   % w c V A A A A A ",
"A A A A A V h & U n.N.c.r.@.T Y t.V.V.V.V.e.| U.U.U.U.U.U.U.U.U.U.P.L.H.f.-.q o < k Z A A ",
"A A A A C : G | ] ( | >.5.D.H.3.Y B.V.V.V.n.F H.U.U.U.U.U.U.U.U.U.U.U.U.U.U.L.Z.P   f A A ",
"A A A A V   -.L.G.A.A.h.3.] I +.v.V.V.V.V.V.J G.U.U.U.U.U.U.U.U.U.U.U.U.U.U.Z.Q o 3 V A A ",
"A A A A A h   H 0.0.k.z.R.H i.V.V.V.V.V.V.V.E g.U.U.U.U.U.U.U.U.U.U.U.U.H.-.  4 V A A A A ",
"A A A A A v   Y.!.).).).).z.$.V.V.V.V.V.V.V.*.p.U.U.U.U.U.U.U.U.U.U.P.5.4 : v A A A A A A ",
"A A A A A c   O.9 (.).).).Y.@.V.V.V.V.V.V.V.*.4.P.U.U.U.U.U.U.U.P.1.z X f Z A A Z A A A A ",
"A C A A A v   7.Q.).).).!.T i.V.V.V.V.V.V.r.Y o.! Z.U.U.U.U.U.U.U.g.m @ c A A A A A A A A ",
"A A A A C 1 9 @.o.k.m.z.I r.V.V.V.V.V.V.V.B.V.V.i.G P.U.U.U.U.U.U.U.L.-.X f Z A A A A A A ",
"A A A A b   e.b.c.x.t.t.i.x.w.N.V.V.V.V.V.V.V.V.t.' U.U.U.U.U.U.U.U.U.I.d.  w A A A A A A ",
"A A A A c X i o r.V.V.V.q.*.t.B.V.V.V.V.V.V.b.q.H A.U.U.U.U.U.U.U.I.U.U.I.5.  5 Z A A A A ",
"A A A A A c h X +.V.V.V.V.V.V.V.V.V.V.V.V.n.+.j K.U.U.U.U.U.U.D.d.Z.Z.d.5.C.=.  3 A A A A ",
"A S S S S W A 3 i e.q.w.u.c.M.&.y.V.V.V.V.V.x.P U.U.U.U.U.U.U.D.z   @ > 1 : X X 3 A A A A ",
"S ) [ [ [ ) A b   Y u.t.8.@.@.%.&.V.V.V.V.V.&.4.U.U.U.U.U.U.U.U.C.  h A A A A Z A A A A A ",
"S [  .=.} _ A A 4 - u.V.V.V.V.n.B.V.V.V.V.b.x K.U.U.H.p.K.U.U.U.P.3 4 C A A A A A A A A A ",
"S [ ..;. ._ A A C 4 + &.n.V.V.V.V.V.V.N.r.J G <.A.P.p.  > =.4.C.K.=.@ V A A A A A A A A A ",
"S ` {  .{ ) A W ) ~ l @ 7 E 8.u.u.8.+.D   F.~.j.0 I W   d h 3 $ > q   h A A A A A A A A A ",
"A S ` [ [ _ S ~ _ _ S V v f & X :.X.W.E.t R./.Q.r !.D o V A A Z b k d V A A A A A A A A A ",
"A S S [ } { [ ) _ ~ W A A A f o S.j W.F.= E./.^.#.R.O.% Z A A A A A A A S S S S A A A A A ",
"A A ) { #.#.{ ~ S A A A A A 4 , J.6.X.9.L E./.^.s.j.j.X V Z A A A A A A S ` [ S S S A S A ",
"A S S } #.#.[ ) Z Z A A A A 2 2 2.2.t #.t l.F.l.,.0.E.  c A A A A A A S S [ ;.} [ S S S S ",
"A A S [ } } ` A Z A A A A A N 5 1   y p   +.r.y.R T.~.G 3 A A A A A A S _ =.;. .[ _ ` ` [ ",
"A A S S _ S S A Z A A A A S ) _ ~ @ ; s O K N.c.8 W./.7.X Z A A A A A S S } #. .` `  .#.=.",
"A A A A S A A A A A A A S S ` }  .g O a s y i = X r o./   v Z Z A A A A S } } [ _ [ #.;.} ",
"A A A A A A A A A A A A S S [ #...B   u p u . 4 V b k 4 3 V A A A A A A S S ` _ ) _ } } [ ",
"A A A A A A A A A A A A A S [ ;. .n   7.M.9.  5 A A A A A A A A A A A A A S ) _ ) S ^ _ ~ ",
"A A A A A A A A A A A A A S _ S q   + F I x   > A A A A A A A A A A A A A S ) ) ~ A A A S ",
"A A A A A A A A A A A A A A S k   * , < > 6 . 1 A A A A A A A A A A A A A S S S A A A A A ",
"A A A A A A A A A A A A A A A N < : : < 3 > 3 N A A A A A A A A A A A A A Z A A A A A A A ",
"A A Z A A A A A A A A A A A A A A A A A A Z A A A A A A A A A A A A A A A A A A A A A A A "
};
