/* XPM */
static char *result[] = {
/* columns rows colors chars-per-pixel */
"45 45 181 2 ",
"   c #010202",
".  c #0D0905",
"X  c #040708",
"o  c #040A0D",
"O  c #090A0A",
"+  c #100E0C",
"@  c #181208",
"#  c #060D12",
"$  c #071015",
"%  c #0B1317",
"&  c #0A151A",
"*  c #0C181E",
"=  c #121213",
"-  c #1A1715",
";  c #101619",
":  c #131B1D",
">  c #1B1C1C",
",  c #231F1C",
"<  c #2E2311",
"1  c #342917",
"2  c #0F1C22",
"3  c #111E24",
"4  c #122027",
"5  c #1B2225",
"6  c #14242B",
"7  c #1D272B",
"8  c #17282F",
"9  c #172930",
"0  c #1A2C34",
"q  c #1E323B",
"w  c #242425",
"e  c #2D2925",
"r  c #2A2A2A",
"t  c #302F2F",
"y  c #39332D",
"u  c #292E32",
"i  c #2A3437",
"p  c #20343C",
"a  c #393A39",
"s  c #45361C",
"d  c #4A3A1F",
"f  c #2B403D",
"g  c #584626",
"h  c #6B542F",
"j  c #233A44",
"k  c #283B43",
"l  c #273F4A",
"z  c #303E43",
"x  c #27404B",
"c  c #29434D",
"v  c #334348",
"b  c #2B4551",
"n  c #2E4855",
"m  c #2F4B59",
"M  c #304A53",
"N  c #3B4B52",
"B  c #314E5B",
"V  c #33515E",
"C  c #38565E",
"Z  c #365563",
"A  c #395765",
"S  c #395966",
"D  c #395768",
"F  c #3A5B6A",
"G  c #3E606C",
"H  c #424443",
"J  c #4B4A48",
"K  c #534C46",
"L  c #56504A",
"P  c #5C534B",
"I  c #424C50",
"U  c #43555C",
"Y  c #565653",
"T  c #655C54",
"R  c #685E56",
"E  c #42625E",
"W  c #6A635D",
"Q  c #73685E",
"!  c #485D65",
"~  c #42646E",
"^  c #4E626A",
"/  c #47686F",
"(  c #55646B",
")  c #446670",
"_  c #466971",
"`  c #4A6D73",
"'  c #556A73",
"]  c #596F79",
"[  c #4E7275",
"{  c #507476",
"}  c #517678",
"|  c #5A717B",
" . c #557A7A",
".. c #587E7D",
"X. c #6B6864",
"o. c #756B61",
"O. c #7C7167",
"+. c #6C6F71",
"@. c #697173",
"#. c #63747C",
"$. c #747371",
"%. c #82766B",
"&. c #85796E",
"*. c #8B7E72",
"=. c #5A817E",
"-. c #8E8175",
";. c #908377",
":. c #94867A",
">. c #96887B",
",. c #988A7D",
"<. c #5F7781",
"1. c #627B86",
"2. c #687980",
"3. c #667F89",
"4. c #5E8581",
"5. c #638C85",
"6. c #67818B",
"7. c #67878C",
"8. c #7D8382",
"9. c #63908A",
"0. c #6E8995",
"q. c #718D99",
"w. c #75919E",
"e. c #7794A0",
"r. c #7D9CA9",
"t. c #858786",
"y. c #9C8E81",
"u. c #8A908F",
"i. c #9F9083",
"p. c #8B9191",
"a. c #959797",
"s. c #A49587",
"d. c #AB9B8D",
"f. c #B3A293",
"g. c #BCAB9B",
"h. c #81A1AE",
"j. c #9DA3A3",
"k. c #84A4B2",
"l. c #88A9B7",
"z. c #8BADBB",
"x. c #8EB1BF",
"c. c #A9ABAA",
"v. c #AAB2B1",
"b. c #B3B3B3",
"n. c #B5BDBC",
"m. c gray74",
"M. c #C1AF9F",
"N. c #C2B1A1",
"B. c #C9B6A6",
"V. c #CDBAA9",
"C. c #D2BFAE",
"Z. c #C0BEBB",
"A. c #D3C0AF",
"S. c #D6C2B1",
"D. c #DAC6B4",
"F. c #DCC8B6",
"G. c #8FB2C1",
"H. c #92B5C4",
"J. c #95BAC9",
"K. c #98BCCC",
"L. c #9DC3D3",
"P. c #BCC4C4",
"I. c #A0C7D7",
"U. c #A1C7D8",
"Y. c #A4CBDC",
"T. c #A7CFE0",
"R. c #AAD2E4",
"E. c #ADD7E9",
"W. c #AFD9EA",
"Q. c #B0DAEC",
"!. c #C4CCCC",
"~. c #D4DDDC",
"^. c #D8D8D8",
"/. c #DCE6E5",
"(. c #ECECEC",
"). c #EDF7F6",
"_. c #EEF8F7",
"`. c #EFF9F8",
"'. c #F6F6F6",
"]. c #F0FAF9",
"[. c #FEFEFE",
/* pixels */
"F ~ ) ) ) ) G G F F F F F F F F F F F F F F F F F F F F F F F F F F F F F F F F F F F F F ",
"G _ {  . .{ [ G F F F F F F F F F F F F F b 3 j F F F F F F F F F F F F F F F F F F F F F ",
"G [ ..4.4.=.{ G F F F F F F F F F F F B 9 7 & 9 F F F F F F F S F F F F F F F F F S D F F ",
"~ [ 4.5.9.4.{ ~ D D F F F F F F F D l o ] Y.N 0 F F F F F F F F F F F S F F F F F F F F F ",
"~ [ =.5.5.4.{ ! D F F F F F F F D q 3 h.E.Q.^ 6 F F F F F F F F S G F G G G G G F S F F F ",
"G `  .4.4...` ~ F ! F F F F F A 6 k H.Q.Q.Q.^ 4 F F F F F F F F S G S G G S C C G F F F F ",
"F _ ` }  .{ ` ~ ) ) F S D F A 3 N U.Q.Q.Q.Q.6.% D F F F F F Z n q 4 & : 5 u   X V F F F F ",
"F G ) ` } { ` _ ` _ F D D F 9 z L.Q.Q.Q.Q.Q.k.X Z F F V l 9 X v 0.z.L.Y.T.r.; p D S F F F ",
"F F _ { .. .[ _ ~ ! F F F l ; J.Q.Q.Q.Q.Q.W.G.  n l 6 3 ! r.K.Q.Q.Q.Q.Q.H.; b G D D F F F ",
"F F ) } 4.=.[ ~ F F F F A * ] Q.Q.Q.Q.Q.Q.W.Y.    ! r.Y.Q.Q.Q.Q.Q.Q.Q.L.u x / ! D D F F F ",
"F F ) [  . .` G S F F F b   x.U.Y.T.Q.Q.Q.Q.R.N k.W.Q.Q.Q.Q.Q.Q.Q.Q.R.U 6 / / F D F F F F ",
"F F F ) ` ` ~ F D F S m & e O.*.*.o.6.R.Q.Q.W.E.W.Q.Q.Q.Q.Q.Q.Q.Q.W.1.$ C ` / F D D F F F ",
"F F F G G F F F F Z 0 X *.C.F.F.D.F.d.! T.W.W.Q.Q.Q.Q.Q.Q.Q.Q.Q.W.w.  M G ` G F D D F F F ",
"F F F F F F F F Z 2 J g.D.D.F.F.D.F.F.f.( R.Q.Q.Q.Q.Q.Q.Q.Q.Q.Q.l.  c F G G G F F F F F F ",
"F F F F F F F F 6 O &.y.D.F.F.F.F.F.F.F.s.] Q.Q.Q.Q.Q.Q.Q.Q.Q.K.7 3 m A F F F F F F F F F ",
"F F F F F F S c   i.N.C.F.C.C.B.S.F.F.F.D.*.r.Q.Q.Q.Q.Q.Q.Q.Q.e.^ ! k   4 j m F F F F F F ",
"F F F F F n # : e :.>.-.W #.q.7.P D.D.F.F.V.I R.Q.Q.Q.Q.Q.Q.Q.Q.Q.Q.E.Y.z.| 5 * p m F F F ",
"F F F F F 4 ' U.L.L.L.U.Y.I.G.q.R D.F.F.F.F.T K.Q.Q.Q.Q.Q.Q.Q.Q.Q.Q.W.W.Q.Q.T.G.U   b F F ",
"F F F F F j : 2.2.2.#.@.+.w ,.N.D.F.F.F.F.F.%.G.Q.Q.Q.Q.Q.Q.Q.Q.Q.Q.Q.W.Q.Q.U.1.3 6 m F F ",
"F F F F F S # t.'.'.'.[.[.b.>.F.F.F.F.F.F.F.y.k.Q.Q.Q.Q.Q.Q.Q.Q.Q.Q.Q.W.R.q.5 8 m F F F F ",
"F F F F F V   c.a.'.[.[.[.^.o.F.F.F.F.F.F.F.s.r.Q.Q.Q.Q.Q.Q.Q.Q.W.Q.E.l.z 2 n F F F F S F ",
"F F F F F Z   a.b.'.[.[.[.b.>.D.F.F.F.F.F.D.:.q.R.Q.Q.Q.Q.Q.Q.Q.W.e.N # l A F F F F F F F ",
"F F F F F c   L m.(.[.[.m.T C.F.F.F.F.F.F.f.*.y.Y z.Q.Q.Q.Q.Q.Q.W.l.v 2 V F F F F F F F F ",
"F F F F Z # &.S.s.%.W W s.A.F.F.F.F.F.F.F.F.F.F.g.' Q.Q.Q.Q.Q.Q.W.W.T.' # m F F F F F F F ",
"F D F F b o *.X.f.F.F.F.>.Q %.F.F.F.F.F.F.F.F.F.>.e.Q.Q.Q.Q.Q.Q.Q.Q.Q.E.1.o B F D F F F F ",
"F F F F Z 9 3   d.D.F.F.A.S.F.F.F.F.F.F.F.S.d.o.3.R.Q.Q.Q.Q.Q.Q.Q.Q.Q.Q.R.] $ B F F F F F ",
"F F F G F F F $ O.D.S.D.F.F.F.C.D.F.F.F.F.S.*.e.Q.Q.Q.Q.Q.Q.Q.J.z.J.K.G.H.J.^ $ B F F F F ",
"F G G G ) G F j + T O.Q o.*.M.P f.F.F.F.F.D.y.h.Q.Q.Q.Q.Q.Q.Q.z.3 X & 6 4 X     b F F F F ",
"F _ [ { ` ) F Z o %.D.D.D.N.B.&.V.F.F.F.F.S.K L.Q.Q.Q.Q.Q.Q.Q.Q.6.o Z S F Z Z Z F F F F F ",
"~ `  .=. ._ F F c O ;.D.D.F.F.F.F.F.F.F.D.*.q.W.Q.Q.z.h.R.Q.Q.Q.x.  m S F F F F F F F F F ",
") ` ..=. ._ F F F M $ P d.C.D.F.F.D.C.f.T H @.1.K.E.N   i 2.k.K.L.$ j D F F F F F F F F F ",
"G ` }  .[ ~ F ! ~ ~ A j & , L T Q K 8.v.n.u._.~.c.( : & n x 0 # x 2 2 F F F F F F F F F F ",
"F ) _ ` [ _ ~ ~ ` ~ ~ A S B * 9.5.8._._.n.j.`.`.`.~.a f 2 Z F S n j c F F F F F F F F F F ",
"F G ) [ } } ` / _ ~ F S F S 3 9.E ~._._.j.P.`.`.`./.Y !.> 0 S F S F F F G G G G G F F F F ",
"F F ) [ =...{ ) G F F F F S * f 8._.`.`.+.~.`.`.].].+.K :.  b F F F F F G ` [ G G G G G F ",
"F F ) { =.=.[ ) S F F F F A 3   Y p.c.P.J ).`.`.].].v.-.F.y q F F F F G G [ 4.} _ G G G G ",
"F F G [ } [ ` F S F F F F S & e N.A.g.y J P.`.]._.].^.- R - j F F F F G ` <.4. .[ _ _ _ [ ",
"F F G G ) ) G F F F F F F F 8   ,.g.Q < < 1 Y a.n.~./.v = $ A F F F F G _ } =. .` ` =.=.<.",
"F F F F F F F F F F F F F A   s d d g g   . 1 @ $.t t =   c F F F F F F G [ } [ _ [ =.4.} ",
"F F F F F F F F S F F F S b   1 g h d . j b q 6 # O t = * S F F F F F F G G _ _ ~ ` } } [ ",
"F F F F S F S F F F Z 0 #   r Z.c.y   l F D F F l   w   x F F F F F F F G G ` ` ~ G / / ~ ",
"F F F F F F F F F S 2 X w u w > Y r 2 D D F F F D 2   2 Z F D F F F F S F G G ~ ~ F F F F ",
"F F F F F F F F F S j &   X = 3 5   l F F F F F F D V Z F F D F F F F F F G G G F F F F F ",
"F F F F F F F F F F F S Z B v p 2 q Z F F F F F F F F F F F F F F F F F F F F F F F F F F ",
"F F F F F F F F F F F F F F F F F F F F F F F F F F F F F F F F F F F F F F F F F F F F F "
};
