/* XPM */
static char *f4241dd35b0b42148b08e1c786f69345zfLnz7xNEGZaHey5[] = {
/* columns rows colors chars-per-pixel */
"45 45 178 2 ",
"   c #010202",
".  c #04090C",
"X  c #0B0A0A",
"o  c #161006",
"O  c #0A1215",
"+  c #0A1519",
"@  c #0D191E",
"#  c #151516",
"$  c #181513",
"%  c #131A1C",
"&  c #1B1B1C",
"*  c #261D0D",
"=  c #231F1B",
"-  c #27221E",
";  c #372E1F",
":  c #3E3019",
">  c #0E1B21",
",  c #141E22",
"<  c #1A2325",
"1  c #14242B",
"2  c #1B2A2D",
"3  c #1A2C33",
"4  c #1C2F38",
"5  c #1E313A",
"6  c #222223",
"7  c #2E2924",
"8  c #262828",
"9  c #2B2B2B",
"0  c #343129",
"q  c #212B30",
"w  c #27353B",
"e  c #20343C",
"r  c #2A363B",
"t  c #373A3A",
"y  c #3C3D3D",
"u  c #44351C",
"i  c #594626",
"p  c #4A423C",
"a  c #624E2A",
"s  c #6C552F",
"d  c #213741",
"f  c #233A45",
"g  c #263E49",
"h  c #303D43",
"j  c #27404B",
"k  c #29424D",
"l  c #334344",
"z  c #384347",
"x  c #3A474C",
"c  c #2C4652",
"v  c #2E4955",
"b  c #2F4A58",
"n  c #3C4C53",
"m  c #324E5B",
"M  c #35525F",
"N  c #3C5358",
"B  c #365563",
"V  c #395767",
"C  c #395966",
"Z  c #3A5B6A",
"A  c #3E606C",
"S  c #434342",
"D  c #464A47",
"F  c #4C4D4C",
"G  c #544D45",
"H  c #584F48",
"J  c #55504A",
"K  c #5D544C",
"L  c #444E52",
"P  c #44555D",
"I  c #545655",
"U  c #575B5B",
"Y  c #5A5E5D",
"T  c #61574F",
"R  c #655C55",
"E  c #69625A",
"W  c #74695F",
"Q  c #445C65",
"!  c #495C64",
"~  c #585F61",
"^  c #42646E",
"/  c #4B696E",
"(  c #5D6060",
")  c #52646D",
"_  c #4E736E",
"`  c #456670",
"'  c #466971",
"]  c #4A6C73",
"[  c #546973",
"{  c #4E7275",
"}  c #507476",
"|  c #517678",
" . c #5C737D",
".. c #557A7A",
"X. c #587E7D",
"o. c #646767",
"O. c #6A6C6A",
"+. c #756A61",
"@. c #796E63",
"#. c #7F7368",
"$. c #6D7171",
"%. c #757877",
"&. c #81756A",
"*. c #867A6E",
"=. c #8B7E72",
"-. c #5A817E",
";. c #8D8074",
":. c #93867A",
">. c #998B7E",
",. c #5F7882",
"<. c #627A85",
"1. c #5E8581",
"2. c #638C85",
"3. c #69838E",
"4. c #7D8382",
"5. c #6E8995",
"6. c #728E9A",
"7. c #75929E",
"8. c #71A39B",
"9. c #7693A0",
"0. c #7996A3",
"q. c #7A98A5",
"w. c #878B8B",
"e. c #9F9083",
"r. c #8C9292",
"t. c #989D9C",
"y. c #A29386",
"u. c #A7988A",
"i. c #AA9B8D",
"p. c #B3A394",
"a. c #BCAB9B",
"s. c #809FAD",
"d. c #82A1AF",
"f. c #9CA3A3",
"g. c #85A5B3",
"h. c #88A9B7",
"j. c #8AACBA",
"k. c #8EB0BF",
"l. c #A6A8A7",
"z. c #A5ACAC",
"x. c #AFB6B5",
"c. c #B5B9B8",
"v. c #C0AF9F",
"b. c #C4B2A2",
"n. c #C8B6A5",
"m. c #CEBBAA",
"M. c #D2BEAD",
"N. c #B8C0BF",
"B. c #D4C0AF",
"V. c #D5C2B1",
"C. c #D9C6B4",
"Z. c #DCC8B6",
"A. c #8FB2C1",
"S. c #92B5C4",
"D. c #97BBCB",
"F. c #98BDCD",
"G. c #90CFC6",
"H. c #9DC2D3",
"J. c #9BDFD5",
"K. c #BFC7C7",
"L. c #A0C6D6",
"P. c #A4CCDC",
"I. c #A7CFE0",
"U. c #ABD3E5",
"Y. c #ADD7E8",
"T. c #AFD8EA",
"R. c #AFD9EA",
"E. c #B0DAEC",
"W. c #B0DAED",
"Q. c #C7C7C7",
"!. c gray80",
"~. c #D7DADA",
"^. c #DCE5E4",
"/. c #E4EAEA",
"(. c #EBF5F4",
"). c #EFF9F8",
"_. c gray94",
"`. c #FEFEFE",
/* pixels */
"Z ^ ` ` ` ` A A Z Z Z Z Z Z Z Z Z Z Z Z Z Z Z Z Z Z Z Z Z V Z Z Z Z Z Z Z Z Z Z Z Z Z Z Z ",
"A ' } ....} { A Z Z Z Z Z Z Z Z Z Z Z B 4 , m Z Z Z Z Z Z Z Z Z Z Z Z Z Z Z Z Z Z Z Z Z Z ",
"A { X.1.1.-.} A Z V Z Z Z Z Z Z Z Z b + O   c Z Z Z Z Z Z Z Z Z Z Z Z Z Z Z Z Z Z Z Z Z Z ",
"^ { 1.2.2.1...A V Z Z Z Z Z Z Z B d O <.A.. g Z Z Z Z Z Z Z Z Z Z Z Z Z Z Z Z Z Z Z Z Z Z ",
"A { 1.2.2.1.} Q V V Z Z Z Z Z V 3 , h.R.R., 5 Z Z Z Z Z Z Z Z Z Z Z Z Z ^ Z Z ^ Z Z V Z Z ",
"A ] ..1.1.X.] ^ A Q Z Z Z Z B , d S.W.W.R.8 4 Z Z Z Z Z Z Z V B v g w 5 2 < 2 C Z Z Z Z Z ",
"A ` ] | ..} ] ` ` ` Z V Z B 1 r H.W.W.W.W.Q < Z Z Z Z Z B k 1 . w } 5.q.5.  + C Z Z Z Z Z ",
"Z Z ` ] | } ] ' ` ` Z Z Z 4 , F.W.W.W.W.W.q.  B Z B k 2   v 6.D.R.R.R.P.x 2 / ^ Z V Z Z Z ",
"Z A ` } X...{ ' ^ Q Z Z c   g.R.E.E.E.W.W.k.  g 4 . h 6.F.Y.W.W.W.W.R. .O _ { Z V Z Z Z Z ",
"Z Z ` | -.1.{ ^ Z Z Z Z 1 x U.R.E.E.E.W.W.L.%   ) A.Y.R.R.R.W.R.W.W.d.  N { / ^ V V Z Z Z ",
"Z Z ` { ....] A V Z Z m   q.R.U.Y.E.W.W.W.U./ g.Y.R.W.W.W.W.R.W.W.H.% w ^ ] ` Z V Z Z Z Z ",
"Z Z Z ` ] ] ^ Z V Z Z 5   L ~ E ( <.L.E.E.E.R.E.R.R.W.R.W.W.R.W.U.! % C ^ ] ^ Z V V Z Z Z ",
"Z Z Z A A Z Z Z Z m 1 7 e.M.Z.Z.Z.p.D F.R.W.W.E.E.E.R.E.W.W.W.R.<.. m Z A ' A Z V Z Z Z Z ",
"Z Z Z Z Z Z Z Z c . R n.Z.Z.Z.Z.Z.Z.n.D S.R.W.W.E.E.W.E.W.W.W.j.  c Z Z A A A Z Z Z Z Z Z ",
"Z Z Z Z Z Z Z m   K a.V.Z.Z.Z.Z.Z.Z.Z.n.G D.E.E.E.E.E.E.W.W.P.q   > 3 d m B Z Z Z Z Z Z Z ",
"Z Z Z Z Z Z Z 3 9 +.>.n.Z.Z.M.V.Z.Z.Z.Z.v.x I.E.E.E.W.W.W.W.U.j.A.0.0. .h . 1 g v V Z Z Z ",
"Z Z Z Z Z b q   *.n.v.i.*.I ) F p.Z.Z.Z.Z.:.7.W.W.W.R.W.W.E.E.E.E.E.E.W.U.F.q.) . , B Z Z ",
"Z Z Z Z B   ,.3.<.<.7.g.F.P.D.[ :.Z.Z.Z.Z.b.N R.W.W.E.E.E.E.E.E.E.E.E.R.W.W.P.5.% @ B Z Z ",
"Z Z Z Z m   6.S.k.k.h.5.P y =.a.C.Z.Z.Z.Z.M.p P.W.E.E.E.E.E.E.E.E.E.E.W.Y.g.w @ c V Z Z Z ",
"Z Z Z Z Z d   =.Q.Q.!.~./.I b.Z.Z.Z.Z.Z.Z.Z.p L.W.E.E.E.E.E.E.E.E.E.E.L.)   f V Z Z Z Z Z ",
"Z Z V Z Z k   ~.~.`.`.`.`.x.e.Z.Z.Z.Z.Z.Z.Z.T D.E.E.E.E.E.E.E.E.Y.L.6., 1 m Z Z Z Z Z Z V ",
"Z Z Z Z Z g X <.o.`.`.`.`.l.y.Z.Z.Z.Z.Z.Z.M.G 0.H.R.E.E.E.E.E.E.L.h   1 V Z Z Z Z Z Z Z Z ",
"Z Z Z Z Z c   w._.`.`.`.!.G M.C.Z.Z.Z.Z.Z.u.y.u.E d.E.E.E.E.E.E.W.U.9.+ 3 B Z Z Z Z Z Z Z ",
"Z Z Z Z C @ G y.R w.t.=.W n.Z.C.Z.Z.Z.Z.Z.Z.Z.Z.p.[ R.E.E.E.E.E.W.W.W.F.l > B Z Z Z Z Z Z ",
"Z Z Z Z b . i.p.n.M.m.M.i.>.&.C.Z.Z.Z.Z.Z.Z.Z.C.&.q.E.E.E.E.E.E.W.W.W.W.L.n @ m C Z Z Z Z ",
"Z Z Z Z c   $   u.C.C.Z.p.v.B.C.Z.Z.Z.Z.Z.M.>.J 7.Y.E.E.E.E.E.E.Y.W.W.U.P.H.P + b Z Z Z Z ",
"Z Z Z A Z m v . @.C.C.C.Z.Z.Z.C.Z.Z.Z.Z.Z.C.y.P R.E.E.E.E.E.E.h.h N L w < h h   1 Z Z Z Z ",
"Z Z A A ` Z Z d - *.&.&.>.y.v.*.>.Z.Z.Z.Z.Z.i.X.W.E.E.E.E.E.E.E.<.  d b m m c c B Z Z Z Z ",
"Z ' { } ] ` Z B . K n.M.a.p.u.:.i.Z.Z.Z.Z.Z.+.k.E.E.R.U.E.E.E.E.H.  f V Z Z Z Z Z Z Z Z Z ",
"^ ] ..-...' Z V j X :.V.Z.Z.Z.Z.Z.Z.Z.Z.Z.i.x I.E.E.D.h 7.H.U.E.Y.Q 1 Z Z Z Z Z Z Z Z Z Z ",
"^ { X.-...' Z Z Z k . K p.B.Z.Z.Z.Z.V.a.+.I t O.<.k.7.  % . % L 5.]   v Z Z Z Z Z Z Z Z Z ",
"A ' | ..{ ` Z Q ^ ^ B 5 . 7 T =.@.R O.%.%.^.L ^.~.z.U   v Z M c 4 + . k Z Z Z Z Z Z Z Z Z ",
"Z ` ' { ] ' ^ ^ ] ` ^ C M @ 6 8 8.Y (.(.O.x.z.f.).)./.) @ B Z Z C Z B Z Z Z Z Z Z Z Z Z Z ",
"Z A ` ] | | { ` ` ^ Z C 3 # Q.z G._ N.t.w././.I ~.).(.N.  j Z Z Z Z Z Z A A A A Z Z Z Z Z ",
"Z Z ` } -.-.{ ` A Z Z 5 X E $.< J.G.z l.(.).).N.4.K.O.*.p 3 Z Z Z Z Z A A ' { ` A A Z A Z ",
"Z Z ` } -.-.{ ` C C C . = b.n.G l D 0 y K.).).).( #.n.Z.W @ C Z Z Z Z Z ' { ..| ] A ` A A ",
"Z Z A ] | | ] Z V Z Z d   i.p.H i s s a ; r.^.(.z.p ;.p.7 5 Z Z Z Z Z A ] ..1...{ ' ] { { ",
"Z Z A A ` ` A Z Z Z Z V 4 +   * s s s a * u ; %.t.r.w.U   v Z Z Z Z Z A ] | 1.| ] { | -.| ",
"Z Z Z Z Z Z Z Z Z Z V k 5 2 X D : a i o * a s s : p %.&   + m Z Z Z Z Z A { { { ' { ,.1...",
"Z Z Z Z Z Z Z Z Z B O X & & - z.Q.S   3 3   : u O.c.S 8 8   j C Z Z Z Z A A ] ' ` ' | | { ",
"Z Z Z Z Z Z Z Z Z B +   # 6 8 < 9 X 3 V C v 3 + 6 & 9 6   3 B Z Z Z Z Z Z A ` ] ^ ^ ` ` ` ",
"Z Z Z Z Z Z Z Z Z Z V v d >   # # O M Z V Z Z m   6 6   d Z Z Z Z Z Z Z Z A ` ` ^ Z Z Z Z ",
"Z Z Z Z Z Z Z Z Z Z V Z Z Z M w 5 m Z Z Z Z Z m   #   5 B Z Z Z Z Z Z Z Z A A A Z C Z Z Z ",
"Z Z Z Z Z Z Z Z Z Z Z Z Z Z Z Z Z Z Z Z Z Z Z Z f > d Z Z Z Z Z Z Z Z Z Z C Z Z C Z Z Z Z ",
"Z Z Z V Z Z Z Z Z Z Z Z Z Z Z Z Z Z Z Z Z Z Z Z Z Z Z Z Z Z Z Z Z Z Z Z Z Z Z Z Z Z Z Z Z "
};
