/* XPM */
static char *_ce05fe749314c3fb78797d5a280d331cF4aolVlPO07LSiX[] = {
/* columns rows colors chars-per-pixel */
"45 45 216 2 ",
"   c #120112",
".  c #340710",
"X  c #251B2C",
"o  c #252638",
"O  c #352B33",
"+  c #4F0B0B",
"@  c #590813",
"#  c #591717",
"$  c #6F0909",
"%  c #6A1517",
"&  c #781812",
"*  c #4F261B",
"=  c #543719",
"-  c #672818",
";  c #782A11",
":  c #6B3816",
">  c #6B1A24",
",  c #532A3B",
"<  c #7B3622",
"1  c #6B2E3A",
"2  c #653538",
"3  c #714D1E",
"4  c #0B3359",
"5  c #333254",
"6  c #363966",
"7  c #4C3648",
"8  c #6B324C",
"9  c #37465A",
"0  c #144970",
"q  c #2B536A",
"w  c #3A5767",
"e  c #3A5867",
"r  c #3A5B6A",
"t  c #3E606C",
"y  c #494855",
"u  c #4D4C54",
"i  c #6C4B51",
"p  c #78695D",
"a  c #455B68",
"s  c #535C73",
"d  c #675B76",
"f  c #42636E",
"g  c #47686F",
"h  c #446670",
"j  c #466971",
"k  c #4A6C72",
"l  c #4E7276",
"z  c #507477",
"x  c #517678",
"c  c #557A7A",
"v  c #587E7D",
"b  c #64646B",
"n  c #696B75",
"m  c #960602",
"M  c #91140B",
"N  c #970811",
"B  c #881513",
"V  c #AD0C07",
"C  c #A8170F",
"Z  c #B7180D",
"A  c #A71C11",
"S  c #882D15",
"D  c #AD2B0E",
"F  c #BB3100",
"G  c #B32E17",
"H  c #863D28",
"J  c #94362E",
"K  c #B33D21",
"L  c #C0170D",
"P  c #E30000",
"I  c #CA2302",
"U  c #C4250C",
"Y  c #CC250C",
"T  c #D72808",
"R  c #C13400",
"E  c #CA3518",
"W  c #D83717",
"Q  c #E22504",
"!  c #CB3325",
"~  c #964317",
"^  c #8D5615",
"/  c #AF4D0D",
"(  c #996B04",
")  c #906315",
"_  c #B47D06",
"`  c #B67E15",
"'  c #864228",
"]  c #98472A",
"[  c #895D21",
"{  c #834B39",
"}  c #A84827",
"|  c #B54B25",
" . c #A7522F",
".. c #B8542D",
"X. c #A95331",
"o. c #B25831",
"O. c #8C6222",
"+. c #9B6925",
"@. c #997031",
"#. c #A36422",
"$. c #A97827",
"%. c #B27E28",
"&. c #AE7B36",
"*. c #D1450F",
"=. c #E04F15",
"-. c #C94824",
";. c #D54B25",
":. c #D4532A",
">. c #D6582D",
",. c #CA5930",
"<. c #D55D31",
"1. c #D95C33",
"2. c #D0642A",
"3. c #C86337",
"4. c #CD6335",
"5. c #D26536",
"6. c #D16638",
"7. c #D06838",
"8. c #E17C24",
"9. c #843357",
"0. c #895659",
"q. c #907255",
"w. c #AA734F",
"e. c #917171",
"r. c #C96A43",
"t. c #D26B51",
"y. c #D76465",
"u. c #D36F70",
"i. c #5A817E",
"p. c #BA821D",
"a. c #BA8426",
"s. c #B9883F",
"d. c #E19E12",
"f. c #C68C28",
"g. c #C58D2B",
"h. c #D59433",
"j. c #E08235",
"k. c #E2A127",
"l. c #E3A231",
"z. c #AD8349",
"x. c #B18B70",
"c. c #D09A4B",
"v. c #DFA34A",
"b. c #DFA656",
"n. c #E0A757",
"m. c #D28C75",
"M. c #DEA861",
"N. c #DEAA69",
"B. c #DAAC75",
"V. c #DDB17F",
"C. c #E0AB68",
"Z. c #0F518C",
"A. c #225E80",
"S. c #0D6795",
"D. c #2F708D",
"F. c #156AAA",
"G. c #1976B5",
"H. c #525980",
"J. c #4B768E",
"K. c #5A7586",
"L. c #747983",
"P. c #378DB1",
"I. c #3693B9",
"U. c #5D8581",
"Y. c #55839C",
"T. c #638C85",
"R. c #4A87A4",
"E. c #5F97B6",
"W. c #288CC5",
"Q. c #3197C6",
"!. c #339AC3",
"~. c #349CC8",
"^. c #38A1C9",
"/. c #79AFCD",
"(. c #858A95",
"). c #B69292",
"_. c #899CAC",
"`. c #87A0B3",
"'. c #9BA7B4",
"]. c #A3A3AB",
"[. c #A8ACB9",
"{. c #BBACB4",
"}. c #D09692",
"|. c #DCB489",
" X c #CEAA95",
".X c #DBB895",
"XX c #D3A7A9",
"oX c #D0ABAD",
"OX c #DBBCA5",
"+X c #C6B8BC",
"@X c #D6B7BB",
"#X c #D9C0AB",
"$X c #D9C5B6",
"%X c #D7C8BD",
"&X c #8FB7D0",
"*X c #AFB8C6",
"=X c #CABBC3",
"-X c #BDCAD8",
";X c #B6D1E6",
":X c #C7C0CE",
">X c #D6CBC4",
",X c #D3C9CB",
"<X c #D6D0CE",
"1X c #C7CDDA",
"2X c #D0C9D3",
"3X c #D0CEDA",
"4X c #CBD0DC",
"5X c #D5D4D5",
"6X c #D2D3DC",
"7X c #C6D7E7",
"8X c #CAD5E3",
"9X c #CBDBEB",
"0X c #D2DBE5",
"qX c #D2DCEA",
"wX c #C9DEF0",
"eX c #D2E2F2",
/* pixels */
"r f h h h h t t r r r r r r r r r r r r t r r q t r r r r r r r r r r r r r r r r r r r r ",
"t j z c c z l t r r r r r r r r r r r r t t 3 = = = [ a.+ +.r r r r r r r r r r r r r r r ",
"t l v U.U.i.l t e r r r r r r r r r r r O.3 t e r r a.' :.A @.r r r r r r r e r r r r r r ",
"f l U.T.T.U.c f r e r r r r r r B.c.c.e.x.g.N.t r r z.~ Y D a.r r r r r r r r r r r r r r ",
"t l i.T.T.U.z a e e r r r e b.|.5X'.R.&XE.p ;X.XV.r r g.3 %.r r r r r r t t r r r r r r q ",
"t k c U.U.v k f a r r r b..X,X0X<X5Xx.^ [ h.%X2X>X.X|.r r r r r r r t f g g f r r r r r t ",
"t h k x c z k g h g f b.%XqX<X|.B.#XC.l.l.l.k.k.n.>X%X|.r r r r r r f l x x l f r r r r r ",
"r t g k x z k h h g v.%XqX.XN.OX$X[.B.p.a.$.$.a.a.k.N.%X.Xz.r r r t g x i.i.l f e r r r r ",
"r r h z v v l g f b.>X0X.Xm.<X3Xx.$ O.: N ] ] N - $.p.b.$X|.t t h h h z K.K.l t e e r r r ",
"r r h x i.i.l f e N.0X Xx.3X6Xm.*.$ N | :.5.7.>.| N : p..X>Xd.x z k g k l l g t r r r r r ",
"r r h l v c l r b.<X1X( ).3Xm.2.;.-.,.5.5.7.7.7.7.:.Z : x.$X.Xi.T.l g f k l f r e r r r r ",
"r r t h k j f r b.8Xn e.6X=X2.7.5.4.7.7.7.7.7.7.7.7.:.C 3 #X$Xx.v x f f g g g r q e r r r ",
"r r r r t t r r M.1X% u.6Xm.7.7.7.4.7.7.7.7.7.7.7.7.5.I 3 ].$Xi.z k a r f h h r e e r r r ",
"r r r r r r r r 0X1XH }.,X2.7.7.7.7.7.7.7.7.7.7.7.5.5.:.V @.$X.Xh f r r r f r r r r r r r ",
"r r r r r r r r 7Xb S }.:X2.7.7.5.5.5.7.7.7.7.7.7.7.7.1.Z ( $X#Xr r r r r r r r r r r r r ",
"r r r r r r r r 7X2 W t.t.T ;.7.4.3.;.W ,.5.7.7.7.7.7.>.Z ( $X#Xr r r r r r r r r r r r r ",
"r r r r r r r r 7X1 W | 2 8 - D D - i 1 = E 4.6.6.7.6.1.Z ( $XOXr r r r r r r r r r r r r ",
"r r r r r r r r 7X{ U 0.oX=X/ % - w.:X}.7.< ; <.7.7.6.>.C ( $X@Xr r r r r r r r r r r r r ",
"r r r r r q r r 0Xc.: x.-X{.*.M S {.;X-Xu.o.# E <.7.<.U @ ( $X#Xr r r r r r r r r r r r r ",
"r r t e e t r r qXh.o h b y L.u b L.y b L.L.O ; E 7.<.U : _ $X#Xr r r r r r r r r r r r r ",
"r r r r r r r r qX Xq /.1X[.wX_._.wX'.;XeX;Xy & S 5.:.C ) C.$X.Xr r r r r r r r r r r e r ",
"r r q r r r r r <X8Xq.E.;X9X/.d d &XwXeX;XR., D } <.Y % / OX+X_ %.%.r r r r r r r r r r r ",
"r r t e r r t t n.5Xh.q.Y._.d R F d `.[.R.J } ;.7.;.C G *.XX{.m N @ g.r r r r r r r r r r ",
"r r t e r r r t M.0XOXa.+ D | 5.2.| ~ ~ ~ :.7.7.;.A E ;.m.@Xu.Q Z +.r r r r r r r r r q r ",
"r r t e r r r r v.$X-X) ..5.7.7.7.1.} 3.7.7.7.6.:.A | 2. X@XP L #.r r r r r r r r r r r r ",
"r r t q r r r r r N.7X].S ' ' ' ' S } 7.7.7.7.7.5.Y & u.@Xu.L #.j r e r r r e r r r w r r ",
"r r r r r r r q r v.#X7X{.F o.o.K $ o.7.7.7.7.7.3.m u.*Xe.m #.c k r r r r r r r r r r r r ",
"t t t t t t t t r r c.#XqXoX2.7.1.3.' ! 5.7.7.6.y.-X{.b + O.T.v k w w w r r r r r r r r r ",
"t g l l k t t r t r r v.B.#X5X4XXX7.r.3.t.t.,X3X=Xn K./.*XJ.%.K.g a w w r r q r r r r r r ",
"t l c i.c j t r e r r e t v.N.$X8X4X4X3X4X4Xu.y.0.5 G./.wX7X].` g w w w r r r r r r r r r ",
"t l i.i.c g r r t t e r e t r w.i 0.0.y.0.y 7 1 ! ! 7 J.&XqX_.&.r w r r r r r r r w r r r ",
"t j z c l f e t t t r r r e &.o # B L Q > F.Q.I.8 ! }.*XD.Y.].}.8.r r r r r r r r r r r r ",
"r f j l l g f f j j r e e p.A.Z.+ I T T > I.^.~.G.n 0X[.  @.j.1.;.j.e r r r r r r r r r r ",
"r t f l x z k g g f t e r p.s Z., F I M 9 G.~.~.P.(.*X# % O.h.8.=.w.e b z.z.t t r r r r r ",
"r r f x i.i.z f t t r e r r %.H.0 + 9 q I.Q.P./.(.=Xo.A Z * #.g.g.g.a.^ < . k j t t t t t ",
"r r h l i.i.l f r e r r r r r a.= 0 I.^.P.F.(.9X=X] $ I A ] o.S N < < -...[ c x k t t t t ",
"r r t l x l j t e e r r r r r r a.K.I.^.q < +X[. .o q q + H 2.>.;.<.o.X.+.K.i.v l j l l k ",
"r r t t h h t r e r r r r r t j j p.K.!.q :.=.m 5 D.^.G.4 $ K :...] +.+.j x v c k l x i.J.",
"r r r r t r r r r r r r t t l J.c l p.K.o M D Y 9 !.^.!.G.S.6 M @ O.r r h k l l g l i.i.c ",
"r r r r r r r r r r r r r f l i.U.x h a.$.* # B 5 W.^.^.^.P.6 M B [ r a t t k j g g l x l ",
"r r r r r r r r r r r r r t l i.K.x f e e a.*   X Z.W.^.Q.S.M T Y Z ) r r t j j f f g g f ",
"r r r r r r r r r r r r r t j k l j t e r r g.a.$.o 0 r 0 9.T Z M & @ z.r t h g f e r r r ",
"r r r r r r r r r r r r r r t t h f r q r r r r r a.. +   # & @ $.g.g.r r t t t r e r r r ",
"r r r r t q r r r r r r r r r t r r r r r r r r r r a.[ q.z.z.s.r r r r r r r r r r r r r ",
"r r r r r r r r r r r r r r r r r r r r r r r r r r r r r r r r r r r r r r r r r r r r r "
};
