/* XPM */
static char *result[] = {
/* columns rows colors chars-per-pixel */
"45 45 177 2 ",
"   c #010202",
".  c #0E0A06",
"X  c #040709",
"o  c #050A0C",
"O  c #150F06",
"+  c #14110F",
"@  c #060E12",
"#  c #090E10",
"$  c #091216",
"%  c #0A1419",
"&  c #0D191D",
"*  c #1A1918",
"=  c #24201C",
"-  c #382B16",
";  c #0E1B21",
":  c #131E23",
">  c #1B2727",
",  c #15242B",
"<  c #17282F",
"1  c #1A2C34",
"2  c #1C2F38",
"3  c #1D313A",
"4  c #222223",
"5  c #27292A",
"6  c #332F2B",
"7  c #38322D",
"8  c #212C30",
"9  c #253236",
"0  c #20353E",
"q  c #29353B",
"w  c #2A3D3D",
"e  c #323434",
"r  c #3B3E3D",
"t  c #46371D",
"y  c #4C3C20",
"u  c #423C36",
"i  c #534223",
"p  c #6A542E",
"a  c #6D5630",
"s  c #223741",
"d  c #243B45",
"f  c #2F3D43",
"g  c #263E49",
"h  c #303D43",
"j  c #2C4240",
"k  c #2A434D",
"l  c #3A4447",
"z  c #35444A",
"x  c #2B4652",
"c  c #2E4A56",
"v  c #2F4B58",
"b  c #354D57",
"n  c #3C4C52",
"m  c #314D59",
"M  c #33515E",
"N  c #3B5559",
"B  c #365462",
"V  c #395767",
"C  c #385866",
"Z  c #3A5B6A",
"A  c #3F606C",
"S  c #4E4741",
"D  c #494644",
"F  c #464A49",
"G  c #4B4C4C",
"H  c #544D46",
"J  c #5D544C",
"K  c #4E5152",
"L  c #42535B",
"P  c #595856",
"I  c #61584F",
"U  c #645B52",
"Y  c #665F58",
"T  c #6D635A",
"R  c #71665D",
"E  c #425C63",
"W  c #4B5D65",
"Q  c #425F6A",
"!  c #525F65",
"~  c #436264",
"^  c #42646E",
"/  c #4A656D",
"(  c #5F6463",
")  c #52656D",
"_  c #446670",
"`  c #466971",
"'  c #4A6C73",
"]  c #526771",
"[  c #576C75",
"{  c #4E7275",
"}  c #517476",
"|  c #517678",
" . c #5B727B",
".. c #557A7A",
"X. c #587F7D",
"o. c #656868",
"O. c #757979",
"+. c #86796E",
"@. c #8B7E73",
"#. c #5A817E",
"$. c #918377",
"%. c #938679",
"&. c #998B7E",
"*. c #5F7781",
"=. c #637C87",
"-. c #5E8581",
";. c #5F8A84",
":. c #638C85",
">. c #67818C",
",. c #69828D",
"<. c #6D8894",
"1. c #728F9B",
"2. c #6A9A92",
"3. c #74909C",
"4. c #7997A3",
"5. c #7E9DAA",
"6. c #7CB2AA",
"7. c #818686",
"8. c #888B8B",
"9. c #9E8F82",
"0. c #999089",
"q. c #999896",
"w. c #9C9E9E",
"e. c #A29386",
"r. c #A69689",
"t. c #A7988A",
"y. c #AC9C8D",
"u. c #B2A293",
"i. c #B7A798",
"p. c #B8A798",
"a. c #BCAB9B",
"s. c #809FAD",
"d. c #81A1AE",
"f. c #85A5B3",
"g. c #88A8B7",
"h. c #8CAEBC",
"j. c #8EB0BF",
"k. c #A6ADAD",
"l. c #A8A8A8",
"z. c #ABB3B2",
"x. c #BBBBBB",
"c. c #C0AF9F",
"v. c #C4B3A2",
"b. c #C9B6A6",
"n. c #CBB9A8",
"m. c #D1BEAD",
"M. c #C1BFBC",
"N. c #D7C3B1",
"B. c #D9C6B4",
"V. c #DCC8B6",
"C. c #8FB2C1",
"Z. c #92B5C4",
"A. c #98BCCC",
"S. c #97D8CE",
"D. c #9EC4D4",
"F. c #BEC6C6",
"G. c #A1C7D8",
"H. c #A3CBDC",
"J. c #9DE1D7",
"K. c #A7CFE0",
"L. c #AAD3E4",
"P. c #AED7E9",
"I. c #AFD9EA",
"U. c #B0DAEC",
"Y. c #C3C3C3",
"T. c #C6CACA",
"R. c #C7D0CF",
"E. c #C9D1D0",
"W. c #D5DEDD",
"Q. c #D9E2E1",
"!. c #E4EBEA",
"~. c #EFEFEF",
"^. c #E6F0EF",
"/. c #EEF8F7",
"(. c #EFF9F8",
"). c #F2F7F6",
"_. c #FFFFFF",
/* pixels */
"Z ^ _ _ _ _ A A Z Z Z Z Z Z Z Z Z Z Z Z Z Z Z Z Z Z Z Z Z Z Z Z Z Z Z Z Z Z Z Z Z Z Z Z Z ",
"A ` { ....| { A Z Z Z Z Z Z Z Z C Z Z Z Z Z g g B Z Z Z Z Z Z Z Z Z Z Z Z Z Z Z Z Z Z Z Z ",
"A { X.-.;.#.{ ^ Z Z Z Z Z Z Z Z Z Z Z Z Z B @   % x Z Z Z Z Z Z Z Z Z Z Z Z Z Z Z Z Z Z Z ",
"^ { -.:.:.-.| ^ V V Z Z Z Z Z Z Z Z Z Z Z C @ *.<.@ 1 C Z Z Z Z Z Z Z Z Z Z Z Z Z Z Z Z Z ",
"A { #.:.:.#.} Q V V Z Z Z Z Z Z Z Z Z Z Z B   5.U.Z.9 ; M Z Z Z Z Z Z Z Z Z Z Z C Z Z Z Z ",
"A { ..#.#.| N b b B V V Z Z Z Z Z Z Z Z Z M   5.U.U.G.L @ v Z Z Z Z A _ ' ' _ Z Z Z Z Z Z ",
"A _ { { ..9   > 9 > # @ , g m Z C Z Z Z Z c   Z.U.U.U.L.] @ v Z Z Z ^ ' ..| ' Q Z Z Z Z Z ",
"Z A _ { | L & L H.K.D.C.4.E   : d v Z Z Z d : D.U.U.U.U.L.Q $ B Z Z _ | -.#.| _ Z Z Z Z Z ",
"Z A A } #...^ $ ) P.I.I.U.U.G.5.W % ; g B 1 h P.U.U.U.U.U.H.f , _ _ ` { X.X.' Q C C Z Z Z ",
"Z Z _ | #.#.} b   1.U.I.U.U.U.U.U.G.4.n X X ] U.U.U.U.U.U.U.f.  E ' ' ' { { ` Q Z C Z Z Z ",
"Z Z A { ....' A 0 $ C.U.U.U.U.U.U.U.U.I.g.q 5.U.U.U.U.U.U.U.L.h w | _ _ ` ' _ Z C Z Z Z Z ",
"Z Z A ` ' ' ^ Z V , w H.U.U.U.U.U.U.U.U.U.K.K.U.U.U.H.1.]  .,.z X ~ ^ Z _ ' _ Z V C Z Z Z ",
"Z Z Z A A A Z Z Z B % W L.I.U.U.U.U.U.U.U.U.U.U.U.Z.K u.m.m.b.u.J @ g V _ ` A Z V V Z Z Z ",
"Z Z Z Z Z Z Z Z Z Z v   >.I.U.U.U.U.U.U.U.U.U.U.Z.S b.V.V.V.V.V.N.9.= 1 Z A A Z Z Z Z Z Z ",
"Z Z Z Z Z Z Z Z C M v 1 X f.U.U.U.U.U.U.U.U.U.Z.H b.V.V.V.V.V.V.V.B.u.6 , Z Z Z Z Z Z V Z ",
"Z Z Z Z Z B x 3 %   q n /  .U.U.U.U.U.U.U.U.G.l v.V.V.V.V.V.V.V.V.u.R S   g Z Z Z Z Z Z Z ",
"Z Z C x , o 9 =.h.G.L.I.U.U.U.U.U.U.U.U.U.U.=.r.V.V.V.V.u.U Y @.y.v.B.m.I % g B V Z Z Z Z ",
"Z Z d   N Z.I.U.U.U.U.U.U.U.U.U.U.U.U.U.U.H.r m.V.V.V.B.U 1.H.A.f.=. .) [  .n ; V Z Z Z Z ",
"Z Z M 2 X W Z.I.U.U.U.U.U.U.U.U.U.U.U.U.U.G.H V.V.V.V.V.b.+.P [ 1.j.A.A.G.K.=.  B Z Z Z Z ",
"Z Z Z Z M 2   *.G.U.U.U.U.U.U.U.U.U.U.U.U.h.R V.V.V.V.V.V.V.c.G E.M.l.w.w.S   g Z Z Z Z Z ",
"Z Z Z Z Z Z c ; 8 5.P.I.U.U.U.U.U.U.U.U.U.s.&.V.V.V.V.V.V.V.$.x._._._._.~.Y.  c Z Z Z Z C ",
"Z Z Z Z Z Z Z C g X z 3.I.U.U.U.U.U.U.U.U.4.9.V.V.V.V.V.V.V.@.Y._._._.~.e O.  x Z Z Z Z Z ",
"Z Z Z Z Z Z Z Z x @ n h.I.U.U.U.U.U.U.Z.! R U y.V.V.V.V.V.V.a.Y ~._._._.!.8.  v Z Z Z Z Z ",
"Z Z Z Z Z Z Z s X >.L.I.U.U.U.U.U.U.P.n c.V.B.V.V.V.V.V.V.V.V.y.P x.Y.l.R @.7 , C Z Z Z Z ",
"Z Z Z Z Z Z 0   d.I.U.U.U.U.U.U.U.U.P.) u.V.V.V.V.V.V.V.V.N.r.a.a.u.u.c.v.n.y.  x Z Z Z Z ",
"Z Z Z Z Z s   5.I.U.U.U.U.U.U.U.U.U.U.A.F r.n.V.V.V.V.V.V.V.y.9.e.V.V.V.t.. u . k Z Z Z Z ",
"Z Z Z Z 2   *.C.5.f.Z.Z.f.G.U.U.U.U.U.U.K.h +.m.V.V.V.V.V.V.V.V.V.V.V.V.+.  k k Z Z Z Z Z ",
"Z Z A A 0   X ; , , @   z D.U.U.U.U.U.U.U.E c.V.V.V.V.V.u.$.N.b.p.r.r.t.u 1 Z Z Z Z Z Z Z ",
"Q _ ' } ' _ Z C Z Z k   j.U.U.U.U.U.U.U.U.4.%.V.V.V.V.V.%.$.$.@.&.u.p.U   c Z Z Z Z Z Z Z ",
"_ ' X.X...` Z Z Z Z 2 8 P.U.U.U.H.s.K.U.U.H.F v.V.V.V.V.B.m.V.V.V.V.p.* 3 Z Z Z Z Z Z Z Z ",
"A ' X.-..._ Z Z Z Z # =.H.j.4. .:   d.P.A.<.n H u.N.V.V.V.V.V.V.m.$.$ 1 Z Z Z Z Z Z C Z Z ",
"A ' } ..{ _ Q Z ^ z   9 : # 1 d s   E ! 5 k.^.F.  D +.9.i.i.9.T 5 % k C Z Z Z Z Z Z Z Z Z ",
"Z _ ` ' ' ' ^ ^ ' E s g m C Z Z B o F Q.e ^./.E.r W.Q.o.;.X & s v Z Z Z Z Z Z Z Z Z Z Z Z ",
"Z A _ ' | | ' ` ` ^ Q Z Z Z Z Z Z $ O.R.=././.W.* F.Q.j S.# 3 A Z Z Z Z Z A A A Z Z Z Z Z ",
"Z Z _ | X.X.{ _ Z Z Z Z Z Z Z Z M   k.k.l.)./.Q.P 0.o.6.J.> 3 Z Z Z Z Z A ' ' _ _ A Z Z Z ",
"Z Z _ | -.X.{ _ Z Z Z Z Z Z Z Z x   W.w.7.z.F.z.r #.w 2.2.< 1 Z Z Z Z A ` | ..| ' A A _ A ",
"Z Z A { | | ' Z C Z Z Z Z Z Z A 1 F ^.T.T p.t.+.  t t   < 9 v Z Z Z Z A ' ..-.#.{ ` ' { { ",
"Z Z Z A _ _ A Z Z C Z Z Z Z ^ ^ X 8.(.Q.6 v.N.J O a - @ C Z Z Z Z Z Z A ' | ..| ' ' ..X...",
"Z Z Z Z Z Z Z Z Z Z Z Z Z A ' ~   ( o.e   * u t a p O 9 Z Z Z Z Z Z Z Z A ' | { ' ' X.-...",
"Z Z Z Z Z Z Z Z Z Z Z Z A _ { } j j c v B 9 . y i y   k Z Z Z Z Z Z Z Z A A ' ` / ' { ..' ",
"Z Z Z Z Z Z Z Z Z Z Z Z Z A { #.*.| A Z Z 2   q.x.0.  d C Z Z Z Z Z Z Z Z A ` ' ^ ^ ^ ' ^ ",
"Z Z Z Z Z Z Z Z Z Z Z Z Z Z _ { { ' Z Z V ,   D P D +   , B Z Z Z Z Z Z Z A ^ _ Q Z Z Z Z ",
"Z Z C Z Z Z Z Z Z Z Z Z Z A A A ^ Z Z Z Z < X 4 4 4 > :   d Z Z Z Z Z Z Z Z A A Z Z Z Z Z ",
"Z Z Z Z Z Z Z Z Z Z Z Z Z Z Z Z Z Z Z Z Z m 1 , 1 < ; ; , v Z Z Z Z Z Z Z Z Z Z Z Z Z Z Z ",
"Z Z Z Z Z Z Z Z Z Z Z Z Z Z Z Z Z Z Z Z Z Z Z Z Z Z Z Z Z Z Z Z Z Z Z Z Z Z Z Z Z Z Z Z Z "
};
