/* XPM */
static char *_f07a26159934fa2a7ccac2f858c2e74Bco5P4ItVd7urN28[] = {
/* columns rows colors chars-per-pixel */
"45 45 185 2 ",
"   c #010202",
".  c #04090C",
"X  c #0B0A0A",
"o  c #161006",
"O  c #060D11",
"+  c #0A1216",
"@  c #0A1419",
"#  c #0D191E",
"$  c #151516",
"%  c #181513",
"&  c #131A1D",
"*  c #1B1B1C",
"=  c #261D0D",
"-  c #231F1B",
";  c #372E1F",
":  c #3E3019",
">  c #0E1B21",
",  c #141E22",
"<  c #1A2325",
"1  c #172429",
"2  c #15242B",
"3  c #1A2C34",
"4  c #1A2D35",
"5  c #1E323B",
"6  c #222223",
"7  c #2E2924",
"8  c #262828",
"9  c #2B2B2B",
"0  c #343129",
"q  c #212B30",
"w  c #243236",
"e  c #20343E",
"r  c #2A363B",
"t  c #2B3C3E",
"y  c #373A3A",
"u  c #3C3D3D",
"i  c #44351C",
"p  c #594626",
"a  c #4A423C",
"s  c #624E2A",
"d  c #6C552F",
"f  c #6E5730",
"g  c #213741",
"h  c #233A44",
"j  c #263D49",
"k  c #303D43",
"l  c #2B4243",
"z  c #27404B",
"x  c #29424D",
"c  c #334344",
"v  c #3A474C",
"b  c #2B4652",
"n  c #2E4955",
"m  c #2F4B59",
"M  c #334D53",
"N  c #3C4C53",
"B  c #314E5B",
"V  c #33515E",
"C  c #3C535A",
"Z  c #365563",
"A  c #395766",
"S  c #3B5A65",
"D  c #3A5B6A",
"F  c #3E606C",
"G  c #434342",
"H  c #464A47",
"J  c #4C4D4C",
"K  c #544D45",
"L  c #584F48",
"P  c #55504A",
"I  c #5D544C",
"U  c #444E52",
"Y  c #415057",
"T  c #44555D",
"R  c #545655",
"E  c #575B5B",
"W  c #5A5E5D",
"Q  c #61574F",
"!  c #655C55",
"~  c #69625A",
"^  c #74695F",
"/  c #445C65",
"(  c #495C64",
")  c #585F61",
"_  c #42646E",
"`  c #4A696E",
"'  c #5D6060",
"]  c #52646D",
"[  c #4E736E",
"{  c #446670",
"}  c #466971",
"|  c #4A6D73",
" . c #546973",
".. c #586F78",
"X. c #4E7275",
"o. c #517476",
"O. c #517678",
"+. c #5C737D",
"@. c #557A7A",
"#. c #587E7D",
"$. c #646767",
"%. c #6A6C6A",
"&. c #756A61",
"*. c #796E63",
"=. c #7E7268",
"-. c #6D7171",
";. c #757877",
":. c #81756A",
">. c #867A6E",
",. c #8B7E72",
"<. c #5A817E",
"1. c #8D8074",
"2. c #93867A",
"3. c #998B7E",
"4. c #5F7882",
"5. c #627A85",
"6. c #5E8581",
"7. c #638C85",
"8. c #69838E",
"9. c #7D8382",
"0. c #6E8995",
"q. c #728E9A",
"w. c #75929E",
"e. c #71A39B",
"r. c #7693A0",
"t. c #7A98A5",
"y. c #848484",
"u. c #878B8B",
"i. c #9B8D80",
"p. c #9F9083",
"a. c #8C9292",
"s. c #989D9C",
"d. c #A29386",
"f. c #A7988A",
"g. c #AA9B8D",
"h. c #B3A394",
"j. c #BCAB9B",
"k. c #809FAD",
"l. c #82A1AF",
"z. c #9CA3A3",
"x. c #85A5B3",
"c. c #88A9B7",
"v. c #8AACBA",
"b. c #8EB0BF",
"n. c #A6A8A7",
"m. c #A5ACAC",
"M. c #AFB6B5",
"N. c #B5B9B8",
"B. c #C0AF9F",
"V. c #C4B2A2",
"C. c #C8B6A5",
"Z. c #CEBBAA",
"A. c #D2BEAD",
"S. c #B8C0BF",
"D. c #D4C0AF",
"F. c #D5C2B1",
"G. c #D9C6B4",
"H. c #DCC8B6",
"J. c #8FB2C1",
"K. c #92B5C4",
"L. c #97BBCB",
"P. c #98BDCD",
"I. c #90CFC6",
"U. c #9DC2D3",
"Y. c #9BDFD5",
"T. c #BFC7C7",
"R. c #A0C6D6",
"E. c #A4CCDC",
"W. c #A7CFE0",
"Q. c #ABD3E5",
"!. c #ADD7E8",
"~. c #AFD8EA",
"^. c #AFD9EA",
"/. c #B0DAEC",
"(. c #B0DAED",
"). c #C7C7C7",
"_. c #C4CCCB",
"`. c gray80",
"'. c #D7DADA",
"]. c #DCE5E4",
"[. c #E4EAEA",
"{. c #EBF5F4",
"}. c #EFF9F8",
"|. c gray94",
" X c #FEFEFE",
/* pixels */
"D _ { { { { F F D D D D D D D D D D D D D D D D D D D D D D D D D D D D D D D D D D D D D ",
"F } X.@.@.O.X.F D D D D D D D D D D D D D D B , 5 Z D D D D D D D D D D D D D D D D D D D ",
"F X.#.6.6.<.X._ D D D D D D D D D D D A D D x   + + b D D D D D D D D D D D D D D D D D D ",
"_ X.6.7.7.6.O._ A A D D D D D D D D D D D D x . J.8.. 5 A D D D D D D D D D D D D D D D D ",
"F X.<.7.7.<.o._ A D D D D D D D D D D D D D e < ^.^.c., 3 Z D D D D D D D _ D D D D D D A ",
"F X.@.<.6.@.w & 2 4 e j n Z D D D D D D D D 4 3 (.(.^.K.r 2 Z D D D F { | } _ D D D D D D ",
"F _ | o.@.` +   0.t.0...w . 2 b Z D D D D A > / (.(./.(.U.r 2 A D D _ | @.O.| _ D D D D D ",
"D F _ X.@.X._ , N E./.^.!.P.q.v   2 x A D Z   t.(.(.^./.!.P., 4 D D } O.<.<.X._ D D D D D ",
"D D _ o.#.@.X.S O +./././././.!.P.q.k . e j   v.(.(././././.x.  B _ } o.<.@.X._ A D D D D ",
"D F _ O.6.<.X._ x   l./././././.~.~.Q.K.]   < R./.(././././.Q.v w X.} | X.o.| / A A D D D ",
"D F F o.@.@.| F A 4 < U.(./.(.(.~.~.(.(.~.x.] W././././.Q.Q.!.t.  _ ` _ } | _ D A D D D D ",
"D D F } | | _ D D Z @ ( Q././.(.(.(.(.~.~.~.(./././.E.5.W ) ) U   l / D _ | } D A D D D D ",
"D D D F F F D D D D B   5.^././.(.(.(.(.(.(.(././.P.H h.H.H.H.F.d.7 2 Z F } F D A A D D D ",
"D D D D D D D D D D D j   v././.(.(.~.(.(./././.K.H V.H.H.H.H.H.H.C.!   m F F D D D D D D ",
"D D D D D D D Z b g 4 ,   q E.^./././././././.K.J C.H.H.H.H.H.H.G.F.j.I   V D D D D D D D ",
"D D D Z m j 2   k +.t.k.v.v.Q.^././././././.W.H B.H.H.H.H.F.A.H.G.Z.3.&.8 3 D D D D D D D ",
"D D Z > . ] t.P.Q./././././././././././././.w.2.H.H.H.H.h.P ] R :.g.B.C.,.  4 n D D D D D ",
"D D Z > > 0.W././././././././././././././.~.U V.H.H.H.H.2. .P.Q.P.x.q.5.5.8.4.  Z D D D D ",
"D D D A b # w x.^.^./././././././././././.Q.k A.H.H.H.H.H.h.,.u T q.v.v.J.K.w.  B D D D D ",
"D D D D D A h   ] R./././././././././././.R.a H.H.H.H.H.H.H.V.I [.'.).).).;.  g A D D D D ",
"D D D D D A D B 2 & q.R.^././././././././.R.Q H.H.H.H.H.H.H.p.M. X X X X'.`.  x D D D D D ",
"D D D D D D D D A 1   k E./././././././.R.q.K A.H.H.H.H.H.H.d.n. X X X X$.y.X j D D D D D ",
"D D D D D D D Z 3 + r.Q./././././././.t.! g.d.f.H.H.H.H.H.H.Z.K `. X X X|.u.  x D D D D D ",
"D D D D D D Z , c P././././././././.~. .j.H.H.H.H.H.H.H.H.H.H.C.&.y.s.u.! d.K , Z D D D D ",
"D D D D D B > M R./././././././.(.(.(.t.:.F.H.H.H.H.H.H.H.G.=.3.f.Z.Z.Z.C.h.g.X b D D D D ",
"D D D D m @ / U.E.Q././.^./././.(.(.(.~.q.L i.A.H.H.H.H.H.H.A.j.j.H.H.H.f.  %   b D D D D ",
"D D D _ 1   g k , r C N k c././.~.(.(.(./.( 3.H.H.H.H.H.H.G.H.H.H.H.H.H.*.. n B D D D D D ",
"D D _ D D M b B B B h   5./././.~.(.(.(.(.-.h.H.H.H.H.H.3.>.j.d.i.=.=.,.6 g D D D D D D D ",
"D | | o.| { D D D D j   U.^.^.^./.!.^.^.(.c.&.H.H.H.H.H.g.2.g.h.j.Z.Z.I . B D D D D D D D ",
"{ | #.@.@.| D A D D 2 T ^.^.Q.U.w.k U.^.(.W.v g.H.H.H.H.H.H.H.G.H.F.1.  z D D D D D D D D ",
"F | #.6.@.{ / D D B    .q.C & . @   w.b.5. .y R &.B.F.H.H.H.H.A.h.I . j D D D D D D D D D ",
"F | O.@.O.{ D / { M . + 4 x B A x   E m.'.].J ].;.;.%.! *.,.Q 7 O 5 V D D D D D D D D D D ",
"D F | | X._ _ _ | _ S S A D D Z # ) [.}.}.z.z.M.-.{.{.) e.8 6 # C S S D D D D D D D D D D ",
"D F { X.@.X.X._ | _ F A D D D j   N.{.}.'.E [.{.u.s.N.[ I.G T.& 4 F D D D D F F D D D D D ",
"D D { O.<.<.X.{ F D D D D D D 4 a >.-._.9.).{.}.{.m.c I.Y.< -.~ . 5 D F F | | | _ D D D D ",
"D F F O.6.<.X.F A D D D D D D # &.H.V.=.) {.{.}._.u 0 v c K Z.j.- . Z F | X.@.O.| } F { F ",
"D D F | 4.X.} F D Z D D D D D 5 7 j.>.a m.}.[.a.; s f f p P h.g.  g D F | @.6.@.X.} | X.X.",
"D D F F F F F D D D D D D D _ C   W u.a.s.;.; i = s f d d =   # 5 Z D F | @.@.@.| X.@.4.@.",
"D D D D F F D D D D D D F _ D &   * ;.G i d d p = o p s : a X 2 5 x Z D F X.X.X.} X.#.6.@.",
"D D D D D D D D D D D S F _ M   6 8 a N.%.: :   3 3   a S.M.- * * X + Z F F | } } } X.O.X.",
"D D D D D D D D D D D D D F | t   6 9 * 6 @ 4 b D D 4 X 9 < 8 2 &   @ Z D F } | _ _ _ ` _ ",
"D D D D D D Z D D D D D D F } | l   6 6   B D D D D B . $ $   > e n A D D F { } _ S D D D ",
"D D D D D D D D D D D D D F F F _ 5   $   V D D D D D B 4 e m D D D D D D D D F S D D D D ",
"D D D D D D D D D D D D D D D F D D e # h D D D D D D D D D D D D D D D D D D D D D D D D ",
"D D D D D D D D D D D D D D D D D D D D D D D D D D D D D D D Z D D D D D D D D D D D D D "
};
