/* XPM */
static char *result[] = {
/* columns rows colors chars-per-pixel */
"45 45 181 2 ",
"   c #010202",
".  c #0D0905",
"X  c #050709",
"o  c #040A0C",
"O  c #090A0A",
"+  c #100E0C",
"@  c #181208",
"#  c #060D12",
"$  c #071015",
"%  c #0A1316",
"&  c #0A151A",
"*  c #0C191E",
"=  c #121213",
"-  c #1A1715",
";  c #101619",
":  c #131A1D",
">  c #1B1C1C",
",  c #2A2215",
"<  c #342917",
"1  c #0F1C22",
"2  c #111E24",
"3  c #132124",
"4  c #1B2225",
"5  c #14242B",
"6  c #17282F",
"7  c #1D292B",
"8  c #172930",
"9  c #1A2C34",
"0  c #1E323B",
"q  c #242425",
"w  c #2D2925",
"e  c #2A2A2A",
"r  c #302F2F",
"t  c #39332D",
"y  c #292E32",
"u  c #21343C",
"i  c #2A3538",
"p  c #393A39",
"a  c #45361C",
"s  c #4A3A1F",
"d  c #2B403D",
"f  c #584626",
"g  c #4D453E",
"h  c #6B542F",
"j  c #243A44",
"k  c #263E49",
"l  c #303E43",
"z  c #27404B",
"x  c #29424D",
"c  c #324046",
"v  c #34464B",
"b  c #2B4651",
"n  c #2D4854",
"m  c #2F4B58",
"M  c #304A51",
"N  c #3B4B52",
"B  c #314E5B",
"V  c #33515E",
"C  c #3B5859",
"Z  c #365563",
"A  c #395665",
"S  c #395966",
"D  c #3A5B6A",
"F  c #3E606C",
"G  c #424443",
"H  c #4B4A48",
"J  c #534C46",
"K  c #56504A",
"L  c #5C534B",
"P  c #424C50",
"I  c #42575C",
"U  c #515352",
"Y  c #5A5853",
"T  c #655C54",
"R  c #685E56",
"E  c #42625E",
"W  c #6A635D",
"Q  c #73685E",
"!  c #435D65",
"~  c #4C5D64",
"^  c #466668",
"/  c #42646E",
"(  c #4E626A",
")  c #55646B",
"_  c #446670",
"`  c #466971",
"'  c #4A6D73",
"]  c #556A73",
"[  c #596F79",
"{  c #4E7275",
"}  c #507476",
"|  c #517678",
" . c #5A717B",
".. c #557B7B",
"X. c #587E7D",
"o. c #6D6660",
"O. c #686C6C",
"+. c #756B61",
"@. c #7A6E64",
"#. c #7C7167",
"$. c #6C6F71",
"%. c #697173",
"&. c #63747C",
"*. c #747371",
"=. c #82766B",
"-. c #85796E",
";. c #8B7E72",
":. c #5A817E",
">. c #8E8175",
",. c #908377",
"<. c #94867A",
"1. c #96887B",
"2. c #988A7D",
"3. c #5F7781",
"4. c #627B86",
"5. c #687980",
"6. c #667F89",
"7. c #5E8581",
"8. c #638C85",
"9. c #67878C",
"0. c #7D8382",
"q. c #63908A",
"w. c #6E8995",
"e. c #718D99",
"r. c #75919E",
"t. c #7794A0",
"y. c #7D9CA9",
"u. c #858786",
"i. c #9C8E81",
"p. c #8A908F",
"a. c #9F9083",
"s. c #8B9191",
"d. c #959797",
"f. c #A49587",
"g. c #AB9B8D",
"h. c #B3A293",
"j. c #BCAB9B",
"k. c #81A1AE",
"l. c #9DA3A3",
"z. c #84A4B2",
"x. c #88A9B7",
"c. c #8BADBB",
"v. c #A9ABAA",
"b. c #AAB2B1",
"n. c #B3B3B3",
"m. c #B5BDBC",
"M. c gray74",
"N. c #C1AF9F",
"B. c #C2B1A1",
"V. c #C9B6A6",
"C. c #CDBAA9",
"Z. c #D2BFAE",
"A. c #C0BEBB",
"S. c #D3C0AF",
"D. c #D6C2B1",
"F. c #DAC6B4",
"G. c #DCC8B6",
"H. c #8FB2C1",
"J. c #92B5C4",
"K. c #95BAC9",
"L. c #98BCCC",
"P. c #9DC3D3",
"I. c #BCC4C4",
"U. c #A1C7D8",
"Y. c #A4CBDC",
"T. c #A7CFE0",
"R. c #AAD2E4",
"E. c #ADD7E9",
"W. c #AFD9EA",
"Q. c #B0DAEC",
"!. c #C4CCCC",
"~. c #D4DDDC",
"^. c #D8D8D8",
"/. c #DCE6E5",
"(. c #ECECEC",
"). c #EDF7F6",
"_. c #EEF8F7",
"`. c #EFF9F8",
"'. c #F6F6F6",
"]. c #F0FAF9",
"[. c #FEFEFE",
/* pixels */
"D / _ _ _ ` F F D D D D D D D D D D D D D D D D D D D D D D D D D D D D D D D D D D D D D ",
"F ` { ....{ { F D D D D D D D D D D D Z D j 2 b D D D D D D D D D D D D D D D D D D D D D ",
"F { X.7.7.:.{ _ D D D D D D D D D D D D D 8 & 5 6 V D D D D D D D D D D D D D D D D D D D ",
"/ { 7.8.8.7.| / A D D D D D D D D D D D D 9 N T.[ o k D D D D D D D D D D D D D D D D D D ",
"F { :.8.8.:.} / A A ! D D D D D D D D D D 2 ( Q.W.k.2 0 Z D D D D D D F D D F D D D D D D ",
"F { ..:.7.} ! C A A D D D D D D D D D D D 5 ( Q.Q.Q.J.l 5 Z D D D D F F ` _ _ F D D D D D ",
"F _ { } ' o X y 2 2 $ 2 0 n Z D D D D D D $ 6.Q.Q.Q.Q.P.N 2 Z D D D F ' ....' F D D D D D ",
"D F / { } i & k.T.T.P.x.w.v X 9 k V D D V o z.Q.Q.Q.Q.Q.U.l 6 D F F ` | 7.3.| _ Z D D D D ",
"D D _ { X...M ; J.W.Q.Q.Q.W.P.y.~ : 2 k n   H.Q.Q.Q.Q.Q.Q.K.& n / / ' { X.X.' ! Z D D D D ",
"D D _ ..:.:.{ u y P.Q.Q.Q.Q.W.W.W.Y.k.~     Y.W.Q.Q.Q.Q.Q.Q.[ 2 } ' ' ' { { ' ! D D D D D ",
"D D F { X...' S 2 I R.W.Q.Q.Q.Q.Q.Q.Q.Q.z.N R.W.Q.Q.Q.T.Y.U.H.  ^ } _ / ` ' / D D D S D D ",
"D D F _ ' ` _ D V $ 4.W.Q.Q.Q.Q.Q.Q.Q.Q.Q.E.Q.Q.Q.R.6.+.;.;.#.w 2 ! / ! _ ' _ D D Z D D D ",
"D D D F F F D D D n X r.W.W.Q.Q.Q.Q.Q.Q.Q.Q.Q.W.Y.( g.G.F.G.G.Z.;.X u Z _ _ F D Z D D D D ",
"D D D D D D D D D D x   x.W.Q.Q.Q.Q.Q.Q.Q.Q.Q.R.) g.G.G.G.G.G.G.G.j.g * Z F F D D D D D D ",
"D D D D D D D D D Z B 1 7 P.W.Q.Q.Q.Q.Q.W.Q.E.[ g.G.G.G.G.G.G.G.G.i.=.O 5 D D D D D D D D ",
"D D D D D D m j 2   i ~ ( t.Q.Q.Q.Q.Q.Q.W.W.y.-.G.G.G.G.F.V.V.Z.G.Z.B.a.X x Z D D D D D D ",
"D D D B j & 4  .c.Y.E.W.Q.Q.Q.Q.Q.Q.Q.Q.Q.E.P V.G.G.G.F.L 9.e.&.o.>.1.<.e : # b D D D D S ",
"D D b   I H.R.Q.W.Q.W.Q.Q.Q.Q.Q.Q.Q.Q.Q.Q.L.T G.G.G.G.F.R e.H.P.R.P.P.P.P.Y.] 5 D D D D D ",
"D D B 2 : 4.U.Q.W.Q.Q.Q.Q.Q.Q.Q.Q.Q.Q.Q.Q.H.=.G.G.G.G.G.G.N.2.2 $.%.5.&.5.3.: j D D D D D ",
"D D D D B 5 5 e.R.Q.Q.Q.Q.Q.Q.Q.Q.Q.Q.Q.Q.z.a.G.G.G.G.G.G.G.2.n.[.'.[.'.'.u.# Z D D D D D ",
"D D D D D D n 1 l x.E.W.W.Q.Q.Q.Q.Q.Q.Q.Q.y.f.F.G.G.G.G.G.G.Q ^.[.[.[.'.d.v.  V D D D D D ",
"D D D D D D D Z k # N t.W.Q.Q.Q.Q.Q.Q.Q.R.e.<.F.G.G.G.G.G.G.2.n.[.[.[.[.n.d.  A D D D D D ",
"D D D D D D D D Z 2 c z.W.Q.Q.Q.Q.Q.Q.c.Y 2.,.h.G.G.G.G.G.G.Z.R M.'.[.(.A.K   x D D D D D ",
"D D D D D D D m # ] T.Q.Q.Q.Q.Q.Q.Q.W.] j.G.G.G.G.G.G.G.G.G.G.Z.a.W o.=.f.D.-.# Z D D D D ",
"D D D D D D m # 3.E.W.Q.Q.W.Q.Q.Q.Q.Q.t.<.G.G.G.G.G.G.G.G.G.=.Q ,.G.G.G.j.Q ;.O x D D D D ",
"D D D D D V $ [ E.W.W.Q.Q.Q.Q.Q.Q.Q.Q.R.6.+.g.D.G.G.G.G.G.G.G.D.Z.G.G.G.f.  2 6 Z D D D D ",
"D D D D V $ ~ L.K.J.K.L.c.K.W.Q.Q.Q.Q.Q.E.t.;.Z.G.G.G.G.G.Z.G.G.G.F.F.F.#.& D D D D D D D ",
"D D _ F n     X 2 5 &   4 H.W.W.Q.Q.Q.Q.Q.k.a.G.G.G.G.G.h.L N.;.Q Q @.T + j D D D D D D D ",
"! _ ' } ' D D S D D D o 6.Q.Q.Q.Q.Q.Q.Q.W.P.H F.G.G.G.G.C.-.V.N.D.G.G.=.# V D D D D Z D D ",
"F ' X.:...` D D D D B   c.Q.Q.W.R.k.c.Q.W.W.e.;.G.G.G.G.G.G.G.G.G.D.,.o x D D D D D D D D ",
"_ { X.:...' D D D D k O Y.P.z.4.i   N Q.K.6.$.G R h.Z.G.G.G.G.Z.g.K $ x D D D D D D D D D ",
"F ` } ..} / D ! _ ! 2 2 l o 6 j b % : ) v.~.`.p.M.v.5.J Q R K , 1 j Z D D D D D D D D D D ",
"F F ` { ' ` F ` ` ` b j b Z D Z 3 d p /.'._._.l.m._._.0.8.q.: V S D D D D D D D D D D D D ",
"D F F { | { { F ` F F S S D D 9 - !.U /.`._._.I.l._._.~.E w.3 S D D D D D D / D D D D D D ",
"D D _ | :.:.| F F F D S D D x   <.J O.].`.`.`.~.%._._._.:.d 1 Z D D D D / ` ' ` _ D D D D ",
"D D F 3.7.:.| F F D D D D D 0 t G.,.b._.`.`.`._.H I.v.s.Y   1 D D D S / _ | X.| ' / _ _ _ ",
"D D F { 3.{ { F Z D D D D D k - T - ~._._._.).I.G t j.S.B.w & Z D D D / ' ..7.X.' ' ' ' ' ",
"D D D F F F F D D D D D D F F $ - c /.~.m.d.Y < < , Q N.2.  5 D D D D F ` ......' { ..X.| ",
"D D D D F D D D D D D D F F ' C   = r r *.@ a .   f f s s a   V D D D D / { { { ' ' X.7...",
"D D D D D D D D D D D D D F { :.7 % r O # 5 0 x u . s h f <   z S D D D D / ` ` ( ' } ..' ",
"D D D D D D D D D D D D D F { :.I   q   z D D D D k   p v.M.e   # 0 V D D / ` ' / / / ' / ",
"D D D D D D D D D D D D D F _ { ' 3   * Z D D D D D * e K > q y q X 1 D D F / / / D D D D ",
"D D D D D D D D D D D D D F F F _ S B A D D D D D D k   2 > % X   $ j D D D D / D D D D D ",
"D D D D D D D D D D D D D D D D D D D D D D D D D D A 0 : u x m Z D D D D D D D D D D D D ",
"D D D D D D D D D D D D D D D D D D D D D D D D D D D D D D D D D D D D D D D D D D D D D "
};
