/* XPM */
static char *_5841ee758224905bddddc166e16d3f2r4EDy9hvhxjgY3I6[] = {
/* columns rows colors chars-per-pixel */
"45 45 129 2 ",
"   c #000101",
".  c #030709",
"X  c #06090B",
"o  c #0B0C0C",
"O  c #060E12",
"+  c #071015",
"@  c #0B1214",
"#  c #0A151A",
"$  c #0C191E",
"%  c #131515",
"&  c #171919",
"*  c #1A1D1D",
"=  c #0E1B21",
"-  c #101E24",
";  c #122027",
":  c #1D2121",
">  c #15252B",
",  c #18272B",
"<  c #1A2A2D",
"1  c #172930",
"2  c #1A2C34",
"3  c #1F333C",
"4  c #232626",
"5  c #262A2A",
"6  c #292D2D",
"7  c #222E33",
"8  c #2F3434",
"9  c #21353C",
"0  c #29353A",
"q  c #24383D",
"w  c #323737",
"e  c #353A3A",
"r  c #393E3E",
"t  c #213640",
"y  c #233A44",
"u  c #263E49",
"i  c #27404B",
"p  c #2A424D",
"a  c #3D4242",
"s  c #2A4450",
"d  c #2E4956",
"f  c #2F4C58",
"g  c #324C54",
"h  c #324E5C",
"j  c #3D5957",
"k  c #34515F",
"l  c #355462",
"z  c #395765",
"x  c #395966",
"c  c #3A5B6A",
"v  c #3F606C",
"b  c #424646",
"n  c #454C4C",
"m  c #484E4E",
"M  c #4B5252",
"N  c #505656",
"B  c #545A5A",
"V  c #595F5F",
"C  c #425F6A",
"Z  c #42646E",
"A  c #47696F",
"S  c #5C6262",
"D  c #446670",
"F  c #466971",
"G  c #4A6C73",
"H  c #4E7175",
"J  c #517476",
"K  c #517678",
"L  c #557A7A",
"P  c #587E7D",
"I  c #616565",
"U  c #626868",
"Y  c #636969",
"T  c #656B6B",
"R  c #686B6B",
"E  c #686D6D",
"W  c #6E7272",
"Q  c #717676",
"!  c #727878",
"~  c #757A7A",
"^  c #777C7C",
"/  c #797C7C",
"(  c #7A7F7F",
")  c #7B7F7F",
"_  c #5A817E",
"`  c #5B817E",
"'  c #5C8380",
"]  c #5C8480",
"[  c #5F8782",
"{  c #5F8783",
"}  c #628A84",
"|  c #638C85",
" . c #7B8080",
".. c #7D8080",
"X. c #7E8282",
"o. c #7F8383",
"O. c #818585",
"+. c #848888",
"@. c #868A8A",
"#. c #888B8B",
"$. c #8A8F8F",
"%. c #8E9393",
"&. c #8F9393",
"*. c #909494",
"=. c #939797",
"-. c #959898",
";. c #969A9A",
":. c #989C9C",
">. c #9A9E9E",
",. c #9DA1A1",
"<. c #9EA2A2",
"1. c #9FA2A2",
"2. c #A1A4A4",
"3. c #A2A6A6",
"4. c #A4A8A8",
"5. c #A6A9A9",
"6. c #A6AAAA",
"7. c #A7AAAA",
"8. c #A7ABAB",
"9. c #AAADAD",
"0. c #AFB2B2",
"q. c #B2B5B5",
"w. c #BCBFBF",
"e. c #BEC1C1",
"r. c #C1C3C3",
"t. c #C6C9C9",
"y. c #C8CBCB",
"u. c #CED0D0",
"i. c #D1D3D3",
/* pixels */
"c Z F D D D v v c c c c c c c c c c c c c c c c c c c c c c c c c c c c c c c c c c c c c ",
"v F H L L K H v c c c c c c c c c c c c c c c c c c c c c c c c c c c c c c c c c c c c c ",
"v H P ] ] _ H Z c c c c c c c c c c c c c c c c c c c c c c c c c c c c c c c c c c c c c ",
"Z H ] | | } J Z z z c c c c c c c c c c c c c c c c c c c c c c c c c c c c c c c c c c c ",
"D H _ } | ] K C z c c c c c c c c c z c c c c c c c c c c c c c c c C v Z c c c c c c c c ",
"c G L ' } L G C C C c c x c c c c h t 3 d z c c c c c c c c c c c c v v A A A c c c c c c ",
"c F G L L J G Z D D c c x c c l t #     . > s l c c c c c c c l l k k A J L G Z c c c c c ",
"c c F G J J G F F D c c z k u +               = t f l h d u t 1 $ @ X @ j P J Z z c c c c ",
"c c G K P L J F Z C c k 3 +         % * o         O O .                 < K G Z c c c c c ",
"c c D K _ _ J Z x h 9 +         % e m m b 6 o                     X     < J Z Z c l c c c ",
"c c D H K L G l 9 O         & e m M Q *.*.*...a & . . o % 4 r M S w     < A A c l c c c c ",
"c c c D G G g @         & e n M M Y 1.7.7.5.7.1.o. .o.@.$.-.2.5.2.N     < A A c c c c c c ",
"c c c c Z c >       & e m M M M M S 1.7.7.7.7.7.5.5.7.7.5.0.9.7.8.R     2 Z v c z z c c c ",
"c c c c c c -     8 n M M M M M M M I ^ ../ / ..+.-.:.:.$.` :.7.5.N     > v v c c c c c c ",
"c c c c c c 2     a M M M M M M M M M M M M M M M M M m M M $.7.8.I     > c c c c c c c c ",
"c c c c c c t     e M M M M M M M M M M M M M M M M M M M m ..7.8.I     > x c c c c c c c ",
"c c c c c c u     8 M M M M M M M M M M M M M M M M M M M M S 5.5.(     > x c c c c c c c ",
"c c c c c c p     4 M M M M M M M M M M M M M M M M M M M M M 1.5.(     # l c c c c c c c ",
"c c c c c c d .   : M M M M N M M M M M M M M M M M M M M M N 2.5.$.X   . h c c c c c c c ",
"c c c c c c g .   % m / =.>.2.` B M M M M M M M M M M M M M N 2.5.@.%     h c c c c c c c ",
"c c c x c c l O   . R 5.5.5.5.5.>.Y M M M M M M M M M M M M N 1.5.1.*     p c c c c c c c ",
"c c c c c c l #     Q 7.5.5.5.9.7.5.~ M M M M M M M M M M M M 1.5.2.b     y c c c c c c c ",
"c c c c c c x -     I 7.7.O.=.2.7.7.>.N M M M M S @.o.S M M M &.7.7.S     2 c c c c c c z ",
"c c c c c c c ,     B 7.@.r r O.7.7.>.N M M M M @.5.5.1.B M M o.5.5.Q     = l c c c c c c ",
"c c c c c c c 2     n =.w   . b 4.8.o.M M M M M &.8.8.5.@.M M E 9.5.Q     O k c c c c c c ",
"c c c c c c c y     6 b o     b 4.1.B M M M M M &.8.5.8.<.B M S 2.7.o.%     h c c c c c c ",
"c c c c c c c s     7 0     o R 8.@.M M M M M M &.5.8.5.5.U M E 5.5.-.:     s c c c c c c ",
"c Z c D v Z c d     = +     e 2.:.B M M M M M M =.8.8.8.8.o.! 1.5.5.>.8     3 c c c c c c ",
"C D G J H D c l .         @ ~ 4.T M M M M M M M =.8.8.8.0.q.5.8.5.5.~ 6     > c c c c c c ",
"D G P _ L D c l O         a <.=.M M M M M M N T =.8.8.e.u.u.0.8.2.E e .     t l c c c c c ",
"v H P ' L D c x $       & ~ 8.! M M M M M S -.5.8.9.t.i.u.t.8.<.R r .     = h c c c c c c ",
"v F J L H D c v ,       r 2.9.W M M M M M o.0.9.9.e.i.r.q.2.@.S r o     = h c c c c c c c ",
"c v G H G G D D 9     * O.7.7.W M M M M M =.y.u.y.y.r.9.=.B M a o     $ l c c c c c c c c ",
"c v D H K K G D p     4 +.5.2.U M M M M N -.9.9.5.5.8.2.I M r o     # f c v c v c c c c c ",
"c c v K ' P H D g .   % n Y N e w r a n M W ,.2.2.2.1.Q m e X     + f c v F G F D c c c c ",
"c c D K P P H D l O                 . o * 5 r N S S B m w .     $ h c v D K P K G Z D Z D ",
"c c v G K K G c l 2                             X & 5 4       = h c c Z G L ] P G G G H G ",
"c c v v F v v c c k > # - > 9 q q < @ .                     = h c c c c F L P L G G P P K ",
"c c c c v c c c c c c x c v G J L G c h s u 2 = X         2 l c c c c c Z G H G G G P ' L ",
"c c c c c c c c c c c c c Z H _ _ K Z c c c c l l d u y u l c c c c c c v Z G F F G H K H ",
"c c c c c c c c c c c c c D H P ' H v c c c c c l c c c c c c c c c c c c Z F G Z Z D F D ",
"c c c c c c c c c c c c c c F H H F v c c c c c c c c c c c c c c c c c c c D D C c c c c ",
"c c c c c c c c c c c c c c c D v v c c c c c c c c c c c c c c c c c c c c c Z C x x c c ",
"c c c c c c c c c c c c c c c c c c c c c c c c c c c c c c c c c c c c c c c c c c c c c ",
"c c c c c c c c c c c c c c c c c c c c c c c c c c c c c c c c c c c c c c c c c c c c c "
};
